SplineFontDB: 3.0
FontName: Classica-Bold
FullName: Classica Bold
FamilyName: Classica
Weight: Bold
Copyright: Copyright (c) 2011, wmk69 (wmk69@o2.pl)\nwith Reserved Font Names 'Classica' and 'Classica-Bold'.\n\nThis Font Software is licensed under the SIL Open Font License, Version 1.1.\nThis license is available with a FAQ at:\nhttp://scripts.sil.org/OFL
Version: 1.001
ItalicAngle: 0
UnderlinePosition: -81
UnderlineWidth: 122
Ascent: 1638
Descent: 410
LayerCount: 2
Layer: 0 1 "Warstwa t+AUIA-a"  1
Layer: 1 1 "Plan pierwszy"  0
XUID: [1021 783 23647091 2952791]
FSType: 0
OS2Version: 3
OS2_WeightWidthSlopeOnly: 0
OS2_UseTypoMetrics: 1
CreationTime: 1260698820
ModificationTime: 1320780982
PfmFamily: 17
TTFWeight: 700
TTFWidth: 5
LineGap: 0
VLineGap: 0
Panose: 2 1 8 5 2 4 4 6 2 4
OS2TypoAscent: 2000
OS2TypoAOffset: 0
OS2TypoDescent: -500
OS2TypoDOffset: 0
OS2TypoLinegap: 0
OS2WinAscent: 2000
OS2WinAOffset: 0
OS2WinDescent: 500
OS2WinDOffset: 0
HheadAscent: 2000
HheadAOffset: 0
HheadDescent: -500
HheadDOffset: 0
OS2SubXSize: 1434
OS2SubYSize: 1331
OS2SubXOff: 0
OS2SubYOff: 287
OS2SupXSize: 1434
OS2SupYSize: 1331
OS2SupXOff: 0
OS2SupYOff: 977
OS2StrikeYSize: 102
OS2StrikeYPos: 512
OS2Vendor: '    '
OS2CodePages: 20000093.00000000
OS2UnicodeRanges: 8000002f.4000204b.00000000.00000000
Lookup: 258 0 0 "'kern' Kerning poziomy w tablicy 0"  {"Podtablica 'kern' Kerning poziomy w tablicy 0-0"  } []
MarkAttachClasses: 1
DEI: 91125
KernClass2: 31 22 "Podtablica 'kern' Kerning poziomy w tablicy 0-0" 
 79 A Agrave Aacute Acircumflex Atilde Adieresis Aring Amacron Abreve Aogonek Delta
 242 B C D G O Ccedilla Eth Ograve Oacute Ocircumflex Otilde Odieresis Oslash germandbls Cacute Ccircumflex Cdotaccent Ccaron Dcaron Dcroat Gcircumflex Gbreve Gdotaccent Gcommaaccent Omacron Obreve Ohungarumlaut uni01E4 Oslashacute uni1E02 uni1E0A
 17 F uni0191 uni1E1E
 14 K Kcommaaccent
 40 L Lacute Lcommaaccent Lcaron Ldot Lslash
 9 M uni1E40
 9 P uni1E56

StartChar: .notdef
Encoding: 65536 -1 0
Width: 994
Flags: W
HStem: 0 218<368 626> 1147 218<368 626>
VStem: 150 218<218 1147> 626 218<218 1147>
LayerCount: 2
Fore
SplineSet
150 0 m 1,0,-1
 150 1365 l 1,1,-1
 844 1365 l 1,2,-1
 844 0 l 1,3,-1
 150 0 l 1,0,-1
368 1147 m 1,4,-1
 368 218 l 1,5,-1
 626 218 l 1,6,-1
 626 1147 l 1,7,-1
 368 1147 l 1,4,-1
EndSplineSet
Validated: 1
EndChar

StartChar: exclam
Encoding: 33 33 4
Width: 810
GlyphClass: 2
Flags: W
HStem: -20 414<277.369 530.64> 1490 20G<215 595>
VStem: 200 410<58.0199 314.591> 255 300<650.896 1505.22> 275 260<430 989.104>
LayerCount: 2
Fore
SplineSet
200 187 m 0,0,1
 200 274 200 274 260 334 c 128,-1,2
 320 394 320 394 405 394 c 0,3,4
 489 394 489 394 550 333 c 0,5,6
 610 273 610 273 610 187 c 0,7,8
 610 100 610 100 550 40 c 128,-1,9
 490 -20 490 -20 405 -20 c 128,-1,10
 320 -20 320 -20 260 40.5 c 128,-1,11
 200 101 200 101 200 187 c 0,0,1
215 1510 m 1,12,-1
 595 1510 l 1,13,14
 559 1357 559 1357 555 1210 c 2,15,-1
 535 430 l 1,16,-1
 275 430 l 1,17,-1
 255 1210 l 2,18,19
 251 1359 251 1359 215 1510 c 1,12,-1
EndSplineSet
Validated: 1
EndChar

StartChar: quotedbl
Encoding: 34 34 5
Width: 1076
GlyphClass: 2
Flags: W
HStem: 970 560<230 480 596 846>
VStem: 230 250<970 1521.93> 596 250<970 1521.93>
LayerCount: 2
Fore
SplineSet
566 1530 m 1,0,-1
 876 1530 l 1,1,2
 846 1272 846 1272 846 970 c 1,3,-1
 596 970 l 1,4,5
 596 1275 596 1275 566 1530 c 1,0,-1
200 1530 m 1,6,-1
 510 1530 l 1,7,8
 480 1272 480 1272 480 970 c 1,9,-1
 230 970 l 1,10,11
 230 1275 230 1275 200 1530 c 1,6,-1
EndSplineSet
Validated: 1
EndChar

StartChar: numbersign
Encoding: 35 35 6
Width: 1460
GlyphClass: 2
Flags: W
HStem: 480 194<205.843 462 656 806 1000 1256.16> 824 194<203.905 462 656 806 1000 1254.19>
VStem: 462 194<221.844 480 674 824 1018 1272.16> 806 194<223.812 480 674 824 1018 1274.1>
LayerCount: 2
Fore
SplineSet
431 1276 m 1,0,-1
 685 1276 l 1,1,2
 656 1154 656 1154 656 1034 c 2,3,-1
 656 1018 l 1,4,-1
 806 1018 l 1,5,-1
 806 1034 l 2,6,7
 806 1153 806 1153 775 1278 c 1,8,-1
 1029 1278 l 1,9,10
 1000 1155 1000 1155 1000 1033 c 2,11,-1
 1000 1018 l 1,12,-1
 1015 1018 l 2,13,14
 1137 1018 1137 1018 1258 1047 c 1,15,-1
 1258 793 l 1,16,17
 1136 824 1136 824 1016 824 c 2,18,-1
 1000 824 l 1,19,-1
 1000 674 l 1,20,-1
 1016 674 l 2,21,22
 1137 674 1137 674 1260 703 c 1,23,-1
 1260 449 l 1,24,25
 1137 480 1137 480 1015 480 c 2,26,-1
 1000 480 l 1,27,-1
 1000 463 l 2,28,29
 1000 341 1000 341 1029 220 c 1,30,-1
 775 220 l 1,31,32
 806 342 806 342 806 462 c 2,33,-1
 806 480 l 1,34,-1
 656 480 l 1,35,-1
 656 462 l 2,36,37
 656 341 656 341 685 218 c 1,38,-1
 431 218 l 1,39,40
 462 341 462 341 462 463 c 2,41,-1
 462 480 l 1,42,-1
 445 480 l 2,43,44
 325 480 325 480 202 449 c 1,45,-1
 202 703 l 1,46,47
 324 674 324 674 444 674 c 2,48,-1
 462 674 l 1,49,-1
 462 824 l 1,50,-1
 444 824 l 2,51,52
 325 824 325 824 200 793 c 1,53,-1
 200 1047 l 1,54,55
 323 1018 323 1018 445 1018 c 2,56,-1
 462 1018 l 1,57,-1
 462 1033 l 2,58,59
 462 1153 462 1153 431 1276 c 1,0,-1
806 824 m 1,60,-1
 656 824 l 1,61,-1
 656 674 l 1,62,-1
 806 674 l 1,63,-1
 806 824 l 1,60,-1
EndSplineSet
Validated: 1
EndChar

StartChar: dollar
Encoding: 36 36 7
Width: 1205
GlyphClass: 2
Flags: W
HStem: -20 224<338.838 562>
VStem: 80 10<547.167 559> 152 333<1065.56 1262.48> 562 150<-180 -19 270 594 1039 1287 1524.89 1690> 785 340<301.222 562.597> 919 10<1053 1064.78>
LayerCount: 2
Fore
SplineSet
712 -180 m 1,0,-1
 562 -180 l 1,1,-1
 562 -19 l 1,2,3
 541 -20 541 -20 520 -20 c 0,4,5
 295 -20 295 -20 80 112 c 1,6,-1
 80 559 l 1,7,-1
 90 559 l 1,8,9
 157 368 157 368 279 284 c 0,10,11
 395 204 395 204 533 204 c 0,12,13
 548 204 548 204 562 205 c 1,14,-1
 562 678 l 1,15,-1
 434 741 l 2,16,17
 152 881 152 881 152 1135 c 0,18,19
 152 1343 152 1343 328 1458 c 0,20,21
 423 1520 423 1520 562 1529 c 1,22,-1
 562 1690 l 1,23,-1
 712 1690 l 1,24,-1
 712 1522 l 1,25,26
 824 1505 824 1505 929 1452 c 1,27,-1
 929 1053 l 1,28,-1
 919 1053 l 1,29,30
 878 1180 878 1180 798 1248 c 0,31,32
 758 1282 758 1282 712 1296 c 1,33,-1
 712 965 l 1,34,-1
 796 925 l 2,35,36
 1125 769 1125 769 1125 470 c 0,37,38
 1125 255 1125 255 961 119 c 0,39,40
 857 33 857 33 712 -0 c 1,41,-1
 712 -180 l 1,0,-1
562 1039 m 1,42,-1
 562 1287 l 1,43,44
 546 1278 546 1278 532 1266 c 0,45,46
 485 1226 485 1226 485 1166 c 0,47,48
 485 1088 485 1088 562 1039 c 1,42,-1
712 594 m 1,49,-1
 712 270 l 1,50,51
 718 276 718 276 724 282 c 0,52,53
 785 343 785 343 785 436 c 0,54,55
 785 532 785 532 712 594 c 1,49,-1
EndSplineSet
Validated: 1
EndChar

StartChar: percent
Encoding: 37 37 8
Width: 1957
GlyphClass: 2
Flags: W
HStem: -20 216<1301.63 1495.41> 0 21G<456 818.5> 439 216<1300.81 1498.53> 855 216<462.634 656.408> 1314 216<461.812 659.533> 1490 20G<1136.5 1496>
VStem: 200 229<1105.55 1280.02> 689 229<1105.47 1283.82> 1039 229<230.743 403.365> 1528 229<230.469 408.816>
DStem2: 1054 1225 1342 1251 0.417626 0.908619<-1214.98 296.171>
LayerCount: 2
Fore
SplineSet
1398 196 m 128,-1,1
 1459 196 1459 196 1493.5 235 c 128,-1,2
 1528 274 1528 274 1528 318 c 0,3,4
 1528 365 1528 365 1494 400 c 0,5,6
 1458 439 1458 439 1398 439 c 0,7,8
 1337 439 1337 439 1302.5 400.5 c 128,-1,9
 1268 362 1268 362 1268 317 c 128,-1,10
 1268 272 1268 272 1302 235 c 0,11,0
 1337 196 1337 196 1398 196 c 128,-1,1
1398 -20 m 0,12,13
 1231 -20 1231 -20 1131 89 c 0,14,15
 1039 189 1039 189 1039 318 c 0,16,17
 1039 448 1039 448 1133 547 c 0,18,19
 1236 655 1236 655 1398 655 c 128,-1,20
 1560 655 1560 655 1663 547 c 0,21,22
 1757 448 1757 448 1757 318 c 128,-1,23
 1757 188 1757 188 1663 88 c 0,24,25
 1561 -20 1561 -20 1398 -20 c 0,12,13
456 0 m 1,26,27
 544 116 544 116 610 259 c 2,28,-1
 1054 1225 l 2,29,30
 1119 1366 1119 1366 1154 1510 c 1,31,-1
 1496 1510 l 1,32,33
 1408 1394 1408 1394 1342 1251 c 2,34,-1
 898 285 l 2,35,36
 839 157 839 157 798 0 c 1,37,-1
 456 0 l 1,26,27
559 1071 m 128,-1,39
 620 1071 620 1071 654.5 1110 c 128,-1,40
 689 1149 689 1149 689 1193 c 0,41,42
 689 1240 689 1240 655 1275 c 0,43,44
 619 1314 619 1314 559 1314 c 0,45,46
 498 1314 498 1314 463.5 1275.5 c 128,-1,47
 429 1237 429 1237 429 1192 c 128,-1,48
 429 1147 429 1147 463 1110 c 0,49,38
 498 1071 498 1071 559 1071 c 128,-1,39
559 1530 m 128,-1,51
 721 1530 721 1530 824 1422 c 0,52,53
 918 1323 918 1323 918 1193 c 128,-1,54
 918 1063 918 1063 824 963 c 0,55,56
 722 855 722 855 559 855 c 0,57,58
 392 855 392 855 292 964 c 0,59,60
 200 1064 200 1064 200 1192 c 0,61,62
 200 1323 200 1323 294 1422 c 0,63,50
 397 1530 397 1530 559 1530 c 128,-1,51
EndSplineSet
Validated: 1
EndChar

StartChar: quotesingle
Encoding: 39 39 9
Width: 710
GlyphClass: 2
Flags: W
HStem: 970 560<230 480>
VStem: 230 250<970 1521.93>
LayerCount: 2
Fore
SplineSet
200 1530 m 1,0,-1
 510 1530 l 1,1,2
 480 1272 480 1272 480 970 c 1,3,-1
 230 970 l 1,4,5
 230 1275 230 1275 200 1530 c 1,0,-1
EndSplineSet
Validated: 1
EndChar

StartChar: parenleft
Encoding: 40 40 10
Width: 927
GlyphClass: 2
Flags: W
VStem: 200 320<375.126 1134.87>
LayerCount: 2
Fore
SplineSet
530 1760 m 1,0,-1
 777 1760 l 1,1,2
 520 1340 520 1340 520 755 c 128,-1,3
 520 170 520 170 777 -250 c 1,4,-1
 530 -250 l 1,5,6
 200 218 200 218 200 755 c 128,-1,7
 200 1292 200 1292 530 1760 c 1,0,-1
EndSplineSet
Validated: 1
EndChar

StartChar: parenright
Encoding: 41 41 11
Width: 927
GlyphClass: 2
Flags: W
VStem: 407 320<375.126 1134.87>
LayerCount: 2
Fore
SplineSet
150 1760 m 1,0,-1
 397 1760 l 1,1,2
 727 1292 727 1292 727 755 c 128,-1,3
 727 218 727 218 397 -250 c 1,4,-1
 150 -250 l 1,5,6
 407 170 407 170 407 755 c 128,-1,7
 407 1340 407 1340 150 1760 c 1,0,-1
EndSplineSet
Validated: 1
EndChar

StartChar: asterisk
Encoding: 42 42 12
Width: 1270
GlyphClass: 2
Flags: W
HStem: 1490 20G<508 762>
VStem: 539 194<655.781 914 1251 1506.22>
DStem2: 525 1258 427 1090 0.865917 -0.500188<-241.63 15.2961 352.175 609.195> 441 1082 521 904 0.865917 0.500188<-257.923 0 337.379 592.902>
LayerCount: 2
Fore
SplineSet
508 1510 m 1,0,-1
 762 1510 l 1,1,2
 733 1413 733 1413 733 1265 c 2,3,-1
 733 1251 l 1,4,-1
 745 1258 l 2,5,6
 874 1332 874 1332 943 1405 c 1,7,-1
 1070 1186 l 1,8,9
 950 1152 950 1152 843 1090 c 2,10,-1
 829 1082 l 1,11,-1
 845 1073 l 2,12,13
 951 1012 951 1012 1070 976 c 1,14,-1
 943 757 l 1,15,16
 873 833 873 833 749 904 c 2,17,-1
 733 914 l 1,18,-1
 733 895 l 2,19,20
 733 773 733 773 762 652 c 1,21,-1
 508 652 l 1,22,23
 539 751 539 751 539 894 c 2,24,-1
 539 915 l 1,25,-1
 521 904 l 2,26,27
 397 833 397 833 327 757 c 1,28,-1
 200 976 l 1,29,30
 319 1012 319 1012 425 1073 c 2,31,-1
 441 1082 l 1,32,-1
 427 1090 l 2,33,34
 320 1152 320 1152 200 1186 c 1,35,-1
 327 1405 l 1,36,37
 397 1332 397 1332 525 1258 c 2,38,-1
 539 1250 l 1,39,-1
 539 1266 l 2,40,41
 539 1389 539 1389 508 1510 c 1,0,-1
EndSplineSet
Validated: 1
EndChar

StartChar: plus
Encoding: 43 43 13
Width: 1383
GlyphClass: 2
Flags: W
HStem: 617 254<204.688 564 818 1178.25>
VStem: 564 254<256.688 617 871 1231.25>
LayerCount: 2
Fore
SplineSet
534 1236 m 1,0,-1
 848 1236 l 1,1,2
 818 1084 818 1084 818 936 c 2,3,-1
 818 871 l 1,4,-1
 883 871 l 2,5,6
 1031 871 1031 871 1183 901 c 1,7,-1
 1183 587 l 1,8,9
 1032 617 1032 617 883 617 c 2,10,-1
 818 617 l 1,11,-1
 818 552 l 2,12,13
 818 402 818 402 848 252 c 1,14,-1
 534 252 l 1,15,16
 564 402 564 402 564 552 c 2,17,-1
 564 617 l 1,18,-1
 500 617 l 2,19,20
 350 617 350 617 200 587 c 1,21,-1
 200 901 l 1,22,23
 350 871 350 871 500 871 c 2,24,-1
 564 871 l 1,25,-1
 564 936 l 2,26,27
 564 1084 564 1084 534 1236 c 1,0,-1
EndSplineSet
Validated: 1
EndChar

StartChar: comma
Encoding: 44 44 14
Width: 813
GlyphClass: 2
Flags: W
HStem: -431 21G<207 410>
VStem: 342 271<-203.989 -0.589355>
LayerCount: 2
Fore
SplineSet
409 306 m 1,0,1
 613 176 613 176 613 -13 c 0,2,3
 613 -342 613 -342 207 -431 c 1,4,-1
 207 -421 l 1,5,6
 342 -287 342 -287 342 -142 c 0,7,8
 342 2 342 2 200 83 c 1,9,-1
 409 306 l 1,0,1
EndSplineSet
Validated: 1
EndChar

StartChar: hyphen
Encoding: 45 45 15
Width: 1383
GlyphClass: 2
Flags: W
HStem: 617 254<204.688 1178.25>
LayerCount: 2
Fore
SplineSet
200 901 m 1,0,1
 350 871 350 871 500 871 c 2,2,-1
 883 871 l 2,3,4
 1031 871 1031 871 1183 901 c 1,5,-1
 1183 587 l 1,6,7
 1032 617 1032 617 883 617 c 2,8,-1
 500 617 l 2,9,10
 350 617 350 617 200 587 c 1,11,-1
 200 901 l 1,0,1
EndSplineSet
Validated: 1
EndChar

StartChar: period
Encoding: 46 46 16
Width: 810
GlyphClass: 2
Flags: W
HStem: -20 414<277.369 530.64>
VStem: 200 410<58.0199 314.591>
LayerCount: 2
Fore
SplineSet
200 187 m 0,0,1
 200 274 200 274 260 334 c 128,-1,2
 320 394 320 394 405 394 c 0,3,4
 489 394 489 394 550 333 c 0,5,6
 610 273 610 273 610 187 c 0,7,8
 610 100 610 100 550 40 c 128,-1,9
 490 -20 490 -20 405 -20 c 128,-1,10
 320 -20 320 -20 260 40.5 c 128,-1,11
 200 101 200 101 200 187 c 0,0,1
EndSplineSet
Validated: 1
EndChar

StartChar: slash
Encoding: 47 47 17
Width: 1246
GlyphClass: 2
Flags: W
DStem2: 774 1405 1082 1431 0.417928 0.90848<-1602.82 296.024>
LayerCount: 2
Fore
SplineSet
10 -180 m 1,0,1
 108 -42 108 -42 164 79 c 2,2,-1
 774 1405 l 2,3,4
 837 1542 837 1542 874 1690 c 1,5,-1
 1236 1690 l 1,6,7
 1143 1563 1143 1563 1082 1431 c 2,8,-1
 472 105 l 2,9,10
 415 -19 415 -19 372 -180 c 1,11,-1
 10 -180 l 1,0,1
EndSplineSet
Validated: 1
EndChar

StartChar: zero
Encoding: 48 48 18
Width: 1554
GlyphClass: 2
Flags: W
HStem: -20 224<659.439 892.151> 1306 224<659.619 892.33>
VStem: 150 370<434.111 1076.14> 1034 370<436.238 1073.76>
LayerCount: 2
Fore
SplineSet
520 755 m 128,-1,1
 520 456 520 456 601 318 c 0,2,3
 668 204 668 204 776 204 c 0,4,5
 886 204 886 204 956 329 c 0,6,7
 1034 468 1034 468 1034 755 c 128,-1,8
 1034 1042 1034 1042 956 1181 c 0,9,10
 886 1306 886 1306 776 1306 c 0,11,12
 668 1306 668 1306 601 1192 c 0,13,0
 520 1054 520 1054 520 755 c 128,-1,1
777 -20 m 0,14,15
 522 -20 522 -20 347 166 c 0,16,17
 150 375 150 375 150 755 c 0,18,19
 150 1136 150 1136 347 1344 c 0,20,21
 523 1530 523 1530 777 1530 c 0,22,23
 1032 1530 1032 1530 1207 1344 c 0,24,25
 1404 1135 1404 1135 1404 755 c 128,-1,26
 1404 375 1404 375 1207 166 c 0,27,28
 1031 -20 1031 -20 777 -20 c 0,14,15
EndSplineSet
Validated: 1
EndChar

StartChar: one
Encoding: 49 49 19
Width: 985
GlyphClass: 2
Flags: W
HStem: 0 21G<355 765> 1510 20G<601 750>
VStem: 385 350<4.6875 1215>
LayerCount: 2
Fore
SplineSet
765 0 m 1,0,-1
 355 0 l 1,1,2
 385 150 385 150 385 300 c 2,3,-1
 385 1215 l 17,4,-1
 189 998 l 1,5,-1
 10 1137 l 1,6,-1
 355 1480 l 1,7,-1
 765 1530 l 1,8,9
 735 1360 735 1360 735 1230 c 2,10,-1
 735 300 l 2,11,12
 735 150 735 150 765 0 c 1,0,-1
EndSplineSet
Validated: 3073
EndChar

StartChar: two
Encoding: 50 50 20
Width: 1412
GlyphClass: 2
Flags: W
HStem: 0 224<481 1257.28> 1306 224<451.759 785.629>
VStem: 872 368<899.992 1219.94>
LayerCount: 2
Fore
SplineSet
120 0 m 1,0,1
 208 461 208 461 678 749 c 0,2,3
 872 868 872 868 872 1066 c 0,4,5
 872 1170 872 1170 814 1237 c 0,6,7
 753 1306 753 1306 641 1306 c 0,8,9
 495 1306 495 1306 406 1232 c 0,10,11
 310 1152 310 1152 227 1006 c 1,12,-1
 217 1006 l 1,13,-1
 217 1404 l 1,14,15
 427 1530 427 1530 657 1530 c 0,16,17
 894 1529 894 1529 1053 1411 c 0,18,19
 1240 1272 1240 1272 1240 1060 c 0,20,21
 1240 729 1240 729 828 522 c 0,22,23
 581 398 581 398 481 224 c 1,24,-1
 962 224 l 2,25,26
 1111 224 1111 224 1262 254 c 1,27,-1
 1262 0 l 1,28,-1
 120 0 l 1,0,1
EndSplineSet
Validated: 1
EndChar

StartChar: three
Encoding: 51 51 21
Width: 1293
GlyphClass: 2
Flags: W
HStem: -20 224<382.891 689.807> 1286 224<196.718 730>
VStem: 803 370<317.296 621.391>
LayerCount: 2
Fore
SplineSet
100 539 m 1,0,-1
 110 539 l 1,1,2
 195 376 195 376 299 300 c 0,3,4
 430 204 430 204 549 204 c 0,5,6
 672 204 672 204 751 305 c 0,7,8
 803 371 803 371 803 483 c 0,9,10
 803 603 803 603 713 666 c 0,11,12
 645 715 645 715 467 720 c 1,13,-1
 394 849 l 1,14,-1
 730 1286 l 1,15,-1
 492 1286 l 2,16,17
 343 1286 343 1286 192 1256 c 1,18,-1
 192 1510 l 1,19,-1
 1068 1510 l 1,20,-1
 1108 1286 l 1,21,22
 1016 1223 1016 1223 930 1110 c 2,23,-1
 791 927 l 1,24,25
 899 901 899 901 993 835 c 0,26,27
 1173 709 1173 709 1173 493 c 0,28,29
 1173 263 1173 263 987 111 c 0,30,31
 826 -20 826 -20 563 -20 c 128,-1,32
 300 -20 300 -20 100 112 c 1,33,-1
 100 539 l 1,0,-1
EndSplineSet
Validated: 1
EndChar

StartChar: five
Encoding: 53 53 22
Width: 1293
GlyphClass: 2
Flags: W
HStem: -20 224<383.106 696.674> 779 226<531.129 692.279> 1286 224<544 1057.37>
VStem: 803 370<318.423 657.656>
LayerCount: 2
Fore
SplineSet
100 539 m 1,0,-1
 110 539 l 1,1,2
 195 376 195 376 299 300 c 0,3,4
 430 204 430 204 553 204 c 0,5,6
 685 204 685 204 751 305 c 0,7,8
 803 386 803 386 803 498.5 c 128,-1,9
 803 611 803 611 730 700 c 0,10,11
 663 779 663 779 542 779 c 0,12,13
 454 779 454 779 399 739 c 1,14,-1
 173 857 l 1,15,-1
 285 1510 l 1,16,-1
 1062 1510 l 1,17,-1
 1062 1256 l 1,18,19
 914 1286 914 1286 762 1286 c 2,20,-1
 544 1286 l 1,21,-1
 530 1004 l 1,22,23
 552 1005 552 1005 573 1005 c 0,24,25
 840 1005 840 1005 1000 871 c 0,26,27
 1173 726 1173 726 1173 493 c 0,28,29
 1173 263 1173 263 987 111 c 0,30,31
 826 -20 826 -20 563 -20 c 128,-1,32
 300 -20 300 -20 100 112 c 1,33,-1
 100 539 l 1,0,-1
EndSplineSet
Validated: 1
EndChar

StartChar: six
Encoding: 54 54 23
Width: 1498
GlyphClass: 2
Flags: W
HStem: -20 224<660.369 893.803> 872 223<658.437 893.757> 1298 232<664.784 1001.23>
VStem: 150 392<433.673 936> 992 356<323.412 753.538>
LayerCount: 2
Fore
SplineSet
542 538 m 128,-1,1
 542 401 542 401 600 314 c 0,2,3
 674 204 674 204 772 204 c 0,4,5
 876 204 876 204 934 297 c 128,-1,6
 992 390 992 390 992 538 c 128,-1,7
 992 686 992 686 934 779 c 128,-1,8
 876 872 876 872 772 872 c 0,9,10
 674 872 674 872 600 762 c 0,11,0
 542 675 542 675 542 538 c 128,-1,1
1228 1034 m 1,12,-1
 1218 1034 l 1,13,14
 1050 1298 1050 1298 833 1298 c 0,15,16
 700 1298 700 1298 615 1217 c 0,17,18
 530 1133 530 1133 511 940 c 1,19,20
 632 1095 632 1095 802 1095 c 0,21,22
 1036 1095 1036 1095 1202 919 c 0,23,24
 1348 764 1348 764 1348 538 c 0,25,26
 1348 319 1348 319 1195 151 c 0,27,28
 1040 -20 1040 -20 777 -20 c 0,29,30
 522 -20 522 -20 347 166 c 0,31,32
 150 375 150 375 150 754 c 0,33,34
 150 1118 150 1118 360 1340 c 0,35,36
 540 1530 540 1530 827 1530 c 0,37,38
 1051 1530 1051 1530 1228 1420 c 1,39,-1
 1228 1034 l 1,12,-1
EndSplineSet
Validated: 1
EndChar

StartChar: seven
Encoding: 55 55 24
Width: 1152
GlyphClass: 2
Flags: W
HStem: 0 21G<243 660.5> 1286 224<54.7798 684>
DStem2: 355 280 709 297 0.310837 0.950463<-167.905 1057.95>
LayerCount: 2
Fore
SplineSet
655 0 m 1,0,-1
 243 0 l 1,1,2
 311 145 311 145 355 280 c 2,3,-1
 684 1286 l 1,4,-1
 350 1286 l 2,5,6
 203 1286 203 1286 50 1256 c 1,7,-1
 50 1510 l 1,8,-1
 1024 1510 l 1,9,-1
 1062 1286 l 1,10,11
 988 1152 988 1152 940 1006 c 2,12,-1
 709 297 l 2,13,14
 666 164 666 164 655 0 c 1,0,-1
EndSplineSet
Validated: 1
EndChar

StartChar: eight
Encoding: 56 56 25
Width: 1377
GlyphClass: 2
Flags: W
HStem: -20 224<516.558 817.877> 1317 213<606.806 817.193>
VStem: 120 270<321.041 597.55> 237 333<1081.09 1282.92> 877 265<1020.75 1259.54> 907 350<294.328 550.004>
LayerCount: 2
Fore
SplineSet
694 1023 m 2,0,-1
 780 978 l 1,1,2
 877 1036 877 1036 877 1142 c 0,3,4
 877 1223 877 1223 818 1276 c 0,5,6
 771 1317 771 1317 704 1317 c 0,7,8
 652 1317 652 1317 611 1282.5 c 128,-1,9
 570 1248 570 1248 570 1180 c 0,10,11
 570 1088 570 1088 694 1023 c 2,0,-1
692 -20 m 0,12,13
 431 -20 431 -20 284 114 c 0,14,15
 120 263 120 263 120 469 c 0,16,17
 120 718 120 718 371 867 c 1,18,19
 237 970 237 970 237 1145 c 0,20,21
 237 1330 237 1330 403 1449 c 0,22,23
 516 1530 516 1530 689 1530 c 0,24,25
 873 1530 873 1530 992 1434 c 0,26,27
 1142 1313 1142 1313 1142 1130 c 0,28,29
 1142 966 1142 966 999 865 c 1,30,31
 1257 720 1257 720 1257 464 c 0,32,33
 1257 260 1257 260 1095 116 c 0,34,35
 942 -20 942 -20 692 -20 c 0,12,13
720 656 m 2,36,-1
 600 715 l 1,37,38
 530 702 530 702 470 642 c 0,39,40
 390 561 390 561 390 470 c 0,41,42
 390 341 390 341 484 269 c 0,43,44
 569 204 569 204 680 204 c 0,45,46
 780 204 780 204 846 273 c 0,47,48
 907 337 907 337 907 435 c 0,49,50
 907 564 907 564 720 656 c 2,36,-1
EndSplineSet
Validated: 1
EndChar

StartChar: nine
Encoding: 57 57 26
Width: 1498
GlyphClass: 2
Flags: W
HStem: -20 232<496.766 833.216> 415 223<604.243 839.563> 1306 224<604.197 837.631>
VStem: 150 356<756.462 1186.59> 956 392<574 1076.33>
LayerCount: 2
Fore
SplineSet
956 972 m 128,-1,1
 956 1109 956 1109 898 1196 c 0,2,3
 824 1306 824 1306 726 1306 c 0,4,5
 622 1306 622 1306 564 1213 c 128,-1,6
 506 1120 506 1120 506 972 c 128,-1,7
 506 824 506 824 564 731 c 128,-1,8
 622 638 622 638 726 638 c 0,9,10
 824 638 824 638 898 748 c 0,11,0
 956 835 956 835 956 972 c 128,-1,1
270 476 m 1,12,-1
 280 476 l 1,13,14
 448 212 448 212 665 212 c 0,15,16
 798 212 798 212 883 293 c 0,17,18
 968 377 968 377 987 570 c 1,19,20
 866 415 866 415 696 415 c 0,21,22
 462 415 462 415 296 591 c 0,23,24
 150 746 150 746 150 972 c 0,25,26
 150 1191 150 1191 303 1359 c 0,27,28
 458 1530 458 1530 721 1530 c 0,29,30
 976 1530 976 1530 1151 1344 c 0,31,32
 1348 1135 1348 1135 1348 756 c 0,33,34
 1348 392 1348 392 1138 170 c 0,35,36
 958 -20 958 -20 671 -20 c 0,37,38
 447 -20 447 -20 270 90 c 1,39,-1
 270 476 l 1,12,-1
EndSplineSet
Validated: 1
EndChar

StartChar: colon
Encoding: 58 58 27
Width: 810
GlyphClass: 2
Flags: W
HStem: -20 414<277.369 530.64> 547 414<277.369 530.64>
VStem: 200 410<58.0199 314.591 625.631 882.369>
LayerCount: 2
Fore
SplineSet
200 187 m 0,0,1
 200 274 200 274 260 334 c 128,-1,2
 320 394 320 394 405 394 c 0,3,4
 489 394 489 394 550 333 c 0,5,6
 610 273 610 273 610 187 c 0,7,8
 610 100 610 100 550 40 c 128,-1,9
 490 -20 490 -20 405 -20 c 128,-1,10
 320 -20 320 -20 260 40.5 c 128,-1,11
 200 101 200 101 200 187 c 0,0,1
200 754 m 0,12,13
 200 839 200 839 260 900 c 128,-1,14
 320 961 320 961 405 961 c 0,15,16
 489 961 489 961 550 900 c 0,17,18
 610 840 610 840 610 754 c 0,19,20
 610 669 610 669 550 608 c 128,-1,21
 490 547 490 547 405 547 c 128,-1,22
 320 547 320 547 260 607.5 c 128,-1,23
 200 668 200 668 200 754 c 0,12,13
EndSplineSet
Validated: 1
EndChar

StartChar: semicolon
Encoding: 59 59 28
Width: 856
GlyphClass: 2
Flags: W
HStem: -431 21G<227 430> 547 414<277.369 530.64>
VStem: 200 410<625.631 882.369> 362 271<-203.989 -0.589355>
LayerCount: 2
Fore
SplineSet
429 306 m 1,0,1
 633 176 633 176 633 -13 c 0,2,3
 633 -342 633 -342 227 -431 c 1,4,-1
 227 -421 l 1,5,6
 362 -287 362 -287 362 -142 c 0,7,8
 362 2 362 2 220 83 c 1,9,-1
 429 306 l 1,0,1
200 754 m 0,10,11
 200 839 200 839 260 900 c 128,-1,12
 320 961 320 961 405 961 c 0,13,14
 489 961 489 961 550 900 c 0,15,16
 610 840 610 840 610 754 c 0,17,18
 610 669 610 669 550 608 c 128,-1,19
 490 547 490 547 405 547 c 128,-1,20
 320 547 320 547 260 607.5 c 128,-1,21
 200 668 200 668 200 754 c 0,10,11
EndSplineSet
Validated: 1
EndChar

StartChar: less
Encoding: 60 60 29
Width: 1433
GlyphClass: 2
Flags: W
DStem2: 485 1011 529 732 0.917733 0.397197<-68.0428 564.213> 529 732 485 479 0.917733 -0.397197<5.04589 689.049>
LayerCount: 2
Fore
SplineSet
200 911 m 1,0,1
 312 936 312 936 485 1011 c 2,2,-1
 924 1201 l 2,3,4
 1025 1245 1025 1245 1183 1335 c 1,5,-1
 1183 954 l 1,6,7
 1039 928 1039 928 898 874 c 2,8,-1
 529 732 l 1,9,-1
 898 577 l 2,10,11
 1036 519 1036 519 1183 497 c 1,12,-1
 1183 155 l 1,13,14
 1057 232 1057 232 924 289 c 2,15,-1
 485 479 l 2,16,17
 319 551 319 551 200 579 c 1,18,-1
 200 911 l 1,0,1
EndSplineSet
Validated: 1
EndChar

StartChar: equal
Encoding: 61 61 30
Width: 1383
GlyphClass: 2
Flags: W
HStem: 388 254<204.688 1178.25> 846 254<204.688 1178.25>
LayerCount: 2
Fore
SplineSet
200 1130 m 1,0,1
 350 1100 350 1100 500 1100 c 2,2,-1
 883 1100 l 2,3,4
 1031 1100 1031 1100 1183 1130 c 1,5,-1
 1183 816 l 1,6,7
 1032 846 1032 846 883 846 c 2,8,-1
 500 846 l 2,9,10
 350 846 350 846 200 816 c 1,11,-1
 200 1130 l 1,0,1
200 672 m 1,12,13
 350 642 350 642 500 642 c 2,14,-1
 883 642 l 2,15,16
 1031 642 1031 642 1183 672 c 1,17,-1
 1183 358 l 1,18,19
 1032 388 1032 388 883 388 c 2,20,-1
 500 388 l 2,21,22
 350 388 350 388 200 358 c 1,23,-1
 200 672 l 1,12,13
EndSplineSet
Validated: 1
EndChar

StartChar: greater
Encoding: 62 62 31
Width: 1433
GlyphClass: 2
Flags: W
DStem2: 509 1201 535 913 0.917733 -0.397197<-150.586 533.417> 904 758 509 289 0.917733 0.397197<-634.651 -2.3948>
LayerCount: 2
Fore
SplineSet
1233 911 m 1,0,-1
 1233 579 l 1,1,2
 1121 554 1121 554 948 479 c 2,3,-1
 509 289 l 2,4,5
 408 245 408 245 250 155 c 1,6,-1
 250 536 l 1,7,8
 394 562 394 562 535 616 c 2,9,-1
 904 758 l 1,10,-1
 535 913 l 2,11,12
 397 971 397 971 250 993 c 1,13,-1
 250 1335 l 1,14,15
 376 1258 376 1258 509 1201 c 2,16,-1
 948 1011 l 2,17,18
 1114 939 1114 939 1233 911 c 1,0,-1
EndSplineSet
Validated: 1
EndChar

StartChar: question
Encoding: 63 63 32
Width: 1344
GlyphClass: 2
Flags: W
HStem: -20 414<467.369 720.64> 1306 224<385.477 733.565>
VStem: 390 410<58.0199 314.591> 482 218<430 534.289> 842 352<921.248 1197.81>
LayerCount: 2
Fore
SplineSet
150 1404 m 1,0,1
 360 1530 360 1530 590 1530 c 0,2,3
 859 1530 859 1530 1030 1387 c 0,4,5
 1194 1250 1194 1250 1194 1054 c 0,6,7
 1194 805 1194 805 896 648 c 0,8,9
 700 544 700 544 700 430 c 1,10,-1
 482 430 l 17,11,12
 482 678 482 678 713 838 c 0,13,14
 842 927 842 927 842 1062 c 0,15,16
 842 1157 842 1157 766 1235 c 0,17,18
 698 1305 698 1305 574 1306 c 24,19,20
 432 1306 432 1306 339 1232 c 0,21,22
 238 1152 238 1152 160 1006 c 1,23,-1
 150 1006 l 1,24,-1
 150 1404 l 1,0,1
390 187 m 0,25,26
 390 274 390 274 450 334 c 128,-1,27
 510 394 510 394 595 394 c 0,28,29
 679 394 679 394 740 333 c 0,30,31
 800 273 800 273 800 187 c 0,32,33
 800 100 800 100 740 40 c 128,-1,34
 680 -20 680 -20 595 -20 c 128,-1,35
 510 -20 510 -20 450 40.5 c 128,-1,36
 390 101 390 101 390 187 c 0,25,26
EndSplineSet
Validated: 1
EndChar

StartChar: at
Encoding: 64 64 33
Width: 1501
GlyphClass: 2
Flags: W
HStem: -430 221<683.376 1035.31> -20 199<838.045 966.376> 523 197<761.5 961.453> 896 224<624.099 904.596>
VStem: 150 307<53.776 664.986> 546 265<203.253 494.604> 997 305<205.51 496.562>
LayerCount: 2
Fore
SplineSet
902 523 m 128,-1,1
 865 523 865 523 841 487 c 0,2,3
 811 442 811 442 811 345 c 0,4,5
 811 254 811 254 840 210 c 0,6,7
 861 179 861 179 898 179 c 0,8,9
 943 179 943 179 971 232 c 0,10,11
 997 282 997 282 997 356 c 0,12,13
 997 427 997 427 967 476 c 0,14,0
 939 523 939 523 902 523 c 128,-1,1
1331 0 m 9,15,-1
 1010 0 l 17,16,17
 942 -20 942 -20 861 -20 c 0,18,19
 722 -20 722 -20 639 78 c 0,20,21
 546 188 546 188 546 343 c 0,22,23
 546 494 546 494 611 592 c 0,24,25
 696 720 696 720 827 720 c 0,26,27
 923 720 923 720 980 658 c 1,28,29
 980 768 980 768 932 826 c 0,30,31
 873 896 873 896 771 896 c 0,32,33
 635 896 635 896 545 775 c 0,34,35
 457 657 457 657 457 354 c 24,36,37
 457 42 457 42 585 -92 c 0,38,39
 697 -209 697 -209 868 -209 c 0,40,41
 1034 -209 1034 -209 1168 -55 c 1,42,-1
 1178 -55 l 1,43,-1
 1178 -350 l 1,44,45
 1012 -430 1012 -430 831 -430 c 0,46,47
 523 -430 523 -430 347 -244 c 0,48,49
 150 -35 150 -35 150 345 c 128,-1,50
 150 725 150 725 347 934 c 0,51,52
 523 1120 523 1120 777 1120 c 0,53,54
 1028 1120 1028 1120 1174 942 c 0,55,56
 1302 786 1302 786 1302 513 c 2,57,-1
 1302 300 l 2,58,59
 1302 137 1302 137 1331 0 c 9,15,-1
EndSplineSet
Validated: 1
EndChar

StartChar: A
Encoding: 65 65 34
Width: 1745
GlyphClass: 2
Flags: W
HStem: 0 21G<0 354 1281.5 1745> 622 201<665 966> 1490 20G<677 1068>
DStem2: 154 259 437 285 0.418402 0.908262<-154.501 507.938 726.063 1106.31> 599 1225 815 1175 0.418402 0.908262<-890.932 -555.632 -337.507 42.7361> 1146 1225 815 1175 0.418402 -0.908262<-91.5628 289.809 508.77 1125.46>
LayerCount: 2
Fore
SplineSet
0 0 m 1,0,1
 95 131 95 131 154 259 c 2,2,-1
 599 1225 l 2,3,4
 655 1347 655 1347 699 1510 c 1,5,-1
 1046 1510 l 1,6,7
 1090 1347 1090 1347 1146 1225 c 2,8,-1
 1591 259 l 2,9,10
 1648 136 1648 136 1745 0 c 1,11,-1
 1298 0 l 1,12,13
 1265 130 1265 130 1198 285 c 2,14,-1
 1053 622 l 1,15,-1
 580 622 l 1,16,-1
 437 285 l 2,17,18
 371 131 371 131 337 0 c 1,19,-1
 0 0 l 1,0,1
665 823 m 1,20,-1
 966 823 l 1,21,-1
 815 1175 l 1,22,-1
 665 823 l 1,20,-1
EndSplineSet
Validated: 1
EndChar

StartChar: B
Encoding: 66 66 35
Width: 1312
GlyphClass: 2
Flags: W
HStem: 0 224<530.712 776.235> 750 225<530 727.715> 1286 224<530.61 730.714>
VStem: 200 330<225.188 750 975 1284.9> 770 314<1011.56 1245.08> 882 330<328.527 631.783>
LayerCount: 2
Fore
SplineSet
530 975 m 1,0,-1
 631 975 l 2,1,2
 688 975 688 975 729 1012 c 128,-1,3
 770 1049 770 1049 770 1132 c 0,4,5
 770 1206 770 1206 732 1244 c 0,6,7
 691 1286 691 1286 631 1286 c 2,8,-1
 534 1286 l 1,9,10
 530 1251 530 1251 530 1210 c 2,11,-1
 530 975 l 1,0,-1
530 750 m 1,12,-1
 530 300 l 2,13,14
 530 262 530 262 534 224 c 1,15,-1
 615 224 l 2,16,17
 727 224 727 224 800 286 c 0,18,19
 882 354 882 354 882 487 c 0,20,21
 882 600 882 600 795 682 c 0,22,23
 722 750 722 750 615 750 c 2,24,-1
 530 750 l 1,12,-1
170 0 m 1,25,26
 200 150 200 150 200 300 c 2,27,-1
 200 1210 l 2,28,29
 200 1360 200 1360 170 1510 c 1,30,-1
 610 1510 l 2,31,32
 816 1510 816 1510 943 1414 c 0,33,34
 1084 1307 1084 1307 1084 1128 c 0,35,36
 1084 964 1084 964 945 866 c 1,37,38
 986 855 986 855 1030 823 c 0,39,40
 1212 687 1212 687 1212 478 c 0,41,42
 1212 268 1212 268 1040 128 c 0,43,44
 883 0 883 0 595 0 c 2,45,-1
 170 0 l 1,25,26
EndSplineSet
Validated: 1
EndChar

StartChar: C
Encoding: 67 67 36
Width: 1656
GlyphClass: 2
Flags: W
HStem: -20 226<769.474 1169.3> 1304 226<764.292 1147.45>
VStem: 100 370<521.465 993.448>
LayerCount: 2
Fore
SplineSet
1506 562 m 1,0,-1
 1506 173 l 1,1,2
 1282 -20 1282 -20 938 -20 c 0,3,4
 585 -20 585 -20 338 205 c 0,5,6
 100 422 100 422 100 755 c 0,7,8
 100 1080 100 1080 337 1305 c 0,9,10
 573 1530 573 1530 928 1530 c 0,11,12
 1197 1530 1197 1530 1419 1414 c 1,13,-1
 1419 962 l 1,14,-1
 1409 962 l 1,15,16
 1364 1066 1364 1066 1283 1154 c 0,17,18
 1145 1304 1145 1304 960 1304 c 0,19,20
 750 1304 750 1304 604 1136 c 0,21,22
 470 982 470 982 470 756 c 128,-1,23
 470 530 470 530 612 366 c 0,24,25
 751 206 751 206 993 206 c 0,26,27
 1251 206 1251 206 1496 562 c 1,28,-1
 1506 562 l 1,0,-1
EndSplineSet
Validated: 1
EndChar

StartChar: D
Encoding: 68 68 37
Width: 1736
GlyphClass: 2
Flags: W
HStem: 0 224<550.534 1001.98> 1286 224<550.534 1012.69>
VStem: 200 350<225.188 1284.78> 1266 370<504.965 1004.11>
LayerCount: 2
Fore
SplineSet
170 0 m 1,0,1
 200 150 200 150 200 300 c 2,2,-1
 200 1210 l 2,3,4
 200 1360 200 1360 170 1510 c 1,5,-1
 811 1510 l 2,6,7
 1192 1510 1192 1510 1414 1288 c 128,-1,8
 1636 1066 1636 1066 1636 755 c 0,9,10
 1636 457 1636 457 1411 225 c 0,11,12
 1192 0 1192 0 811 0 c 2,13,-1
 170 0 l 1,0,1
553 224 m 1,14,-1
 811 224 l 2,15,16
 1016 224 1016 224 1158 392 c 0,17,18
 1266 520 1266 520 1266 755 c 0,19,20
 1266 988 1266 988 1148 1134 c 0,21,22
 1025 1286 1025 1286 811 1286 c 2,23,-1
 553 1286 l 1,24,25
 550 1247 550 1247 550 1210 c 2,26,-1
 550 300 l 2,27,28
 550 262 550 262 553 224 c 1,14,-1
EndSplineSet
Validated: 1
EndChar

StartChar: E
Encoding: 69 69 38
Width: 1228
GlyphClass: 2
Flags: W
HStem: 0 224<550.495 1123.56> 647 224<550 1003.31> 1286 224<550.66 1003.31>
VStem: 200 350<225.157 647 871 1284.87>
LayerCount: 2
Fore
SplineSet
170 0 m 1,0,1
 200 150 200 150 200 300 c 2,2,-1
 200 1210 l 2,3,4
 200 1360 200 1360 170 1510 c 1,5,-1
 1008 1510 l 1,6,-1
 1008 1256 l 1,7,8
 858 1286 858 1286 708 1286 c 2,9,-1
 554 1286 l 1,10,11
 550 1250 550 1250 550 1210 c 2,12,-1
 550 871 l 1,13,-1
 708 871 l 2,14,15
 858 871 858 871 1008 901 c 1,16,-1
 1008 617 l 1,17,18
 858 647 858 647 708 647 c 2,19,-1
 550 647 l 1,20,-1
 550 300 l 2,21,22
 550 261 550 261 553 224 c 1,23,-1
 828 224 l 2,24,25
 986 224 986 224 1128 254 c 1,26,-1
 1128 0 l 1,27,-1
 170 0 l 1,0,1
EndSplineSet
Validated: 1
EndChar

StartChar: F
Encoding: 70 70 39
Width: 1188
GlyphClass: 2
Flags: W
HStem: 0 21G<170 580> 647 224<550 1003.31> 1286 224<550.712 1003.31>
VStem: 200 350<4.6875 647 871 1284.81>
LayerCount: 2
Fore
SplineSet
580 0 m 1,0,-1
 170 0 l 1,1,2
 200 150 200 150 200 300 c 2,3,-1
 200 1210 l 2,4,5
 200 1360 200 1360 170 1510 c 1,6,-1
 1008 1510 l 1,7,-1
 1008 1256 l 1,8,9
 858 1286 858 1286 708 1286 c 2,10,-1
 554 1286 l 1,11,12
 550 1248 550 1248 550 1210 c 2,13,-1
 550 871 l 1,14,-1
 708 871 l 2,15,16
 858 871 858 871 1008 901 c 1,17,-1
 1008 617 l 1,18,19
 858 647 858 647 708 647 c 2,20,-1
 550 647 l 1,21,-1
 550 300 l 2,22,23
 550 132 550 132 580 0 c 1,0,-1
EndSplineSet
Validated: 1
EndChar

StartChar: G
Encoding: 71 71 40
Width: 1776
GlyphClass: 2
Flags: W
HStem: -22 226<730.192 1105.47> 647 222<922.226 1276> 1304 226<764.526 1147.45>
VStem: 100 370<493.806 992.769> 1276 350<355.908 647>
LayerCount: 2
Fore
SplineSet
1626 869 m 1,0,-1
 1626 368 l 1,1,2
 1339 -22 1339 -22 928 -22 c 0,3,4
 564 -22 564 -22 333 202 c 0,5,6
 100 429 100 429 100 753.5 c 128,-1,7
 100 1078 100 1078 339 1306 c 0,8,9
 574 1530 574 1530 928 1530 c 0,10,11
 1197 1530 1197 1530 1419 1414 c 1,12,-1
 1419 962 l 1,13,-1
 1409 962 l 1,14,15
 1364 1066 1364 1066 1283 1154 c 0,16,17
 1145 1304 1145 1304 960 1304 c 0,18,19
 750 1304 750 1304 604 1136 c 0,20,21
 470 982 470 982 470 756 c 0,22,23
 470 501 470 501 596 352 c 0,24,25
 722 204 722 204 928 204 c 0,26,27
 1138 204 1138 204 1276 406 c 1,28,-1
 1276 647 l 1,29,-1
 1218 647 l 2,30,31
 1053 647 1053 647 918 617 c 1,32,-1
 918 869 l 1,33,-1
 1626 869 l 1,0,-1
EndSplineSet
Validated: 1
EndChar

StartChar: H
Encoding: 72 72 41
Width: 1720
GlyphClass: 2
Flags: W
HStem: 0 21G<170 580 1140 1550> 647 224<550 1170> 1490 20G<170 580 1140 1550>
VStem: 200 350<4.6875 647 871 1505.31> 1170 350<4.6875 647 871 1505.31>
LayerCount: 2
Fore
SplineSet
580 0 m 1,0,-1
 170 0 l 1,1,2
 200 150 200 150 200 300 c 2,3,-1
 200 1210 l 2,4,5
 200 1360 200 1360 170 1510 c 1,6,-1
 580 1510 l 1,7,8
 550 1360 550 1360 550 1210 c 2,9,-1
 550 871 l 1,10,-1
 1170 871 l 1,11,-1
 1170 1210 l 2,12,13
 1170 1360 1170 1360 1140 1510 c 1,14,-1
 1550 1510 l 1,15,16
 1520 1360 1520 1360 1520 1210 c 2,17,-1
 1520 300 l 2,18,19
 1520 150 1520 150 1550 0 c 1,20,-1
 1140 0 l 1,21,22
 1170 150 1170 150 1170 300 c 2,23,-1
 1170 647 l 1,24,-1
 550 647 l 1,25,-1
 550 300 l 2,26,27
 550 150 550 150 580 0 c 1,0,-1
EndSplineSet
Validated: 1
EndChar

StartChar: I
Encoding: 73 73 42
Width: 750
GlyphClass: 2
Flags: W
HStem: 0 21G<170 580> 1490 20G<170 580>
VStem: 200 350<4.6875 1505.31>
LayerCount: 2
Fore
SplineSet
580 0 m 1,0,1
 170 0 l 1,2,3
 200 150 200 150 200 300 c 2,4,-1
 200 1210 l 2,5,6
 200 1360 200 1360 170 1510 c 1,7,-1
 580 1510 l 1,8,9
 550 1360 550 1360 550 1210 c 2,10,-1
 550 300 l 2,11,12
 550 150 550 150 580 0 c 1,0,1
EndSplineSet
Validated: 1
EndChar

StartChar: J
Encoding: 74 74 43
Width: 750
GlyphClass: 2
Flags: W
HStem: 1490 20G<170 580>
VStem: 200 350<-3.1748 1505.07>
LayerCount: 2
Fore
SplineSet
170 1510 m 1,0,-1
 580 1510 l 1,1,2
 550 1370 550 1370 550 1210 c 2,3,-1
 550 181 l 2,4,5
 550 -200 550 -200 20 -200 c 1,6,-1
 20 -190 l 1,7,8
 200 -55 200 -55 200 181 c 2,9,-1
 200 1210 l 2,10,11
 200 1352 200 1352 170 1510 c 1,0,-1
EndSplineSet
Validated: 1
EndChar

StartChar: K
Encoding: 75 75 44
Width: 1662
GlyphClass: 2
Flags: W
HStem: 0 21G<170 580 1052 1662> 1490 20G<170 580 1091 1540>
VStem: 200 350<4.6875 572 861 1505.31>
DStem2: 550 861 804 783 0.689179 0.724591<118.533 867.299> 804 783 550 572 0.72148 -0.692435<0 750.655>
LayerCount: 2
Fore
SplineSet
170 0 m 1,0,1
 200 150 200 150 200 300 c 2,2,-1
 200 1210 l 2,3,4
 200 1360 200 1360 170 1510 c 1,5,-1
 580 1510 l 1,6,7
 550 1364 550 1364 550 1210 c 2,8,-1
 550 861 l 1,9,-1
 946 1273 l 2,10,11
 1049 1380 1049 1380 1133 1510 c 1,12,-1
 1540 1510 l 1,13,14
 1413 1424 1413 1424 1310 1315 c 2,15,-1
 804 783 l 1,16,-1
 1425 187 l 2,17,18
 1538 79 1538 79 1662 0 c 1,19,-1
 1100 0 l 1,20,21
 1004 135 1004 135 905 230 c 2,22,-1
 550 572 l 1,23,-1
 550 300 l 2,24,25
 550 150 550 150 580 0 c 1,26,-1
 170 0 l 1,0,1
EndSplineSet
Validated: 1
EndChar

StartChar: L
Encoding: 76 76 45
Width: 1148
GlyphClass: 2
Flags: W
HStem: 0 224<550.574 1123.31> 1490 20G<170 580>
VStem: 200 350<225.311 1505.31>
LayerCount: 2
Fore
SplineSet
170 0 m 1,0,1
 200 150 200 150 200 300 c 2,2,-1
 200 1210 l 2,3,4
 200 1360 200 1360 170 1510 c 1,5,-1
 580 1510 l 1,6,7
 550 1360 550 1360 550 1210 c 2,8,9
 550 300 l 2,10,11
 550 266 550 266 553 224 c 1,12,-1
 828 224 l 2,13,14
 978 224 978 224 1128 254 c 1,15,-1
 1128 0 l 1,16,-1
 170 0 l 1,0,1
EndSplineSet
Validated: 1
EndChar

StartChar: M
Encoding: 77 77 46
Width: 2174
GlyphClass: 2
Flags: W
HStem: 0 21G<120 442 869.5 1232.5 1669 2054> 1490 20G<253 628.5 1555.5 1921>
DStem2: 257 1209 487 948 0.0883714 0.996088<-1016.88 -239.653> 713 1225 487 948 0.416883 -0.90896<157.566 899.922> 1090 403 1316 285 0.426856 0.904319<0 725.946> 1917 1209 1617 957 0.0883714 -0.996088<224.503 1011.04>
LayerCount: 2
Fore
SplineSet
120 0 m 1,0,1
 162 143 162 143 176 296 c 2,2,-1
 257 1209 l 2,3,4
 262 1265 262 1265 262 1332 c 0,5,6
 262 1415 262 1415 253 1510 c 1,7,-1
 613 1510 l 1,8,9
 644 1375 644 1375 713 1225 c 2,10,-1
 1090 403 l 1,11,-1
 1478 1225 l 2,12,13
 1533 1342 1533 1342 1578 1510 c 1,14,15
 1921 1510 l 1,16,17
 1912 1417 1912 1417 1912 1332 c 0,18,19
 1912 1265 1912 1265 1917 1209 c 2,20,-1
 1998 296 l 2,21,22
 2011 145 2011 145 2054 0 c 1,23,-1
 1669 0 l 1,24,25
 1679 86 1679 86 1679 171 c 0,26,27
 1679 231 1679 231 1673 301 c 2,28,-1
 1617 957 l 1,29,-1
 1316 285 l 2,30,31
 1249 135 1249 135 1216 0 c 1,32,-1
 889 0 l 1,33,34
 850 151 850 151 789 285 c 2,35,36
 487 948 l 1,37,-1
 438 301 l 2,38,39
 432 222 432 222 432 171 c 0,40,41
 432 82 432 82 442 0 c 1,42,-1
 120 0 l 1,0,1
EndSplineSet
Validated: 1
EndChar

StartChar: N
Encoding: 78 78 47
Width: 1700
GlyphClass: 2
Flags: W
HStem: 0 21G<170 492 1135 1530> 1490 20G<170 561 1208 1530>
VStem: 200 262<4.87207 1008> 1238 262<517 1505.31>
DStem2: 684 1252 462 1008 0.595535 -0.803329<63.8036 920.374>
LayerCount: 2
Fore
SplineSet
170 0 m 1,0,1
 200 150 200 150 200 300 c 2,2,-1
 200 1210 l 2,3,4
 200 1360 200 1360 170 1510 c 1,5,-1
 527 1510 l 1,6,7
 595 1370 595 1370 684 1252 c 2,8,-1
 1238 517 l 1,9,-1
 1238 1210 l 2,10,11
 1238 1360 1238 1360 1208 1510 c 1,12,-1
 1530 1510 l 1,13,14
 1500 1360 1500 1360 1500 1210 c 2,15,-1
 1500 300 l 2,16,17
 1500 150 1500 150 1530 0 c 1,18,-1
 1175 0 l 1,19,20
 1095 154 1095 154 1018 258 c 2,21,-1
 462 1008 l 1,22,-1
 462 300 l 2,23,24
 462 156 462 156 492 0 c 1,25,-1
 170 0 l 1,0,1
EndSplineSet
Validated: 1
EndChar

StartChar: O
Encoding: 79 79 48
Width: 1856
GlyphClass: 2
Flags: W
HStem: -20 226<739.908 1116.31> 1304 226<740.063 1115.98>
VStem: 100 370<501.369 1008.71> 1386 370<501.369 1008.71>
LayerCount: 2
Fore
SplineSet
928 1304 m 0,0,1
 734 1304 734 1304 597 1150 c 0,2,3
 470 1007 470 1007 470 755 c 0,4,5
 470 505 470 505 598 359 c 0,6,7
 732 206 732 206 928 206 c 128,-1,8
 1124 206 1124 206 1258 359 c 0,9,10
 1386 505 1386 505 1386 755 c 0,11,12
 1386 1006 1386 1006 1259 1150 c 0,13,14
 1123 1304 1123 1304 928 1304 c 0,0,1
928 -20 m 0,15,16
 584 -20 584 -20 342 208 c 128,-1,17
 100 436 100 436 100 755 c 0,18,19
 100 1073 100 1073 342 1302 c 0,20,21
 583 1530 583 1530 928 1530 c 0,22,23
 1272 1530 1272 1530 1514 1302 c 128,-1,24
 1756 1074 1756 1074 1756 755 c 128,-1,25
 1756 436 1756 436 1514.5 208 c 128,-1,26
 1273 -20 1273 -20 928 -20 c 0,15,16
EndSplineSet
Validated: 1
EndChar

StartChar: P
Encoding: 80 80 49
Width: 1314
GlyphClass: 2
Flags: W
HStem: 0 21G<170 580> 535 225<550 752.938> 1286 224<550.495 759.336>
VStem: 200 350<4.6875 535 760 1284.87> 863 351<862.845 1185.04>
LayerCount: 2
Fore
SplineSet
580 0 m 1,0,1
 170 0 l 1,2,3
 200 150 200 150 200 300 c 2,4,-1
 200 1210 l 2,5,6
 200 1360 200 1360 170 1510 c 1,7,-1
 595 1510 l 2,8,9
 877 1510 877 1510 1037 1380 c 0,10,11
 1214 1236 1214 1236 1214 1021 c 0,12,13
 1214 782 1214 782 1037 650 c 0,14,15
 880 535 880 535 595 535 c 2,16,-1
 550 535 l 1,17,-1
 550 300 l 2,18,19
 550 150 550 150 580 0 c 1,0,1
550 760 m 1,20,-1
 615 760 l 2,21,22
 718 760 718 760 794 833 c 0,23,24
 863 900 863 900 863 1026 c 0,25,26
 863 1148 863 1148 790 1220 c 0,27,28
 724 1286 724 1286 615 1286 c 2,29,-1
 553 1286 l 1,30,31
 550 1250 550 1250 550 1210 c 2,32,-1
 550 760 l 1,20,-1
EndSplineSet
Validated: 1
EndChar

StartChar: Q
Encoding: 81 81 50
Width: 1856
GlyphClass: 2
Flags: W
HStem: -20 226<739.908 1092.89> 0 21G<1286.27 1806> 1304 226<740.063 1115.98>
VStem: 100 370<501.369 1008.71> 1386 370<500.501 1008.71>
LayerCount: 2
Fore
SplineSet
1806 0 m 1,0,-1
 1304 0 l 1,1,-1
 1265 44 l 1,2,3
 1111 -20 1111 -20 928 -20 c 0,4,5
 584 -20 584 -20 342 208 c 128,-1,6
 100 436 100 436 100 755 c 0,7,8
 100 1073 100 1073 342 1302 c 0,9,10
 583 1530 583 1530 928 1530 c 0,11,12
 1272 1530 1272 1530 1514 1302 c 128,-1,13
 1756 1074 1756 1074 1756 755 c 0,14,15
 1756 447 1756 447 1531 224 c 1,16,-1
 1569 187 l 2,17,18
 1691 69 1691 69 1806 0 c 1,0,-1
631 648 m 1,19,-1
 1133 648 l 1,20,21
 1207 536 1207 536 1293 453 c 2,22,-1
 1312 435 l 1,23,24
 1386 565 1386 565 1386 755 c 0,25,26
 1386 1006 1386 1006 1259 1150 c 0,27,28
 1123 1304 1123 1304 928 1304 c 0,29,30
 734 1304 734 1304 597 1150 c 0,31,32
 470 1007 470 1007 470 755 c 0,33,34
 470 505 470 505 598 359 c 0,35,36
 732 206 732 206 928 206 c 0,37,38
 1018 206 1018 206 1095 238 c 1,39,-1
 868 461 l 2,40,41
 760 567 760 567 631 648 c 1,19,-1
EndSplineSet
Validated: 1
EndChar

StartChar: R
Encoding: 82 82 51
Width: 1457
GlyphClass: 2
Flags: W
HStem: 0 21G<170 580 952 1457> 535 225<550 666> 1286 224<550.495 759.336>
VStem: 200 350<4.6875 535 760 1284.87> 863 351<862.845 1185.28>
DStem2: 1005 629 666 537 0.555187 -0.831725<0 506.313>
LayerCount: 2
Fore
SplineSet
550 760 m 1,0,-1
 615 760 l 2,1,2
 718 760 718 760 794 833 c 0,3,4
 863 900 863 900 863 1026 c 0,5,6
 863 1148 863 1148 790 1220 c 0,7,8
 724 1286 724 1286 615 1286 c 2,9,-1
 553 1286 l 1,10,11
 550 1250 550 1250 550 1210 c 2,12,-1
 550 760 l 1,0,-1
580 0 m 1,13,-1
 170 0 l 1,14,15
 200 150 200 150 200 300 c 2,16,-1
 200 1210 l 2,17,18
 200 1360 200 1360 170 1510 c 1,19,-1
 595 1510 l 2,20,21
 877 1510 877 1510 1037 1380 c 0,22,23
 1214 1237 1214 1237 1214 1021 c 0,24,25
 1214 782 1214 782 1037 650 c 0,26,27
 1022 639 1022 639 1005 629 c 1,28,-1
 1268 235 l 2,29,30
 1354 106 1354 106 1457 0 c 1,31,-1
 984 0 l 1,32,33
 920 157 920 157 846 268 c 2,34,-1
 666 537 l 1,35,36
 632 535 632 535 595 535 c 2,37,-1
 550 535 l 1,38,-1
 550 300 l 2,39,40
 550 150 550 150 580 0 c 1,13,-1
EndSplineSet
Validated: 1
EndChar

StartChar: S
Encoding: 83 83 52
Width: 1205
GlyphClass: 2
Flags: W
HStem: -20 224<338.419 682.904> 1306 224<531.954 780.767>
VStem: 80 10<547.228 559> 152 333<1064.74 1262.48> 785 340<301.947 561.536> 919 10<1053 1064.69>
DStem2: 594 1021 434 741 0.89608 -0.443892<-130.043 371.275>
LayerCount: 2
Fore
SplineSet
80 559 m 1,0,-1
 90 559 l 1,1,2
 157 369 157 369 279 284 c 0,3,4
 394 204 394 204 533 204 c 0,5,6
 653 204 653 204 724 282 c 0,7,8
 785 349 785 349 785 436 c 0,9,10
 785 567 785 567 650 634 c 2,11,-1
 434 741 l 2,12,13
 152 881 152 881 152 1135 c 0,14,15
 152 1343 152 1343 328 1458 c 0,16,17
 438 1530 438 1530 606 1530 c 128,-1,18
 774 1530 774 1530 929 1452 c 1,19,-1
 929 1053 l 1,20,-1
 919 1053 l 1,21,22
 878 1179 878 1179 798 1248 c 0,23,24
 730 1306 730 1306 643 1306 c 0,25,26
 579 1306 579 1306 532 1266 c 128,-1,27
 485 1226 485 1226 485 1166 c 0,28,29
 485 1073 485 1073 594 1021 c 2,30,-1
 796 925 l 2,31,32
 1125 769 1125 769 1125 470 c 0,33,34
 1125 255 1125 255 961 119 c 0,35,36
 793 -20 793 -20 520 -20 c 0,37,38
 295 -20 295 -20 80 112 c 1,39,-1
 80 559 l 1,0,-1
EndSplineSet
Validated: 1
EndChar

StartChar: T
Encoding: 84 84 53
Width: 1260
GlyphClass: 2
Flags: W
HStem: 0 21G<425 835> 1286 224<24.6875 454.466 805.534 1235.31>
VStem: 455 350<4.6875 1284.81>
LayerCount: 2
Fore
SplineSet
835 0 m 1,0,-1
 425 0 l 1,1,2
 455 150 455 150 455 300 c 2,3,-1
 455 1210 l 2,4,5
 455 1248 455 1248 452 1286 c 1,6,-1
 320 1286 l 2,7,8
 170 1286 170 1286 20 1256 c 1,9,-1
 20 1510 l 1,10,-1
 1240 1510 l 1,11,-1
 1240 1256 l 1,12,13
 1090 1286 1090 1286 940 1286 c 2,14,-1
 808 1286 l 1,15,16
 805 1248 805 1248 805 1210 c 2,17,-1
 805 300 l 2,18,19
 805 150 805 150 835 0 c 1,0,-1
EndSplineSet
Validated: 1
EndChar

StartChar: U
Encoding: 85 85 54
Width: 1721
GlyphClass: 2
Flags: W
HStem: -20 251<712.133 1010.42> 0 21G<1140 1550> 1490 20G<170 581 1140 1551>
VStem: 201 350<410.522 1505.16> 1170 350<406.413 1504.91>
LayerCount: 2
Fore
SplineSet
1550 0 m 1,0,-1
 1140 0 l 1,1,2
 1151 47 1151 47 1155 96 c 1,3,4
 1032 -20 1032 -20 861 -20 c 0,5,6
 547 -20 547 -20 372 167 c 0,7,8
 201 350 201 350 201 678 c 2,9,-1
 201 1210 l 2,10,11
 201 1355 201 1355 170 1510 c 1,12,-1
 581 1510 l 1,13,14
 551 1362 551 1362 551 1210 c 2,15,-1
 551 640 l 2,16,17
 551 453 551 453 626 356 c 0,18,19
 723 231 723 231 861 231 c 128,-1,20
 999 231 999 231 1095 356 c 0,21,22
 1170 453 1170 453 1170 640 c 2,23,-1
 1170 1210 l 2,24,25
 1170 1347 1170 1347 1140 1510 c 1,26,-1
 1551 1510 l 1,27,28
 1520 1362 1520 1362 1520 1210 c 2,29,-1
 1520 300 l 2,30,31
 1520 151 1520 151 1550 0 c 1,0,-1
EndSplineSet
Validated: 1
EndChar

StartChar: V
Encoding: 86 86 55
Width: 1745
GlyphClass: 2
Flags: W
HStem: 0 21G<677 1068> 1490 20G<0 466.5 1388.5 1745>
DStem2: 547 1225 154 1251 0.418402 -0.908262<-295.901 922.361> 930 385 1146 285 0.418402 0.908262<0 1217.02>
LayerCount: 2
Fore
SplineSet
699 0 m 1,0,1
 655 164 655 164 599 285 c 2,2,-1
 154 1251 l 2,3,4
 98 1373 98 1373 0 1510 c 1,5,-1
 447 1510 l 1,6,7
 486 1359 486 1359 547 1225 c 2,8,-1
 930 385 l 1,9,-1
 1308 1225 l 2,10,11
 1369 1360 1369 1360 1408 1510 c 1,12,-1
 1745 1510 l 1,13,14
 1650 1379 1650 1379 1591 1251 c 2,15,-1
 1146 285 l 2,16,17
 1090 164 1090 164 1046 0 c 1,18,-1
 699 0 l 1,0,1
EndSplineSet
Validated: 1
EndChar

StartChar: W
Encoding: 87 87 56
Width: 2114
GlyphClass: 2
Flags: W
HStem: 0 503<207.5 1906.5> 1490 20G<20 438 952 1259 1773 2094>
VStem: 958 295<1248.92 1510>
DStem2: 486 1213 132 1230 0.280829 -0.959758<-295.489 740.121> 695 503 888 297 0.282386 0.959301<0 459.084> 1307 1213 1057 875 0.282386 -0.959301<253.647 740.122> 1516 503 1709 297 0.280829 0.959758<0 1035.61>
LayerCount: 2
Fore
SplineSet
459 0 m 1,0,1
 447 154 447 154 405 297 c 2,2,-1
 132 1230 l 2,3,4
 86 1387 86 1387 20 1510 c 1,5,-1
 432 1510 l 1,6,7
 444 1356 444 1356 486 1213 c 2,8,-1
 695 503 l 1,9,-1
 904 1213 l 2,10,11
 946 1356 946 1356 958 1510 c 1,12,-1
 1253 1510 l 1,13,14
 1265 1356 1265 1356 1307 1213 c 2,15,-1
 1516 503 l 1,16,-1
 1725 1213 l 2,17,18
 1767 1356 1767 1356 1779 1510 c 1,19,-1
 2094 1510 l 1,20,21
 2028 1387 2028 1387 1982 1230 c 2,22,-1
 1709 297 l 2,23,24
 1667 153 1667 153 1655 0 c 1,25,-1
 1280 0 l 1,26,27
 1268 154 1268 154 1226 297 c 2,28,-1
 1057 875 l 1,29,-1
 888 297 l 2,30,31
 846 153 846 153 834 0 c 1,32,-1
 459 0 l 1,0,1
EndSplineSet
Validated: 1
EndChar

StartChar: X
Encoding: 88 88 57
Width: 1553
GlyphClass: 2
Flags: W
HStem: 0 21G<40 435.5 1012 1513> 1490 20G<40 540.5 1121 1513>
DStem2: 651 1242 229 1275 0.555652 -0.831415<-294.777 296.211 646.956 1244.05> 237 229 552 263 0.600251 0.799811<-77.597 531.67 961.001 1566.97>
LayerCount: 2
Fore
SplineSet
40 0 m 1,0,1
 147 104 147 104 237 229 c 2,2,-1
 596 725 l 1,3,-1
 229 1275 l 2,4,5
 145 1401 145 1401 40 1510 c 1,6,-1
 513 1510 l 1,7,8
 568 1365 568 1365 651 1242 c 2,9,-1
 816 996 l 1,10,-1
 1001 1247 l 2,11,12
 1094 1374 1094 1374 1148 1510 c 1,13,-1
 1513 1510 l 1,14,15
 1404 1401 1404 1401 1316 1281 c 2,16,-1
 954 787 l 1,17,-1
 1324 235 l 2,18,19
 1413 102 1413 102 1513 0 c 1,20,-1
 1040 0 l 1,21,22
 984 144 984 144 902 268 c 2,23,-1
 735 520 l 1,24,-1
 552 263 l 2,25,26
 466 143 466 143 405 0 c 1,27,-1
 40 0 l 1,0,1
EndSplineSet
Validated: 1
EndChar

StartChar: Y
Encoding: 89 89 58
Width: 1493
GlyphClass: 2
Flags: W
HStem: 0 21G<550 960> 1490 20G<0 482 1111 1493>
VStem: 580 350<4.6875 612>
DStem2: 797 873 180 1268 0.520607 -0.853796<-716.812 0> 797 873 930 629 0.514101 0.85773<0 717.709>
LayerCount: 2
Fore
SplineSet
550 0 m 1,0,1
 580 150 580 150 580 300 c 2,2,-1
 580 612 l 1,3,-1
 180 1268 l 2,4,5
 94 1409 94 1409 0 1510 c 1,6,-1
 456 1510 l 1,7,8
 508 1370 508 1370 585 1237 c 2,9,-1
 797 873 l 1,10,-1
 1011 1237 l 2,11,12
 1082 1358 1082 1358 1140 1510 c 1,13,-1
 1493 1510 l 1,14,15
 1394 1403 1394 1403 1313 1268 c 2,16,-1
 930 629 l 1,17,-1
 930 300 l 2,18,19
 930 148 930 148 960 0 c 1,20,-1
 550 0 l 1,0,1
EndSplineSet
Validated: 1
EndChar

StartChar: Z
Encoding: 90 90 59
Width: 1508
GlyphClass: 2
Flags: W
HStem: 0 224<540 1423.74> 1286 224<192.78 937>
DStem2: 281 449 540 224 0.622068 0.782963<-10.3959 1059.27>
LayerCount: 2
Fore
SplineSet
103 0 m 1,0,-1
 60 224 l 1,1,2
 178 318 178 318 281 449 c 2,3,-1
 937 1286 l 1,4,-1
 488 1286 l 2,5,6
 341 1286 341 1286 188 1256 c 1,7,-1
 188 1510 l 1,8,-1
 1388 1510 l 1,9,-1
 1426 1286 l 1,10,11
 1311 1194 1311 1194 1205 1061 c 2,12,-1
 540 224 l 1,13,-1
 1128 224 l 2,14,15
 1292 224 1292 224 1428 254 c 1,16,-1
 1428 0 l 1,17,-1
 103 0 l 1,0,-1
EndSplineSet
Validated: 1
EndChar

StartChar: bracketleft
Encoding: 91 91 60
Width: 953
GlyphClass: 2
Flags: W
HStem: -250 224<524.944 898.312> 1536 224<524.944 898.312>
VStem: 200 320<-23.5425 1533.18>
LayerCount: 2
Fore
SplineSet
170 1760 m 1,0,-1
 903 1760 l 1,1,-1
 903 1506 l 1,2,3
 753 1536 753 1536 603 1536 c 2,4,-1
 530 1536 l 1,5,6
 520 1462 520 1462 520 1385 c 2,7,-1
 520 125 l 2,8,9
 520 48 520 48 530 -26 c 1,10,-1
 603 -26 l 2,11,12
 753 -26 753 -26 903 4 c 1,13,-1
 903 -250 l 1,14,-1
 170 -250 l 1,15,16
 200 -109 200 -109 200 50 c 2,17,-1
 200 1460 l 2,18,19
 200 1618 200 1618 170 1760 c 1,0,-1
EndSplineSet
Validated: 1
EndChar

StartChar: backslash
Encoding: 92 92 61
Width: 1246
GlyphClass: 2
Flags: W
DStem2: 472 1405 164 1431 0.417928 -0.90848<-296.024 1602.82>
LayerCount: 2
Fore
SplineSet
1236 -180 m 1,0,-1
 874 -180 l 1,1,2
 831 -19 831 -19 774 105 c 2,3,-1
 164 1431 l 2,4,5
 104 1562 104 1562 10 1690 c 1,6,-1
 372 1690 l 1,7,8
 409 1542 409 1542 472 1405 c 2,9,-1
 1082 79 l 2,10,11
 1137 -41 1137 -41 1236 -180 c 1,0,-1
EndSplineSet
Validated: 1
EndChar

StartChar: bracketright
Encoding: 93 93 62
Width: 953
GlyphClass: 2
Flags: W
HStem: -250 224<174.688 548.056> 1536 224<174.688 548.056>
VStem: 553 320<-23.5425 1533.18>
LayerCount: 2
Fore
SplineSet
170 1760 m 1,0,-1
 903 1760 l 1,1,2
 873 1618 873 1618 873 1460 c 2,3,-1
 873 50 l 2,4,5
 873 -109 873 -109 903 -250 c 1,6,-1
 170 -250 l 1,7,-1
 170 4 l 1,8,9
 320 -26 320 -26 470 -26 c 2,10,-1
 543 -26 l 1,11,12
 553 48 553 48 553 125 c 2,13,-1
 553 1385 l 2,14,15
 553 1462 553 1462 543 1536 c 1,16,-1
 470 1536 l 2,17,18
 320 1536 320 1536 170 1506 c 1,19,-1
 170 1760 l 1,0,-1
EndSplineSet
Validated: 1
EndChar

StartChar: asciicircum
Encoding: 94 94 63
Width: 1303
GlyphClass: 2
Flags: W
HStem: 1050 480<465.802 554.952 745.111 836.621>
LayerCount: 2
Fore
SplineSet
477 1530 m 1,0,-1
 826 1530 l 1,1,2
 888 1238 888 1238 1103 1060 c 1,3,-1
 1103 1050 l 1,4,-1
 773 1050 l 1,5,6
 688 1172 688 1172 648 1325 c 1,7,8
 603 1170 603 1170 531 1050 c 1,9,-1
 200 1050 l 1,10,-1
 200 1060 l 1,11,12
 411 1241 411 1241 477 1530 c 1,0,-1
EndSplineSet
Validated: 1
EndChar

StartChar: underscore
Encoding: 95 95 64
Width: 1383
GlyphClass: 2
Flags: W
HStem: -354 254<204.688 1178.25>
LayerCount: 2
Fore
SplineSet
200 -70 m 1,0,1
 350 -100 350 -100 500 -100 c 2,2,-1
 883 -100 l 2,3,4
 1031 -100 1031 -100 1183 -70 c 1,5,-1
 1183 -384 l 1,6,7
 1032 -354 1032 -354 883 -354 c 2,8,-1
 500 -354 l 2,9,10
 350 -354 350 -354 200 -384 c 1,11,-1
 200 -70 l 1,0,1
EndSplineSet
Validated: 1
EndChar

StartChar: grave
Encoding: 96 96 65
Width: 949
GlyphClass: 2
Flags: W
HStem: 1050 480<452.659 542>
VStem: 200 549
LayerCount: 2
Fore
SplineSet
200 1530 m 1,0,-1
 542 1530 l 1,1,2
 542 1264 542 1264 749 1060 c 1,3,-1
 749 1050 l 1,4,-1
 506 1050 l 1,5,6
 251 1251 251 1251 200 1520 c 1,7,-1
 200 1530 l 1,0,-1
EndSplineSet
Validated: 1
EndChar

StartChar: a
Encoding: 97 97 66
Width: 1506
GlyphClass: 2
Flags: W
HStem: -20 224<583.013 832.608> 0 21G<926 1336> 896 224<583.487 832.58>
VStem: 100 370<335.024 765.725> 956 350<344.274 755.726>
LayerCount: 2
Fore
SplineSet
710 896 m 0,0,1
 608 896 608 896 540 809 c 0,2,3
 470 722 470 722 470 550 c 128,-1,4
 470 378 470 378 540 291 c 0,5,6
 608 204 608 204 710 204 c 0,7,8
 808 204 808 204 882 297 c 128,-1,9
 956 390 956 390 956 550 c 128,-1,10
 956 710 956 710 882 803 c 128,-1,11
 808 896 808 896 710 896 c 0,0,1
1336 0 m 1,12,-1
 926 0 l 1,13,-1
 936 52 l 1,14,15
 810 -20 810 -20 673 -20 c 0,16,17
 432 -20 432 -20 261 160 c 0,18,19
 100 331 100 331 100 550 c 0,20,21
 100 772 100 772 262 940 c 0,22,23
 435 1120 435 1120 673 1120 c 0,24,25
 815 1120 815 1120 929 1056 c 1,26,-1
 926 1070 l 1,27,-1
 1336 1120 l 1,28,29
 1306 993 1306 993 1306 820 c 2,30,-1
 1306 300 l 2,31,32
 1306 150 1306 150 1336 0 c 1,12,-1
EndSplineSet
Validated: 1
EndChar

StartChar: b
Encoding: 98 98 67
Width: 1506
GlyphClass: 2
Flags: W
HStem: -20 224<661.461 913.591> 0 21G<170 580> 896 224<661.385 913.149> 1510 20G<416 565>
VStem: 200 350<329.851 770.149 1038 1475.62> 1036 370<343.637 757.113>
LayerCount: 2
Fore
SplineSet
790 896 m 0,0,1
 688 896 688 896 620 809 c 0,2,3
 550 722 550 722 550 550 c 128,-1,4
 550 378 550 378 620 291 c 0,5,6
 688 204 688 204 790 204 c 0,7,8
 888 204 888 204 962 297 c 128,-1,9
 1036 390 1036 390 1036 550 c 128,-1,10
 1036 710 1036 710 962 803 c 128,-1,11
 888 896 888 896 790 896 c 0,0,1
580 0 m 1,12,-1
 170 0 l 1,13,14
 200 150 200 150 200 300 c 2,15,-1
 200 1180 l 2,16,17
 200 1340 200 1340 170 1480 c 1,18,-1
 580 1530 l 1,19,20
 550 1380 550 1380 550 1230 c 2,21,-1
 550 1038 l 1,22,23
 676 1120 676 1120 833 1120 c 0,24,25
 1071 1120 1071 1120 1244 940 c 0,26,27
 1406 772 1406 772 1406 550 c 0,28,29
 1406 331 1406 331 1245 160 c 0,30,31
 1074 -20 1074 -20 833 -20 c 0,32,33
 696 -20 696 -20 570 52 c 1,34,-1
 580 0 l 1,12,-1
EndSplineSet
Validated: 1
EndChar

StartChar: c
Encoding: 99 99 68
Width: 1272
GlyphClass: 2
Flags: W
HStem: -20 224<620.578 952.854> 896 224<616.69 916.589>
VStem: 100 370<345.226 748.197> 1081 10<637 646.059>
LayerCount: 2
Fore
SplineSet
1152 124 m 1,0,1
 951 -20 951 -20 693.5 -20 c 128,-1,2
 436 -20 436 -20 262 160 c 0,3,4
 100 328 100 328 100 551 c 0,5,6
 100 772 100 772 262 940 c 0,7,8
 435 1120 435 1120 713 1120 c 0,9,10
 921 1120 921 1120 1091 1043 c 1,11,-1
 1091 637 l 1,12,-1
 1081 637 l 1,13,14
 1042 734 1042 734 961 815 c 128,-1,15
 880 896 880 896 768 896 c 0,16,17
 650 896 650 896 560 809 c 128,-1,18
 470 722 470 722 470 550 c 0,19,20
 470 356 470 356 569 280 c 128,-1,21
 668 204 668 204 822 204 c 0,22,23
 977 204 977 204 1142 452 c 1,24,-1
 1152 452 l 1,25,-1
 1152 124 l 1,0,1
EndSplineSet
Validated: 1
EndChar

StartChar: d
Encoding: 100 100 69
Width: 1506
GlyphClass: 2
Flags: W
HStem: -20 224<583.47 832.608> 0 21G<926 1336> 896 224<583.64 832.235> 1510 20G<1172 1321>
VStem: 100 370<332.385 765.476> 956 350<344.274 755.726 1038 1475.04>
LayerCount: 2
Fore
SplineSet
710 896 m 0,0,1
 608 896 608 896 540 809 c 0,2,3
 470 722 470 722 470 550 c 128,-1,4
 470 378 470 378 540 291 c 0,5,6
 608 204 608 204 710 204 c 0,7,8
 808 204 808 204 882 297 c 128,-1,9
 956 390 956 390 956 550 c 128,-1,10
 956 710 956 710 882 803 c 128,-1,11
 808 896 808 896 710 896 c 0,0,1
1336 0 m 1,12,-1
 926 0 l 1,13,-1
 936 52 l 1,14,15
 810 -20 810 -20 673 -20 c 0,16,17
 435 -20 435 -20 261 160 c 0,18,19
 100 327 100 327 100 550 c 0,20,21
 100 771 100 771 262 940 c 0,22,23
 436 1120 436 1120 673 1120 c 0,24,25
 830 1120 830 1120 956 1038 c 1,26,-1
 956 1180 l 2,27,28
 956 1321 956 1321 926 1480 c 1,29,-1
 1336 1530 l 1,30,31
 1306 1387 1306 1387 1306 1230 c 2,32,-1
 1306 300 l 2,33,34
 1306 150 1306 150 1336 0 c 1,12,-1
EndSplineSet
Validated: 1
EndChar

StartChar: e
Encoding: 101 101 70
Width: 1366
GlyphClass: 2
Flags: W
HStem: -20 224<605.28 980.787> 473 213<462 926> 906 214<557.603 834.395>
LayerCount: 2
Fore
SplineSet
926 686 m 1,0,1
 926 768 926 768 864 837 c 128,-1,2
 802 906 802 906 697 906 c 0,3,4
 603 906 603 906 536 844 c 0,5,6
 472 785 472 785 462 686 c 1,7,-1
 926 686 l 1,0,1
1182 124 m 1,8,9
 996 -20 996 -20 715.5 -20 c 128,-1,10
 435 -20 435 -20 262 160 c 0,11,12
 100 328 100 328 100 550 c 0,13,14
 100 773 100 773 262 940 c 0,15,16
 436 1120 436 1120 713 1120 c 0,17,18
 977 1120 977 1120 1150 908 c 0,19,20
 1266 766 1266 766 1266 534 c 1,21,-1
 1260 473 l 1,22,-1
 458 473 l 1,23,24
 478 349 478 349 558 280 c 0,25,26
 646 204 646 204 831 204 c 128,-1,27
 1016 204 1016 204 1172 452 c 1,28,-1
 1182 452 l 1,29,-1
 1182 124 l 1,8,9
EndSplineSet
Validated: 1
EndChar

StartChar: f
Encoding: 102 102 71
Width: 990
GlyphClass: 2
Flags: W
HStem: 0 21G<170 580> 697 226<52.4668 200 550 835.315> 1305 225<604.157 861.347>
VStem: 200 350<5.91797 697 923 1248.79>
LayerCount: 2
Fore
SplineSet
580 0 m 1,0,-1
 170 0 l 1,1,2
 200 190 200 190 200 300 c 2,3,-1
 200 697 l 1,4,5
 129 697 129 697 50 667 c 1,6,-1
 50 953 l 1,7,8
 128 923 128 923 200 923 c 1,9,-1
 200 1060 l 2,10,11
 200 1221 200 1221 313 1362 c 0,12,13
 448 1530 448 1530 728 1530 c 0,14,15
 860 1530 860 1530 970 1498 c 1,16,-1
 970 1159 l 1,17,-1
 960 1159 l 1,18,19
 854 1305 854 1305 732 1305 c 0,20,21
 656 1305 656 1305 609 1265 c 0,22,23
 550 1213 550 1213 550 1110 c 2,24,-1
 550 923 l 1,25,26
 690 923 690 923 840 953 c 1,27,-1
 840 667 l 1,28,29
 690 697 690 697 550 697 c 1,30,-1
 550 300 l 2,31,32
 550 125 550 125 580 0 c 1,0,-1
EndSplineSet
Validated: 1
EndChar

StartChar: g
Encoding: 103 103 72
Width: 1506
GlyphClass: 2
Flags: W
HStem: -430 225<487.734 846.118> -20 224<583.013 833.837> 896 224<583.487 832.58>
VStem: 100 370<335.024 765.725> 956 350<-88.5 93 344.274 755.726>
LayerCount: 2
Fore
SplineSet
710 896 m 0,0,1
 608 896 608 896 540 809 c 0,2,3
 470 722 470 722 470 550 c 128,-1,4
 470 378 470 378 540 291 c 0,5,6
 608 204 608 204 710 204 c 0,7,8
 808 204 808 204 882 297 c 128,-1,9
 956 390 956 390 956 550 c 128,-1,10
 956 710 956 710 882 803 c 128,-1,11
 808 896 808 896 710 896 c 0,0,1
1336 1120 m 1,12,13
 1306 970 1306 970 1306 820 c 2,14,-1
 1306 165 l 2,15,16
 1306 -82 1306 -82 1172 -236 c 0,17,18
 1003 -430 1003 -430 729 -430 c 0,19,20
 450 -430 450 -430 272 -334 c 1,21,-1
 272 51 l 1,22,-1
 282 51 l 1,23,24
 344 -71 344 -71 416 -119 c 0,25,26
 541 -205 541 -205 660 -205 c 0,27,28
 799 -205 799 -205 877 -141 c 0,29,30
 962 -72 962 -72 962 93 c 1,31,32
 824 -20 824 -20 673 -20 c 0,33,34
 432 -20 432 -20 261 160 c 0,35,36
 100 331 100 331 100 550 c 0,37,38
 100 772 100 772 262 940 c 0,39,40
 435 1120 435 1120 673 1120 c 0,41,42
 815 1120 815 1120 929 1056 c 1,43,-1
 926 1070 l 1,44,-1
 1336 1120 l 1,12,13
EndSplineSet
Validated: 1
EndChar

StartChar: h
Encoding: 104 104 73
Width: 1516
GlyphClass: 2
Flags: W
HStem: 0 21G<170 580 936 1346> 896 224<633.516 888.51> 1510 20G<416 565>
VStem: 200 350<4.6875 811.223 1040 1475.31> 966 350<4.6875 815.105>
LayerCount: 2
Fore
SplineSet
580 0 m 1,0,-1
 170 0 l 1,1,2
 200 150 200 150 200 300 c 2,3,-1
 200 1180 l 2,4,5
 200 1330 200 1330 170 1480 c 1,6,-1
 580 1530 l 1,7,8
 550 1383 550 1383 550 1230 c 2,9,-1
 550 1040 l 1,10,11
 649 1120 649 1120 814 1120 c 0,12,13
 1056 1120 1056 1120 1209 947 c 0,14,15
 1316 826 1316 826 1316 621 c 2,16,-1
 1316 300 l 2,17,18
 1316 150 1316 150 1346 0 c 1,19,-1
 936 0 l 1,20,21
 966 150 966 150 966 300 c 2,22,-1
 966 658 l 2,23,24
 966 762 966 762 920 820 c 0,25,26
 860 896 860 896 758 896 c 0,27,28
 663 896 663 896 600 819 c 0,29,30
 550 758 550 758 550 658 c 2,31,-1
 550 300 l 2,32,33
 550 150 550 150 580 0 c 1,0,-1
EndSplineSet
Validated: 1
EndChar

StartChar: i
Encoding: 105 105 74
Width: 750
GlyphClass: 2
Flags: W
HStem: 0 21G<170 580> 1100 20G<416 565> 1116 414<247.369 500.64>
VStem: 170 410<1194.02 1450.59> 200 350<4.6875 1065.31>
LayerCount: 2
Fore
SplineSet
580 0 m 1,0,1
 170 0 l 1,2,3
 200 150 200 150 200 300 c 2,4,-1
 200 770 l 2,5,6
 200 920 200 920 170 1070 c 1,7,-1
 580 1120 l 1,8,9
 550 970 550 970 550 820 c 2,10,-1
 550 300 l 2,11,12
 550 150 550 150 580 0 c 1,0,1
170 1323 m 0,13,14
 170 1410 170 1410 230 1470 c 128,-1,15
 290 1530 290 1530 375 1530 c 0,16,17
 459 1530 459 1530 520 1469 c 0,18,19
 580 1409 580 1409 580 1323 c 0,20,21
 580 1236 580 1236 520 1176 c 128,-1,22
 460 1116 460 1116 375 1116 c 128,-1,23
 290 1116 290 1116 230 1176.5 c 128,-1,24
 170 1237 170 1237 170 1323 c 0,13,14
EndSplineSet
Validated: 1
EndChar

StartChar: j
Encoding: 106 106 75
Width: 750
GlyphClass: 2
Flags: W
HStem: -430 21G<20 285> 1100 20G<416 565> 1116 414<247.369 502.631>
VStem: 170 410<1194.39 1451.61> 200 350<-233.175 1065.31>
LayerCount: 2
Fore
SplineSet
20 -430 m 1,0,-1
 20 -420 l 1,1,2
 200 -286 200 -286 200 -49 c 2,3,-1
 200 770 l 2,4,5
 200 920 200 920 170 1070 c 1,6,-1
 580 1120 l 1,7,8
 550 970 550 970 550 820 c 2,9,-1
 550 -49 l 2,10,11
 550 -430 550 -430 20 -430 c 1,0,-1
170 1323 m 128,-1,13
 170 1409 170 1409 230 1469 c 0,14,15
 290 1530 290 1530 375 1530 c 128,-1,16
 460 1530 460 1530 520 1469 c 0,17,18
 580 1409 580 1409 580 1323 c 128,-1,19
 580 1237 580 1237 520 1177 c 0,20,21
 460 1116 460 1116 375 1116 c 128,-1,22
 290 1116 290 1116 230 1177 c 0,23,12
 170 1237 170 1237 170 1323 c 128,-1,13
EndSplineSet
Validated: 1
EndChar

StartChar: k
Encoding: 107 107 76
Width: 1506
GlyphClass: 2
Flags: W
HStem: 0 21G<170 580 915 1506> 1080 20G<892 1348> 1510 20G<416 565>
VStem: 200 350<4.6875 419 687 1475.31>
DStem2: 815 617 550 419 0.726037 -0.687656<0 518.869> 740 863 815 617 0.72482 0.688938<-115.117 294.452>
LayerCount: 2
Fore
SplineSet
580 0 m 1,0,-1
 170 0 l 1,1,2
 200 150 200 150 200 300 c 2,3,-1
 200 1180 l 2,4,5
 200 1330 200 1330 170 1480 c 1,6,-1
 580 1530 l 1,7,8
 550 1386 550 1386 550 1230 c 2,9,-1
 550 687 l 1,10,-1
 740 863 l 2,11,12
 857 971 857 971 927 1100 c 1,13,-1
 1348 1100 l 1,14,15
 1233 1014 1233 1014 1118 905 c 2,16,-1
 815 617 l 1,17,-1
 1269 187 l 2,18,19
 1374 88 1374 88 1506 0 c 1,20,-1
 951 0 l 1,21,22
 879 117 879 117 756 230 c 2,23,-1
 550 419 l 1,24,-1
 550 300 l 2,25,26
 550 149 550 149 580 0 c 1,0,-1
EndSplineSet
Validated: 1
EndChar

StartChar: l
Encoding: 108 108 77
Width: 750
GlyphClass: 2
Flags: W
HStem: 0 21G<170 580> 1510 20G<416 565>
VStem: 200 350<4.6875 1475.31>
LayerCount: 2
Fore
SplineSet
580 0 m 1,0,1
 170 0 l 1,2,3
 200 150 200 150 200 300 c 2,4,-1
 200 1180 l 2,5,6
 200 1330 200 1330 170 1480 c 1,7,-1
 580 1530 l 1,8,9
 550 1380 550 1380 550 1230 c 2,10,-1
 550 300 l 2,11,12
 550 150 550 150 580 0 c 1,0,1
EndSplineSet
Validated: 1
EndChar

StartChar: m
Encoding: 109 109 78
Width: 2192
GlyphClass: 2
Flags: W
HStem: 0 21G<170 580 892 1302 1612 2022> 896 224<614.442 850.888 1334.66 1571.35>
VStem: 200 350<4.6875 830.938> 922 350<4.77979 824.996> 1642 350<4.84131 820.592>
LayerCount: 2
Fore
SplineSet
580 0 m 1,0,-1
 170 0 l 1,1,2
 200 150 200 150 200 300 c 2,3,-1
 200 770 l 2,4,5
 200 920 200 920 170 1070 c 1,6,-1
 580 1120 l 1,7,8
 576 1090 576 1090 571 1048 c 1,9,10
 662 1120 662 1120 790 1120 c 0,11,12
 985 1120 985 1120 1115 991 c 1,13,14
 1261 1120 1261 1120 1490 1120 c 0,15,16
 1731 1120 1731 1120 1885 947 c 0,17,18
 1992 827 1992 827 1992 621 c 2,19,-1
 1992 300 l 2,20,21
 1992 150 1992 150 2022 0 c 1,22,-1
 1612 0 l 1,23,24
 1642 155 1642 155 1642 300 c 2,25,-1
 1642 666 l 2,26,27
 1642 770 1642 770 1594 829 c 0,28,29
 1539 896 1539 896 1457 896 c 0,30,31
 1367 896 1367 896 1311 828 c 0,32,33
 1272 781 1272 781 1272 666 c 2,34,-1
 1272 300 l 2,35,36
 1272 153 1272 153 1302 0 c 1,37,-1
 892 0 l 1,38,39
 922 150 922 150 922 300 c 2,40,-1
 922 666 l 2,41,42
 922 770 922 770 874 829 c 0,43,44
 819 896 819 896 737 896 c 0,45,46
 647 896 647 896 591 828 c 0,47,48
 550 778 550 778 550 666 c 2,49,-1
 550 300 l 2,50,51
 550 150 550 150 580 0 c 1,0,-1
EndSplineSet
Validated: 1
EndChar

StartChar: n
Encoding: 110 110 79
Width: 1516
GlyphClass: 2
Flags: W
HStem: 0 21G<170 580 936 1346> 896 224<634.041 888.331>
VStem: 200 350<4.6875 811.223> 966 350<4.6875 815.105>
LayerCount: 2
Fore
SplineSet
580 0 m 1,0,-1
 170 0 l 1,1,2
 200 150 200 150 200 300 c 2,3,-1
 200 770 l 2,4,5
 200 920 200 920 170 1070 c 1,6,-1
 580 1120 l 1,7,8
 577 1095 577 1095 571 1048 c 1,9,10
 672 1120 672 1120 814 1120 c 0,11,12
 1056 1120 1056 1120 1209 947 c 0,13,14
 1316 826 1316 826 1316 621 c 2,15,-1
 1316 300 l 2,16,17
 1316 150 1316 150 1346 0 c 1,18,-1
 936 0 l 1,19,20
 966 150 966 150 966 300 c 2,21,-1
 966 658 l 2,22,23
 966 763 966 763 920 820 c 0,24,25
 859 896 859 896 758 896 c 0,26,27
 663 896 663 896 600 819 c 0,28,29
 550 758 550 758 550 658 c 2,30,-1
 550 300 l 2,31,32
 550 150 550 150 580 0 c 1,0,-1
EndSplineSet
Validated: 1
EndChar

StartChar: o
Encoding: 111 111 80
Width: 1426
GlyphClass: 2
Flags: W
HStem: -20 224<583.773 831.674> 896 224<584.697 831.503>
VStem: 100 370<335.024 765.476> 956 370<343.137 756.613>
LayerCount: 2
Fore
SplineSet
710 896 m 0,0,1
 608 896 608 896 540 809 c 0,2,3
 470 722 470 722 470 550 c 128,-1,4
 470 378 470 378 540 291 c 0,5,6
 608 204 608 204 710 204 c 0,7,8
 808 204 808 204 882 297 c 128,-1,9
 956 390 956 390 956 550 c 128,-1,10
 956 710 956 710 882 803 c 128,-1,11
 808 896 808 896 710 896 c 0,0,1
713 -20 m 0,12,13
 430 -20 430 -20 261 160 c 0,14,15
 100 331 100 331 100 550 c 0,16,17
 100 771 100 771 262 940 c 0,18,19
 435 1120 435 1120 713 1120 c 128,-1,20
 991 1120 991 1120 1164 940 c 0,21,22
 1326 770 1326 770 1326 550 c 0,23,24
 1326 329 1326 329 1164 160 c 0,25,26
 992 -20 992 -20 713 -20 c 0,12,13
EndSplineSet
Validated: 1
EndChar

StartChar: p
Encoding: 112 112 81
Width: 1506
GlyphClass: 2
Flags: W
HStem: -410 21G<170 580> -20 224<661.385 913.292> 896 224<661.461 913.292>
VStem: 200 350<-405.312 62 329.851 770.149> 1036 370<342.887 756.363>
LayerCount: 2
Fore
SplineSet
790 896 m 0,0,1
 688 896 688 896 620 809 c 0,2,3
 550 722 550 722 550 550 c 128,-1,4
 550 378 550 378 620 291 c 0,5,6
 688 204 688 204 790 204 c 0,7,8
 888 204 888 204 962 297 c 128,-1,9
 1036 390 1036 390 1036 550 c 128,-1,10
 1036 710 1036 710 962 803 c 128,-1,11
 888 896 888 896 790 896 c 0,0,1
170 1070 m 1,12,-1
 580 1120 l 1,13,14
 574 1084 574 1084 570 1048 c 1,15,16
 696 1120 696 1120 833 1120 c 0,17,18
 1072 1120 1072 1120 1244 940 c 0,19,20
 1406 769 1406 769 1406 550 c 0,21,22
 1406 328 1406 328 1244 160 c 0,23,24
 1072 -20 1072 -20 833 -20 c 0,25,26
 676 -20 676 -20 550 62 c 1,27,-1
 550 -110 l 2,28,29
 550 -260 550 -260 580 -410 c 1,30,-1
 170 -410 l 1,31,32
 200 -266 200 -266 200 -110 c 2,33,-1
 200 770 l 2,34,35
 200 920 200 920 170 1070 c 1,12,-1
EndSplineSet
Validated: 1
EndChar

StartChar: q
Encoding: 113 113 82
Width: 1506
GlyphClass: 2
Flags: W
HStem: -410 21G<926 1336> -20 224<583.013 832.674> 896 224<583.487 832.58>
VStem: 100 370<335.024 765.725> 956 350<-405.312 58 344.274 755.726>
LayerCount: 2
Fore
SplineSet
710 896 m 0,0,1
 608 896 608 896 540 809 c 0,2,3
 470 722 470 722 470 550 c 128,-1,4
 470 378 470 378 540 291 c 0,5,6
 608 204 608 204 710 204 c 0,7,8
 808 204 808 204 882 297 c 128,-1,9
 956 390 956 390 956 550 c 128,-1,10
 956 710 956 710 882 803 c 128,-1,11
 808 896 808 896 710 896 c 0,0,1
1336 1120 m 1,12,13
 1306 970 1306 970 1306 820 c 2,14,-1
 1306 -110 l 2,15,16
 1306 -260 1306 -260 1336 -410 c 1,17,-1
 926 -410 l 1,18,19
 956 -260 956 -260 956 -110 c 10,20,-1
 956 58 l 17,21,22
 814 -20 814 -20 673 -20 c 0,23,24
 432 -20 432 -20 261 160 c 0,25,26
 100 331 100 331 100 550 c 0,27,28
 100 772 100 772 262 940 c 0,29,30
 435 1120 435 1120 673 1120 c 0,31,32
 815 1120 815 1120 929 1056 c 1,33,-1
 926 1070 l 1,34,-1
 1336 1120 l 1,12,13
EndSplineSet
Validated: 1
EndChar

StartChar: r
Encoding: 114 114 83
Width: 1022
GlyphClass: 2
Flags: W
HStem: 0 21G<170 580> 896 224<632.475 894.824>
VStem: 200 350<4.6875 811.223>
LayerCount: 2
Fore
SplineSet
580 0 m 1,0,-1
 170 0 l 1,1,2
 200 150 200 150 200 300 c 2,3,-1
 200 770 l 2,4,5
 200 920 200 920 170 1070 c 1,6,-1
 580 1120 l 1,7,8
 577 1095 577 1095 571 1048 c 1,9,10
 682 1120 682 1120 814 1120 c 0,11,12
 932 1120 932 1120 1002 1068 c 1,13,-1
 1002 750 l 1,14,-1
 992 750 l 1,15,16
 891 896 891 896 758 896 c 0,17,18
 663 896 663 896 600 819 c 0,19,20
 550 758 550 758 550 658 c 2,21,-1
 550 300 l 2,22,23
 550 150 550 150 580 0 c 1,0,-1
EndSplineSet
Validated: 1
EndChar

StartChar: s
Encoding: 115 115 84
Width: 1031
GlyphClass: 2
Flags: W
HStem: -20 224<292.624 590.542> 903 217<492.184 685.247>
VStem: 100 10<485.369 498> 154 324<758.685 885.302> 622 329<243.569 406.589> 772 10<723 736.043>
LayerCount: 2
Fore
SplineSet
100 498 m 1,0,-1
 110 498 l 1,1,2
 153 362 153 362 249 280 c 0,3,4
 337 204 337 204 451 204 c 0,5,6
 551 204 551 204 592 248 c 0,7,8
 622 280 622 280 622 330 c 0,9,10
 622 389 622 389 550 426 c 2,11,-1
 389 508 l 2,12,13
 154 628 154 628 154 825 c 0,14,15
 154 953 154 953 275 1046 c 0,16,17
 371 1120 371 1120 519.5 1120 c 128,-1,18
 668 1120 668 1120 782 1053 c 1,19,-1
 782 723 l 1,20,-1
 772 723 l 1,21,22
 746 808 746 808 692 854 c 0,23,24
 637 903 637 903 568 903 c 0,25,26
 519 903 519 903 496 877 c 0,27,28
 478 857 478 857 478 828 c 0,29,30
 478 779 478 779 539 749 c 2,31,-1
 726 656 l 2,32,33
 951 544 951 544 951 352 c 0,34,35
 951 174 951 174 806 68 c 0,36,37
 686 -20 686 -20 493 -20 c 0,38,39
 323 -20 323 -20 240 20 c 0,40,41
 159 59 159 59 100 112 c 1,42,-1
 100 498 l 1,0,-1
EndSplineSet
Validated: 1
EndChar

StartChar: t
Encoding: 116 116 85
Width: 970
GlyphClass: 2
Flags: W
HStem: 0 21G<280 690> 832 220<24.6235 310 660 945.315> 1510 20G<526 675>
VStem: 310 350<4.74902 832 1052 1475.31>
LayerCount: 2
Fore
SplineSet
690 0 m 1,0,-1
 280 0 l 1,1,2
 310 152 310 152 310 300 c 2,3,-1
 310 832 l 1,4,5
 168 832 168 832 20 802 c 1,6,-1
 20 1082 l 1,7,8
 166 1052 166 1052 310 1052 c 1,9,-1
 310 1180 l 2,10,11
 310 1330 310 1330 280 1480 c 1,12,-1
 690 1530 l 1,13,14
 660 1380 660 1380 660 1230 c 2,15,-1
 660 1052 l 1,16,17
 800 1052 800 1052 950 1082 c 1,18,-1
 950 802 l 1,19,20
 800 832 800 832 660 832 c 1,21,-1
 660 300 l 2,22,23
 660 148 660 148 690 0 c 1,0,-1
EndSplineSet
Validated: 1
EndChar

StartChar: u
Encoding: 117 117 86
Width: 1516
GlyphClass: 2
Flags: W
HStem: -20 224<627.49 883.91> 0 21G<936 1346> 1100 20G<416 565 1182 1331>
VStem: 200 350<284.895 1065.31> 966 350<290.625 1065.31>
LayerCount: 2
Fore
SplineSet
1346 0 m 1,0,-1
 936 0 l 1,1,2
 945 45 945 45 945 52 c 1,3,4
 844 -20 844 -20 702 -20 c 0,5,6
 460 -20 460 -20 307 153 c 0,7,8
 200 274 200 274 200 479 c 2,9,-1
 200 770 l 2,10,11
 200 920 200 920 170 1070 c 1,12,-1
 580 1120 l 1,13,14
 550 970 550 970 550 820 c 2,15,-1
 550 442 l 2,16,17
 550 338 550 338 596 280 c 0,18,19
 656 204 656 204 758 204 c 0,20,21
 854 204 854 204 916 281 c 0,22,23
 966 343 966 343 966 442 c 2,24,-1
 966 770 l 2,25,26
 966 920 966 920 936 1070 c 1,27,-1
 1346 1120 l 1,28,29
 1316 970 1316 970 1316 820 c 2,30,-1
 1316 300 l 2,31,32
 1316 150 1316 150 1346 0 c 1,0,-1
EndSplineSet
Validated: 1
EndChar

StartChar: v
Encoding: 118 118 87
Width: 1359
GlyphClass: 2
Flags: W
HStem: 0 21G<495.5 862> 1080 20G<0 445 987.5 1359>
DStem2: 720 400 154 841 0.426267 -0.904597<-753.451 -3.81252> 720 400 942 285 0.427597 0.903969<0 751.501>
LayerCount: 2
Fore
SplineSet
842 0 m 1,0,1
 516 0 l 1,2,3
 475 160 475 160 416 285 c 2,4,-1
 154 841 l 2,5,6
 97 960 97 960 0 1100 c 1,7,-1
 427 1100 l 1,8,9
 463 952 463 952 526 815 c 2,10,11
 720 400 l 1,12,-1
 911 815 l 2,13,14
 965 934 965 934 1010 1100 c 1,15,-1
 1359 1100 l 1,16,17
 1269 975 1269 975 1205 841 c 2,18,-1
 942 285 l 2,19,20
 882 158 882 158 842 0 c 1,0,1
EndSplineSet
Validated: 1
EndChar

StartChar: w
Encoding: 119 119 88
Width: 1861
GlyphClass: 2
Flags: W
HStem: 0 21G<376.5 755.5 1112 1484> 1080 20G<0 414 797.5 1140.5 1530.5 1861>
VStem: 386 361<0 215.367> 807 326<886.974 1100> 1122 353<0 216.927>
DStem2: 474 807 126 826 0.337343 -0.941382<-294.498 398.222> 1342 413 1544 293 0.337343 0.941382<0 709.512>
LayerCount: 2
Fore
SplineSet
386 0 m 1,0,1
 367 153 367 153 317 293 c 2,2,-1
 126 826 l 2,3,4
 74 972 74 972 0 1100 c 1,5,-1
 405 1100 l 1,6,7
 423 950 423 950 474 807 c 2,8,-1
 608 432 l 1,9,-1
 738 807 l 2,10,11
 788 951 788 951 807 1100 c 1,12,-1
 1133 1100 l 1,13,14
 1148 959 1148 959 1202 807 c 2,15,-1
 1342 413 l 1,16,-1
 1474 807 l 2,17,18
 1518 938 1518 938 1543 1100 c 1,19,-1
 1861 1100 l 1,20,21
 1784 963 1784 963 1735 826 c 2,22,-1
 1544 293 l 2,23,24
 1493 151 1493 151 1475 0 c 1,25,-1
 1122 0 l 1,26,27
 1102 157 1102 157 1053 293 c 2,28,-1
 934 624 l 1,29,-1
 816 293 l 2,30,31
 764 147 764 147 747 0 c 1,32,-1
 386 0 l 1,0,1
EndSplineSet
Validated: 1
EndChar

StartChar: x
Encoding: 120 120 89
Width: 1354
GlyphClass: 2
Flags: W
HStem: 0 21G<40 461.5 811 1314> 1080 20G<40 533 885.5 1314>
DStem2: 651 837 237 871 0.608322 -0.79369<-293.588 82.985 398.566 757.132> 485 523 587 255 0.632497 0.774562<-437.647 -46.8839 327.304 717.853>
LayerCount: 2
Fore
SplineSet
426 0 m 1,0,-1
 40 0 l 1,1,2
 165 111 165 111 248 218 c 2,3,-1
 485 523 l 1,4,-1
 237 871 l 2,5,6
 160 979 160 979 40 1100 c 1,7,-1
 504 1100 l 1,8,9
 562 960 562 960 651 837 c 2,10,-1
 700 770 l 1,11,-1
 760 845 l 2,12,13
 850 958 850 958 921 1100 c 1,14,-1
 1314 1100 l 1,15,16
 1198 1001 1198 1001 1106 882 c 2,17,-1
 867 573 l 1,18,-1
 1117 229 l 2,19,20
 1197 119 1197 119 1314 0 c 1,21,-1
 842 0 l 1,22,23
 780 141 780 141 694 263 c 2,24,-1
 646 331 l 1,25,-1
 587 255 l 2,26,27
 497 139 497 139 426 0 c 1,0,-1
EndSplineSet
Validated: 1
EndChar

StartChar: y
Encoding: 121 121 90
Width: 1516
GlyphClass: 2
Flags: W
HStem: -430 225<498.127 856.241> -20 224<627.383 875.91> 1100 20G<416 565 1182 1331>
VStem: 200 350<284.895 1065.31> 966 350<-89.3298 93 288.777 1065.31>
LayerCount: 2
Fore
SplineSet
170 1070 m 1,0,-1
 580 1120 l 1,1,2
 550 970 550 970 550 820 c 2,3,-1
 550 442 l 2,4,5
 550 340 550 340 596 280 c 0,6,7
 654 204 654 204 758 204 c 0,8,9
 853 204 853 204 916 281 c 0,10,11
 966 342 966 342 966 442 c 2,12,-1
 966 770 l 2,13,14
 966 920 966 920 936 1070 c 1,15,-1
 1346 1120 l 1,16,17
 1316 970 1316 970 1316 820 c 2,18,-1
 1316 165 l 2,19,20
 1316 -83 1316 -83 1184 -234 c 0,21,22
 1013 -430 1013 -430 740 -430 c 0,23,24
 461 -430 461 -430 283 -334 c 1,25,-1
 283 51 l 1,26,-1
 293 51 l 1,27,28
 356 -68 356 -68 427 -119 c 0,29,30
 549 -205 549 -205 671 -205 c 0,31,32
 810 -205 810 -205 890 -139 c 24,33,34
 972 -71 972 -71 972 93 c 1,35,36
 851 -20 851 -20 693 -20 c 0,37,38
 460 -20 460 -20 307 153 c 0,39,40
 200 274 200 274 200 479 c 2,41,-1
 200 770 l 2,42,43
 200 920 200 920 170 1070 c 1,0,-1
EndSplineSet
Validated: 1
EndChar

StartChar: z
Encoding: 122 122 91
Width: 1261
GlyphClass: 2
Flags: W
HStem: 0 224<535 1170.64> 876 224<206.749 720>
DStem2: 279 410 535 224 0.683183 0.730247<39.069 641.579>
LayerCount: 2
Fore
SplineSet
133 0 m 1,0,-1
 60 224 l 1,1,2
 180 305 180 305 279 410 c 2,3,-1
 720 876 l 1,4,-1
 502 876 l 2,5,6
 354 876 354 876 202 846 c 1,7,-1
 202 1100 l 1,8,-1
 1115 1100 l 1,9,-1
 1181 876 l 1,10,11
 1074 800 1074 800 985 705 c 2,12,-1
 535 224 l 1,13,-1
 876 224 l 2,14,15
 1004 224 1004 224 1176 254 c 1,16,-1
 1176 0 l 1,17,-1
 133 0 l 1,0,-1
EndSplineSet
Validated: 1
EndChar

StartChar: braceleft
Encoding: 123 123 92
Width: 1005
GlyphClass: 2
Flags: W
HStem: -246 10<848.489 855> 1750 10<848.489 855>
VStem: 330 315<-83.7871 631.181 880.89 1597.79>
LayerCount: 2
Fore
SplineSet
855 1760 m 1,0,-1
 855 1750 l 1,1,2
 645 1667 645 1667 645 1446 c 2,3,-1
 645 1066 l 2,4,5
 645 788 645 788 389 757 c 1,6,7
 645 722 645 722 645 448 c 2,8,-1
 645 68 l 2,9,10
 645 -139 645 -139 855 -236 c 1,11,-1
 855 -246 l 1,12,13
 330 -246 330 -246 330 68 c 2,14,-1
 330 448 l 2,15,16
 330 668 330 668 150 752 c 1,17,-1
 150 762 l 1,18,19
 330 846 330 846 330 1066 c 2,20,-1
 330 1446 l 2,21,22
 330 1760 330 1760 855 1760 c 1,0,-1
EndSplineSet
Validated: 1
EndChar

StartChar: bar
Encoding: 124 124 93
Width: 780
GlyphClass: 2
Flags: W
VStem: 250 280<-175.312 1685.31>
LayerCount: 2
Fore
SplineSet
220 -180 m 1,0,1
 250 -30 250 -30 250 120 c 2,2,-1
 250 1390 l 2,3,4
 250 1540 250 1540 220 1690 c 1,5,-1
 560 1690 l 1,6,7
 530 1540 530 1540 530 1390 c 2,8,-1
 530 120 l 2,9,10
 530 -30 530 -30 560 -180 c 1,11,-1
 220 -180 l 1,0,1
EndSplineSet
Validated: 1
EndChar

StartChar: braceright
Encoding: 125 125 94
Width: 1005
GlyphClass: 2
Flags: W
HStem: -246 10<150 156.511> 1750 10<150 156.511>
VStem: 360 315<-83.7871 633.11 882.819 1597.79>
LayerCount: 2
Fore
SplineSet
150 1760 m 1,0,1
 675 1760 675 1760 675 1446 c 2,2,-1
 675 1066 l 2,3,4
 675 846 675 846 855 762 c 1,5,-1
 855 752 l 1,6,7
 675 668 675 668 675 448 c 2,8,-1
 675 68 l 2,9,10
 675 -246 675 -246 150 -246 c 1,11,-1
 150 -236 l 1,12,13
 360 -153 360 -153 360 68 c 2,14,-1
 360 448 l 2,15,16
 360 726 360 726 616 757 c 1,17,18
 360 792 360 792 360 1066 c 2,19,-1
 360 1446 l 2,20,21
 360 1653 360 1653 150 1750 c 1,22,-1
 150 1760 l 1,0,1
EndSplineSet
Validated: 1
EndChar

StartChar: asciitilde
Encoding: 126 126 95
Width: 1356
GlyphClass: 2
Flags: W
HStem: 509 268<789.823 1040.92> 717 268<315.085 566.177>
VStem: 200 10<509 515.449> 1146 10<978.551 985>
DStem2: 676 909 567 673 0.788976 -0.614424<-68.3119 270.541>
LayerCount: 2
Fore
SplineSet
200 876 m 1,0,1
 299 985 299 985 444 985 c 0,2,3
 578 985 578 985 676 909 c 2,4,-1
 789 821 l 2,5,6
 846 777 846 777 923 777 c 0,7,8
 1067 777 1067 777 1146 985 c 1,9,-1
 1156 985 l 1,10,-1
 1156 618 l 1,11,12
 1057 509 1057 509 912 509 c 0,13,14
 778 509 778 509 680 585 c 2,15,-1
 567 673 l 2,16,17
 510 717 510 717 433 717 c 0,18,19
 289 717 289 717 210 509 c 1,20,-1
 200 509 l 1,21,-1
 200 876 l 1,0,1
EndSplineSet
Validated: 1
EndChar

StartChar: exclamdown
Encoding: 161 161 97
Width: 810
GlyphClass: 2
Flags: W
HStem: 0 21G<215 595> 1116 414<279.36 532.631>
VStem: 200 410<1195.41 1451.98> 255 300<4.77979 859.104> 275 260<520.896 1080>
LayerCount: 2
Fore
SplineSet
610 1323 m 0,0,1
 610 1236 610 1236 550 1176 c 128,-1,2
 490 1116 490 1116 405 1116 c 0,3,4
 321 1116 321 1116 260 1177 c 0,5,6
 200 1237 200 1237 200 1323 c 0,7,8
 200 1410 200 1410 260 1470 c 128,-1,9
 320 1530 320 1530 405 1530 c 128,-1,10
 490 1530 490 1530 550 1469.5 c 128,-1,11
 610 1409 610 1409 610 1323 c 0,0,1
595 0 m 1,12,-1
 215 0 l 1,13,14
 251 153 251 153 255 300 c 2,15,-1
 275 1080 l 1,16,-1
 535 1080 l 1,17,-1
 555 300 l 2,18,19
 559 151 559 151 595 0 c 1,12,-1
EndSplineSet
Validated: 1
EndChar

StartChar: cent
Encoding: 162 162 98
Width: 1272
GlyphClass: 2
Flags: W
HStem: -3 211<862 957.781>
VStem: 100 370<345.226 747.948> 712 150<-180 -20 215 880 1120 1280> 1081 10<637 646.059>
LayerCount: 2
Fore
SplineSet
862 -180 m 1,0,-1
 712 -180 l 1,1,-1
 712 -20 l 1,2,3
 703 -20 703 -20 694 -20 c 0,4,5
 436 -20 436 -20 262 160 c 0,6,7
 100 328 100 328 100 551 c 0,8,9
 100 771 100 771 262 940 c 0,10,11
 435 1120 435 1120 712 1120 c 1,12,-1
 712 1280 l 1,13,-1
 862 1280 l 1,14,-1
 862 1109 l 1,15,16
 984 1091 984 1091 1091 1043 c 1,17,-1
 1091 637 l 1,18,-1
 1081 637 l 1,19,20
 1042 734 1042 734 961 815 c 0,21,22
 916 860 916 860 862 880 c 1,23,-1
 862 208 l 1,24,25
 998 236 998 236 1142 452 c 1,26,-1
 1152 452 l 1,27,-1
 1152 124 l 1,28,29
 1019 29 1019 29 862 -3 c 1,30,-1
 862 -180 l 1,0,-1
712 215 m 1,31,-1
 712 891 l 1,32,33
 628 875 628 875 560 809 c 0,34,35
 470 722 470 722 470 550 c 0,36,37
 470 356 470 356 569 280 c 0,38,39
 630 233 630 233 712 215 c 1,31,-1
EndSplineSet
Validated: 1
EndChar

StartChar: sterling
Encoding: 163 163 99
Width: 1344
GlyphClass: 2
Flags: W
HStem: 0 224<650.534 1139.31> 647 226<152.467 300 650 935.315> 1305 225<704.157 961.347>
VStem: 300 350<225.249 647 873 1248.79>
LayerCount: 2
Fore
SplineSet
270 0 m 1,0,1
 300 150 300 150 300 300 c 2,2,-1
 300 647 l 1,3,4
 229 647 229 647 150 617 c 1,5,-1
 150 903 l 1,6,7
 228 873 228 873 300 873 c 1,8,-1
 300 1060 l 2,9,10
 300 1221 300 1221 413 1362 c 0,11,12
 548 1530 548 1530 828 1530 c 0,13,14
 960 1530 960 1530 1070 1498 c 1,15,-1
 1070 1159 l 1,16,-1
 1060 1159 l 1,17,18
 954 1305 954 1305 832 1305 c 0,19,20
 756 1305 756 1305 709 1265 c 1,21,22
 650 1213 650 1213 650 1110 c 2,23,-1
 650 873 l 1,24,25
 790 873 790 873 940 903 c 1,26,-1
 940 617 l 1,27,28
 790 647 790 647 650 647 c 1,29,-1
 650 300 l 2,30,31
 650 264 650 264 653 224 c 1,32,-1
 844 224 l 2,33,34
 994 224 994 224 1144 254 c 1,35,-1
 1144 0 l 1,36,-1
 270 0 l 1,0,1
EndSplineSet
Validated: 1
EndChar

StartChar: currency
Encoding: 164 164 100
Width: 1806
GlyphClass: 2
Flags: W
HStem: -10 21G<349 388.817 1417.09 1457> 116 306<753.288 1072.37> 1100 306<751.176 1067.69>
VStem: 300 308<573.399 944.427> 1219 307<575.255 937.359>
DStem2: 370 1507 150 1287 0.703815 -0.710383<1.44485 295.316 1519.59 1827.18> 150 209 369 -10 0.703815 0.710383<0 315.293 1542.98 1825.74>
LayerCount: 2
Fore
SplineSet
913 1100 m 0,0,1
 770 1100 770 1100 688 999 c 0,2,3
 608 898 608 898 608 761 c 0,4,5
 608 618 608 618 684 527 c 0,6,7
 772 422 772 422 913 422 c 0,8,9
 1060 422 1060 422 1149 536 c 0,10,11
 1219 626 1219 626 1219 761 c 0,12,13
 1219 894 1219 894 1136 995 c 0,14,15
 1048 1100 1048 1100 913 1100 c 0,0,1
370 1507 m 1,16,-1
 572 1304 l 1,17,18
 716 1406 716 1406 913 1406 c 0,19,20
 1101 1406 1101 1406 1243 1312 c 1,21,-1
 1436 1507 l 1,22,-1
 1656 1287 l 1,23,-1
 1449 1078 l 1,24,25
 1526 932 1526 932 1526 761 c 0,26,27
 1526 579 1526 579 1439 427 c 1,28,-1
 1656 209 l 1,29,-1
 1437 -10 l 1,30,-1
 1227 201 l 1,31,32
 1091 116 1091 116 913 116 c 0,33,34
 725 116 725 116 585 208 c 1,35,-1
 369 -10 l 1,36,-1
 150 209 l 1,37,-1
 380 440 l 1,38,39
 300 588 300 588 300 761 c 0,40,41
 300 925 300 925 370 1065 c 1,42,-1
 150 1287 l 1,43,-1
 370 1507 l 1,16,-1
EndSplineSet
Validated: 3073
EndChar

StartChar: yen
Encoding: 165 165 101
Width: 1473
GlyphClass: 2
Flags: W
HStem: 0 21G<530 940> 318 204<249.688 560 910 1223.25> 1490 20G<0 459 1095 1473>
VStem: 560 350<4.6875 318 522 626>
DStem2: 777 873 180 1268 0.516815 -0.856097<-717.34 -139.745> 777 873 1033 834 0.513914 0.857842<98.1062 718.212>
LayerCount: 2
Fore
SplineSet
940 0 m 1,0,-1
 530 0 l 1,1,2
 560 150 560 150 560 300 c 2,3,-1
 560 318 l 1,4,-1
 545 318 l 2,5,6
 395 318 395 318 245 288 c 1,7,-1
 245 552 l 1,8,9
 395 522 395 522 545 522 c 2,10,-1
 560 522 l 1,11,-1
 560 626 l 1,12,-1
 545 626 l 2,13,14
 395 626 395 626 245 596 c 1,15,-1
 245 860 l 1,16,17
 343 840 343 840 442 834 c 1,18,-1
 180 1268 l 2,19,20
 98 1404 98 1404 0 1510 c 1,21,-1
 436 1510 l 1,22,23
 482 1380 482 1380 565 1237 c 2,24,-1
 777 873 l 1,25,-1
 991 1237 l 2,26,27
 1070 1372 1070 1372 1120 1510 c 1,28,-1
 1473 1510 l 1,29,30
 1374 1403 1374 1403 1293 1268 c 2,31,-1
 1033 834 l 1,32,33
 1130 841 1130 841 1228 860 c 1,34,-1
 1228 596 l 1,35,36
 1077 626 1077 626 928 626 c 2,37,-1
 910 626 l 1,38,-1
 910 522 l 1,39,-1
 928 522 l 2,40,41
 1076 522 1076 522 1228 552 c 1,42,-1
 1228 288 l 1,43,44
 1077 318 1077 318 928 318 c 2,45,-1
 910 318 l 1,46,-1
 910 300 l 2,47,48
 910 148 910 148 940 0 c 1,0,-1
EndSplineSet
Validated: 1
EndChar

StartChar: brokenbar
Encoding: 166 166 102
Width: 780
GlyphClass: 2
Flags: W
VStem: 250 280<-176.312 642.312 866.688 1685.31>
LayerCount: 2
Fore
SplineSet
220 -181 m 1,0,1
 250 -31 250 -31 250 119 c 2,2,-1
 250 347 l 2,3,4
 250 497 250 497 220 647 c 1,5,-1
 560 647 l 1,6,7
 530 497 530 497 530 347 c 2,8,-1
 530 119 l 2,9,10
 530 -31 530 -31 560 -181 c 1,11,-1
 220 -181 l 1,0,1
220 1690 m 1,12,-1
 560 1690 l 1,13,14
 530 1540 530 1540 530 1390 c 2,15,-1
 530 1162 l 2,16,17
 530 1012 530 1012 560 862 c 1,18,-1
 220 862 l 1,19,20
 250 1012 250 1012 250 1162 c 2,21,-1
 250 1390 l 2,22,23
 250 1540 250 1540 220 1690 c 1,12,-1
EndSplineSet
Validated: 1
EndChar

StartChar: section
Encoding: 167 167 103
Width: 1182
GlyphClass: 2
Flags: W
HStem: -20 217<415.753 608.816> 1313 217<573.184 766.247>
VStem: 150 232<652 905.498> 235 324<1168.68 1295.3> 319 10<361.915 377> 623 324<214.698 341.315> 800 232<604.502 858> 853 10<1133 1148.08>
DStem2: 551 674 375 444 0.895383 -0.445297<-201.47 242.784> 807 1066 470 918 0.895383 -0.445297<-297.953 140.889>
LayerCount: 2
Fore
SplineSet
319 47 m 1,0,-1
 319 377 l 1,1,-1
 329 377 l 1,2,3
 354 295 354 295 409 246 c 128,-1,4
 464 197 464 197 533 197 c 0,5,6
 582 197 582 197 605 223 c 0,7,8
 623 243 623 243 623 272 c 0,9,10
 623 321 623 321 562 351 c 2,11,-1
 375 444 l 2,12,13
 150 556 150 556 150 748 c 0,14,15
 150 887 150 887 238 982 c 9,16,-1
 393 890 l 17,17,18
 382 867 382 867 382 837 c 0,19,20
 382 760 382 760 551 674 c 2,21,-1
 712 592 l 2,22,23
 947 472 947 472 947 275 c 0,24,25
 947 147 947 147 826 54 c 0,26,27
 730 -20 730 -20 581.5 -20 c 128,-1,28
 433 -20 433 -20 319 47 c 1,0,-1
863 1463 m 1,29,-1
 863 1133 l 1,30,-1
 853 1133 l 1,31,32
 828 1215 828 1215 773 1264 c 128,-1,33
 718 1313 718 1313 649 1313 c 0,34,35
 600 1313 600 1313 577 1287 c 0,36,37
 559 1267 559 1267 559 1238 c 0,38,39
 559 1189 559 1189 620 1159 c 2,40,-1
 807 1066 l 2,41,42
 1032 954 1032 954 1032 762 c 0,43,44
 1032 623 1032 623 944 528 c 9,45,-1
 789 620 l 17,46,47
 800 643 800 643 800 673 c 0,48,49
 800 750 800 750 631 836 c 2,50,-1
 470 918 l 2,51,52
 235 1038 235 1038 235 1235 c 0,53,54
 235 1363 235 1363 356 1456 c 0,55,56
 452 1530 452 1530 600.5 1530 c 128,-1,57
 749 1530 749 1530 863 1463 c 1,29,-1
EndSplineSet
Validated: 1
EndChar

StartChar: dieresis
Encoding: 168 168 104
Width: 1120
GlyphClass: 2
Flags: W
HStem: 1178 352<259.097 488.615 631.097 860.615>
VStem: 200 348<1237.11 1470.89> 572 348<1237.11 1470.89>
LayerCount: 2
Fore
SplineSet
746 1530 m 0,0,1
 816 1530 816 1530 869 1478 c 0,2,3
 920 1428 920 1428 920 1354 c 128,-1,4
 920 1280 920 1280 869 1229 c 128,-1,5
 818 1178 818 1178 746 1178 c 128,-1,6
 674 1178 674 1178 623 1229.5 c 128,-1,7
 572 1281 572 1281 572 1354 c 0,8,9
 572 1428 572 1428 623 1479 c 128,-1,10
 674 1530 674 1530 746 1530 c 0,0,1
374 1530 m 0,11,12
 444 1530 444 1530 497 1478 c 0,13,14
 548 1428 548 1428 548 1354 c 128,-1,15
 548 1280 548 1280 497 1229 c 128,-1,16
 446 1178 446 1178 374 1178 c 128,-1,17
 302 1178 302 1178 251 1229.5 c 128,-1,18
 200 1281 200 1281 200 1354 c 0,19,20
 200 1428 200 1428 251 1479 c 128,-1,21
 302 1530 302 1530 374 1530 c 0,11,12
EndSplineSet
Validated: 1
EndChar

StartChar: copyright
Encoding: 169 169 105
Width: 1501
GlyphClass: 2
Flags: W
HStem: 386 73<564.363 928.202> 542 178<655.575 971.165> 1180 178<649.42 930.779> 1453 77<566.855 934.866>
VStem: 200 74<768.815 1151.31> 340 225<808.595 1096.96> 1226 75<757.376 1158.43>
LayerCount: 2
Fore
SplineSet
1098 873 m 1,0,-1
 1098 651 l 1,1,2
 955 542 955 542 774 542 c 0,3,4
 597 542 597 542 466 660 c 0,5,6
 340 775 340 775 340 950 c 0,7,8
 340 1118 340 1118 465 1239 c 0,9,10
 588 1358 588 1358 774 1358 c 0,11,12
 929 1358 929 1358 1039 1288 c 1,13,-1
 1039 1034 l 1,14,-1
 1029 1034 l 1,15,16
 995 1084 995 1084 949 1123 c 0,17,18
 880 1180 880 1180 794 1180 c 0,19,20
 691 1180 691 1180 624 1114 c 0,21,22
 565 1056 565 1056 565 950 c 0,23,24
 565 852 565 852 627 788 c 0,25,26
 693 720 693 720 806 720 c 0,27,28
 979 721 979 721 1088 873 c 1,29,-1
 1098 873 l 1,0,-1
751 1530 m 0,30,31
 993 1530 993 1530 1149 1357 c 0,32,33
 1301 1188 1301 1188 1301 953 c 0,34,35
 1301 701 1301 701 1140 549 c 1,36,37
 969 386 969 386 749 386 c 0,38,39
 526 386 526 386 361 549 c 0,40,41
 200 708 200 708 200 953 c 0,42,43
 200 1197 200 1197 358 1362 c 0,44,45
 519 1530 519 1530 751 1530 c 0,30,31
749 1453 m 0,46,47
 559 1453 559 1453 417 1312 c 0,48,49
 274 1170 274 1170 274 953 c 0,50,51
 274 760 274 760 414 605 c 0,52,53
 545 459 545 459 751 459 c 0,54,55
 942 459 942 459 1087 605 c 0,56,57
 1226 745 1226 745 1226 953 c 0,58,59
 1226 1174 1226 1174 1089 1309 c 0,60,61
 943 1453 943 1453 749 1453 c 0,46,47
EndSplineSet
Validated: 1
EndChar

StartChar: ordfeminine
Encoding: 170 170 106
Width: 1150
GlyphClass: 2
Flags: W
HStem: 682 194<204.706 945.233> 930 151<503.661 653.039> 1186 134<494.161 654.815> 1374 156<386.891 644.595>
VStem: 270 210<1091.01 1176.16> 657 206<1093.93 1174.18>
LayerCount: 2
Fore
SplineSet
200 906 m 1,0,1
 350 876 350 876 575 876 c 0,2,3
 798 876 798 876 950 906 c 1,4,-1
 950 652 l 1,5,6
 799 682 799 682 575 682 c 0,7,8
 350 682 350 682 200 652 c 1,9,-1
 200 906 l 1,0,1
635 1161 m 0,10,11
 600 1186 600 1186 564 1186 c 0,12,13
 524 1186 524 1186 504 1172 c 0,14,15
 480 1156 480 1156 480 1132 c 128,-1,16
 480 1108 480 1108 503 1094 c 0,17,18
 524 1081 524 1081 563 1081 c 0,19,20
 604 1081 604 1081 633 1105 c 0,21,22
 657 1126 657 1126 657 1135 c 128,-1,23
 657 1144 657 1144 635 1161 c 0,10,11
365 1504 m 1,24,25
 452 1530 452 1530 564 1530 c 0,26,27
 717 1530 717 1530 795 1441 c 0,28,29
 863 1363 863 1363 863 1230 c 2,30,-1
 863 1105 l 2,31,32
 863 1016 863 1016 880 940 c 1,33,-1
 632 940 l 1,34,35
 596 930 596 930 551 930 c 0,36,37
 446 930 446 930 375 973 c 0,38,39
 270 1035 270 1035 270 1126 c 0,40,41
 270 1209 270 1209 360 1273 c 0,42,43
 427 1320 427 1320 547 1320 c 0,44,45
 602 1320 602 1320 660 1300 c 1,46,47
 647 1334 647 1334 624 1353 c 0,48,49
 598 1374 598 1374 559 1374 c 0,50,51
 511 1374 511 1374 469 1363 c 0,52,53
 425 1351 425 1351 374 1323 c 1,54,-1
 365 1323 l 1,55,-1
 365 1504 l 1,24,25
EndSplineSet
Validated: 1
EndChar

StartChar: guillemotleft
Encoding: 171 171 107
Width: 1590
GlyphClass: 2
Flags: W
VStem: 200 304<595 899> 675 304<595 899>
DStem2: 200 747 718 1041 0.588499 0.808498<178.904 614.608> 504 747 386 487 0.588499 -0.808498<0 435.704> 675 747 1193 1041 0.588499 0.808498<178.904 614.608> 979 747 861 487 0.588499 -0.808498<0 435.704>
LayerCount: 2
Fore
SplineSet
1009 1270 m 1,0,-1
 1390 1270 l 1,1,2
 1273 1151 1273 1151 1193 1041 c 2,3,-1
 979 747 l 1,4,-1
 1193 453 l 2,5,6
 1271 346 1271 346 1390 224 c 1,7,-1
 1009 224 l 1,8,9
 946 368 946 368 861 487 c 2,10,-1
 675 747 l 1,11,-1
 861 1007 l 2,12,13
 946 1126 946 1126 1009 1270 c 1,0,-1
534 1270 m 1,14,-1
 915 1270 l 1,15,16
 798 1151 798 1151 718 1041 c 2,17,-1
 504 747 l 1,18,-1
 718 453 l 2,19,20
 796 346 796 346 915 224 c 1,21,-1
 534 224 l 1,22,23
 471 368 471 368 386 487 c 2,24,-1
 200 747 l 1,25,-1
 386 1007 l 2,26,27
 471 1126 471 1126 534 1270 c 1,14,-1
EndSplineSet
Validated: 1
EndChar

StartChar: logicalnot
Encoding: 172 172 108
Width: 1383
GlyphClass: 2
Flags: W
HStem: 617 254<204.688 938.641>
VStem: 909 274<292 611.537> 939 244<296.694 617>
LayerCount: 2
Fore
SplineSet
200 901 m 1,0,1
 350 871 350 871 500 871 c 2,2,-1
 883 871 l 2,3,4
 1031 871 1031 871 1183 901 c 1,5,-1
 1183 292 l 1,6,-1
 909 292 l 1,7,8
 939 442 939 442 939 617 c 9,9,-1
 500 617 l 2,10,11
 350 617 350 617 200 587 c 1,12,-1
 200 901 l 1,0,1
EndSplineSet
Validated: 1
EndChar

StartChar: uni00AD
Encoding: 173 173 109
Width: 1383
GlyphClass: 2
Flags: W
HStem: 617 254<204.688 1178.25>
LayerCount: 2
Fore
SplineSet
200 901 m 1,0,1
 350 871 350 871 500 871 c 2,2,-1
 883 871 l 2,3,4
 1031 871 1031 871 1183 901 c 1,5,-1
 1183 587 l 1,6,7
 1032 617 1032 617 883 617 c 2,8,-1
 500 617 l 2,9,10
 350 617 350 617 200 587 c 1,11,-1
 200 901 l 1,0,1
EndSplineSet
Validated: 1
EndChar

StartChar: registered
Encoding: 174 174 110
Width: 1501
GlyphClass: 2
Flags: W
HStem: 386 73<564.363 925.963> 1176 177<719 796.182> 1453 77<566.855 934.866>
VStem: 200 74<769.065 1151.31> 504 215<561.056 826 1003 1176> 825 226<1021.41 1157.91> 1226 75<757.945 1158.43>
LayerCount: 2
Fore
SplineSet
749 1453 m 0,0,1
 559 1453 559 1453 417 1312 c 0,2,3
 274 1170 274 1170 274 953 c 0,4,5
 274 761 274 761 414 605 c 0,6,7
 545 459 545 459 751 459 c 0,8,9
 908 459 908 459 1034 558 c 1,10,-1
 903 558 l 1,11,12
 877 632 877 632 831 701 c 2,13,-1
 747 826 l 1,14,15
 734 826 734 826 722 826 c 2,16,-1
 719 826 l 1,17,-1
 719 728 l 2,18,19
 719 656 719 656 739 558 c 1,20,-1
 485 558 l 1,21,22
 504 637 504 637 504 728 c 2,23,-1
 504 1183 l 2,24,25
 504 1279 504 1279 485 1353 c 1,26,-1
 722 1353 l 2,27,28
 858 1352 858 1352 955 1284 c 0,29,30
 1051 1217 1051 1217 1051 1088 c 0,31,32
 1051 958 1051 958 955 887 c 1,33,34
 1074 708 1074 708 1075 707 c 0,35,36
 1087 686 1087 686 1122 644 c 1,37,38
 1226 773 1226 773 1226 953 c 0,39,40
 1226 1174 1226 1174 1089 1309 c 0,41,42
 943 1453 943 1453 749 1453 c 0,0,1
751 1530 m 0,43,44
 993 1530 993 1530 1149 1357 c 0,45,46
 1301 1188 1301 1188 1301 953 c 0,47,48
 1301 702 1301 702 1140 549 c 0,49,50
 968 386 968 386 749 386 c 0,51,52
 526 386 526 386 361 549 c 0,53,54
 200 708 200 708 200 953 c 0,55,56
 200 1197 200 1197 358 1362 c 0,57,58
 519 1530 519 1530 751 1530 c 0,43,44
719 1176 m 1,59,-1
 719 1003 l 1,60,-1
 722 1003 l 2,61,62
 771 1003 771 1003 797 1026 c 0,63,64
 825 1052 825 1052 825 1091 c 128,-1,65
 825 1130 825 1130 797 1154 c 0,66,67
 771 1176 771 1176 722 1176 c 2,68,-1
 719 1176 l 1,59,-1
EndSplineSet
Validated: 1
EndChar

StartChar: macron
Encoding: 175 175 111
Width: 1150
GlyphClass: 2
Flags: W
HStem: 1276 224<204.706 945.233> 1510 20G<200 275 874 950>
LayerCount: 2
Fore
SplineSet
200 1530 m 1,0,1
 350 1500 350 1500 575 1500 c 0,2,3
 798 1500 798 1500 950 1530 c 1,4,-1
 950 1246 l 1,5,6
 799 1276 799 1276 575 1276 c 0,7,8
 350 1276 350 1276 200 1246 c 1,9,-1
 200 1530 l 1,0,1
EndSplineSet
Validated: 1
EndChar

StartChar: degree
Encoding: 176 176 112
Width: 1118
GlyphClass: 2
Flags: W
HStem: 855 216<462.634 656.408> 1314 216<461.812 659.533>
VStem: 200 229<1105.55 1280.02> 689 229<1105.47 1283.82>
LayerCount: 2
Fore
SplineSet
559 1071 m 128,-1,1
 620 1071 620 1071 654.5 1110 c 128,-1,2
 689 1149 689 1149 689 1193 c 0,3,4
 689 1240 689 1240 655 1275 c 0,5,6
 619 1314 619 1314 559 1314 c 0,7,8
 498 1314 498 1314 463.5 1275.5 c 128,-1,9
 429 1237 429 1237 429 1192 c 128,-1,10
 429 1147 429 1147 463 1110 c 0,11,0
 498 1071 498 1071 559 1071 c 128,-1,1
559 1530 m 128,-1,13
 721 1530 721 1530 824 1422 c 0,14,15
 918 1323 918 1323 918 1193 c 128,-1,16
 918 1063 918 1063 824 963 c 0,17,18
 722 855 722 855 559 855 c 0,19,20
 392 855 392 855 292 964 c 0,21,22
 200 1064 200 1064 200 1192 c 0,23,24
 200 1323 200 1323 294 1422 c 0,25,12
 397 1530 397 1530 559 1530 c 128,-1,13
EndSplineSet
Validated: 1
EndChar

StartChar: plusminus
Encoding: 177 177 113
Width: 1383
GlyphClass: 2
Flags: W
HStem: 100 254<204.688 1178.25> 832 254<204.688 564 818 1178.25> 1096 20G<200 275 1107 1183>
VStem: 564 254<471.688 832 1086 1445.25>
LayerCount: 2
Fore
SplineSet
200 384 m 1,0,1
 350 354 350 354 500 354 c 2,2,-1
 883 354 l 2,3,4
 1031 354 1031 354 1183 384 c 1,5,-1
 1183 70 l 1,6,7
 1032 100 1032 100 883 100 c 2,8,-1
 500 100 l 2,9,10
 350 100 350 100 200 70 c 1,11,-1
 200 384 l 1,0,1
534 1450 m 1,12,-1
 848 1450 l 1,13,14
 818 1299 818 1299 818 1150 c 2,15,-1
 818 1086 l 1,16,-1
 883 1086 l 2,17,18
 1031 1086 1031 1086 1183 1116 c 1,19,-1
 1183 802 l 1,20,21
 1032 832 1032 832 883 832 c 2,22,-1
 818 832 l 1,23,-1
 818 767 l 2,24,25
 818 617 818 617 848 467 c 1,26,-1
 534 467 l 1,27,28
 564 617 564 617 564 767 c 2,29,-1
 564 832 l 1,30,-1
 500 832 l 2,31,32
 350 832 350 832 200 802 c 1,33,-1
 200 1116 l 1,34,35
 350 1086 350 1086 500 1086 c 2,36,-1
 564 1086 l 1,37,-1
 564 1150 l 2,38,39
 564 1298 564 1298 534 1450 c 1,12,-1
EndSplineSet
Validated: 1
EndChar

StartChar: uni00B2
Encoding: 178 178 114
Width: 1015
GlyphClass: 2
Flags: W
HStem: 725 157<446 812.251> 1374 156<343.588 558.692>
VStem: 580 223<1169.78 1343.74>
LayerCount: 2
Fore
SplineSet
253 1468 m 1,0,1
 362 1530 362 1530 491 1530 c 0,2,3
 621 1530 621 1530 703 1467 c 0,4,5
 803 1390 803 1390 803 1250 c 0,6,7
 803 1095 803 1095 570 993 c 0,8,9
 480 953 480 953 446 882 c 1,10,-1
 645 882 l 2,11,12
 727 882 727 882 815 901 c 1,13,-1
 815 725 l 1,14,-1
 200 725 l 1,15,16
 256 992 256 992 493 1137 c 0,17,18
 580 1190 580 1190 580 1260 c 0,19,20
 580 1307 580 1307 558 1335 c 0,21,22
 528 1374 528 1374 471 1374 c 0,23,24
 404 1374 404 1374 357 1341 c 128,-1,25
 310 1308 310 1308 263 1238 c 1,26,-1
 253 1238 l 1,27,-1
 253 1468 l 1,0,1
EndSplineSet
Validated: 1
EndChar

StartChar: uni00B3
Encoding: 179 179 115
Width: 976
GlyphClass: 2
Flags: W
HStem: 715 157<313.051 529.83> 1363 157<248.779 496>
VStem: 552 224<901.117 1067.47>
LayerCount: 2
Fore
SplineSet
246 1520 m 1,0,-1
 721 1520 l 1,1,-1
 746 1373 l 1,2,3
 684 1342 684 1342 622 1287 c 2,4,-1
 553 1225 l 1,5,6
 627 1215 627 1215 678 1179 c 0,7,8
 776 1110 776 1110 776 982 c 0,9,10
 776 866 776 866 676 785 c 0,11,12
 588 715 588 715 440 715 c 0,13,14
 315 715 315 715 200 792 c 1,15,-1
 200 1034 l 1,16,-1
 210 1034 l 1,17,18
 271 943 271 943 322 910 c 0,19,20
 379 872 379 872 446 872 c 0,21,22
 498 872 498 872 530 911 c 0,23,24
 552 939 552 939 552 988 c 0,25,26
 552 1029 552 1029 519 1063 c 0,27,28
 483 1099 483 1099 394 1100 c 1,29,-1
 310 1181 l 1,30,-1
 496 1363 l 1,31,-1
 416 1363 l 2,32,33
 335 1363 335 1363 246 1344 c 1,34,-1
 246 1520 l 1,0,-1
EndSplineSet
Validated: 1
EndChar

StartChar: acute
Encoding: 180 180 116
Width: 949
GlyphClass: 2
Flags: W
HStem: 1050 480<407 496.341>
VStem: 200 549
LayerCount: 2
Fore
SplineSet
407 1530 m 1,0,1
 749 1530 l 1,2,-1
 749 1520 l 1,3,4
 698 1251 698 1251 443 1050 c 1,5,-1
 200 1050 l 1,6,-1
 200 1060 l 1,7,8
 407 1264 407 1264 407 1530 c 1,0,1
EndSplineSet
Validated: 1
EndChar

StartChar: uni00B5
Encoding: 181 181 117
Width: 1516
GlyphClass: 2
Flags: W
HStem: -410 21G<170 580> -20 224<626.155 883.91> 0 21G<936 1346> 1100 20G<416 565 1182 1331>
VStem: 200 350<-405.128 -1 281.824 1065.31> 966 350<290.625 1065.31>
LayerCount: 2
Fore
SplineSet
1346 0 m 1,0,-1
 936 0 l 1,1,2
 945 45 945 45 945 52 c 1,3,4
 844 -20 844 -20 702 -20 c 0,5,6
 621 -20 621 -20 550 -1 c 1,7,-1
 550 -110 l 2,8,9
 550 -260 550 -260 580 -410 c 1,10,-1
 170 -410 l 1,11,12
 200 -254 200 -254 200 -110 c 2,13,-1
 200 770 l 2,14,15
 200 920 200 920 170 1070 c 1,16,-1
 580 1120 l 1,17,18
 550 970 550 970 550 820 c 2,19,-1
 550 442 l 2,20,21
 550 338 550 338 596 280 c 0,22,23
 656 204 656 204 758 204 c 0,24,25
 854 204 854 204 916 281 c 0,26,27
 966 343 966 343 966 442 c 2,28,-1
 966 770 l 2,29,30
 966 920 966 920 936 1070 c 1,31,-1
 1346 1120 l 1,32,33
 1316 970 1316 970 1316 820 c 2,34,-1
 1316 300 l 2,35,36
 1316 150 1316 150 1346 0 c 1,0,-1
EndSplineSet
Validated: 1
EndChar

StartChar: paragraph
Encoding: 182 182 118
Width: 1263
GlyphClass: 2
Flags: W
HStem: 0 21G<683 856 922 1093> 1381 129<856 922>
VStem: 150 706<832.461 1242.35> 713 143<4.62598 563> 922 141<4.6875 1378.75>
LayerCount: 2
Fore
SplineSet
1093 0 m 1,0,-1
 922 0 l 1,1,-1
 922 1381 l 1,2,-1
 856 1381 l 1,3,-1
 856 0 l 1,4,-1
 683 0 l 1,5,6
 713 148 713 148 713 300 c 2,7,-1
 713 563 l 1,8,9
 669 555 669 555 622 555 c 0,10,11
 425 555 425 555 288 697 c 0,12,13
 150 840 150 840 150 1037 c 0,14,15
 150 1235 150 1235 287 1378 c 0,16,17
 423 1520 423 1520 622 1520 c 0,18,19
 675 1520 675 1520 723 1510 c 1,20,-1
 1093 1510 l 1,21,22
 1063 1360 1063 1360 1063 1210 c 2,23,-1
 1063 300 l 2,24,25
 1063 150 1063 150 1093 0 c 1,0,-1
EndSplineSet
Validated: 1
EndChar

StartChar: periodcentered
Encoding: 183 183 119
Width: 810
GlyphClass: 2
Flags: W
HStem: 547 414<277.369 530.64>
VStem: 200 410<625.631 882.369>
LayerCount: 2
Fore
SplineSet
200 754 m 0,0,1
 200 839 200 839 260 900 c 128,-1,2
 320 961 320 961 405 961 c 0,3,4
 489 961 489 961 550 900 c 0,5,6
 610 840 610 840 610 754 c 0,7,8
 610 669 610 669 550 608 c 128,-1,9
 490 547 490 547 405 547 c 128,-1,10
 320 547 320 547 260 607.5 c 128,-1,11
 200 668 200 668 200 754 c 0,0,1
EndSplineSet
Validated: 1
EndChar

StartChar: cedilla
Encoding: 184 184 120
Width: 767
GlyphClass: 2
Flags: W
HStem: -430 213<200 315.315>
VStem: 335 232<-325.5 -66.3179>
LayerCount: 2
Fore
SplineSet
363 80 m 1,0,1
 567 -43 567 -43 567 -221 c 0,2,3
 567 -430 567 -430 200 -430 c 1,4,-1
 200 -217 l 1,5,6
 335 -217 335 -217 335 -117 c 0,7,8
 335 -40 335 -40 239 17 c 1,9,-1
 363 80 l 1,0,1
EndSplineSet
Validated: 1
EndChar

StartChar: uni00B9
Encoding: 185 185 121
Width: 826
GlyphClass: 2
Flags: W
HStem: 1510 20G<463.931 618>
VStem: 395 215<764.375 1312>
LayerCount: 2
Fore
SplineSet
626 1530 m 1,0,1
 610 1447 610 1447 610 1377 c 2,2,-1
 610 912 l 2,3,4
 610 837 610 837 626 762 c 1,5,-1
 380 762 l 1,6,7
 395 838 395 838 395 912 c 2,8,-1
 395 1312 l 1,9,-1
 318 1226 l 1,10,-1
 200 1331 l 1,11,-1
 391 1501 l 1,12,-1
 626 1530 l 1,0,1
EndSplineSet
Validated: 3073
EndChar

StartChar: ordmasculine
Encoding: 186 186 122
Width: 1150
GlyphClass: 2
Flags: W
HStem: 682 194<204.706 945.233> 930 167<497.148 652.406> 1363 167<497.61 651.779>
VStem: 254 214<1125.41 1335.69> 682 214<1124.06 1334.82>
LayerCount: 2
Fore
SplineSet
200 906 m 1,0,1
 350 876 350 876 575 876 c 0,2,3
 798 876 798 876 950 906 c 1,4,-1
 950 652 l 1,5,6
 799 682 799 682 575 682 c 0,7,8
 350 682 350 682 200 652 c 1,9,-1
 200 906 l 1,0,1
575 1097 m 0,10,11
 619 1097 619 1097 649 1129 c 0,12,13
 682 1163 682 1163 682 1230 c 0,14,15
 682 1296 682 1296 649 1331 c 0,16,17
 619 1363 619 1363 575 1363 c 0,18,19
 532 1363 532 1363 501 1331 c 0,20,21
 468 1297 468 1297 468 1230 c 128,-1,22
 468 1163 468 1163 501 1129 c 0,23,24
 532 1097 532 1097 575 1097 c 0,10,11
575 1530 m 0,25,26
 718 1530 718 1530 811 1435 c 0,27,28
 896 1347 896 1347 896 1230 c 0,29,30
 896 1115 896 1115 811 1025 c 0,31,32
 721 930 721 930 575 930 c 0,33,34
 427 930 427 930 338 1025 c 0,35,36
 254 1114 254 1114 254 1230 c 0,37,38
 254 1344 254 1344 339 1435 c 0,39,40
 429 1530 429 1530 575 1530 c 0,25,26
EndSplineSet
Validated: 1
EndChar

StartChar: guillemotright
Encoding: 187 187 123
Width: 1590
GlyphClass: 2
Flags: W
VStem: 611 304<595 899> 1086 304<595 899>
DStem2: 915 747 397 1041 0.588499 -0.808498<-614.608 -178.904> 397 453 915 747 0.588499 0.808498<-72.0673 363.637> 1390 747 872 1041 0.588499 -0.808498<-614.608 -178.904> 872 453 1390 747 0.588499 0.808498<-72.0673 363.637>
LayerCount: 2
Fore
SplineSet
200 1270 m 1,0,1
 581 1270 l 1,2,3
 644 1126 644 1126 729 1007 c 2,4,-1
 915 747 l 1,5,-1
 729 487 l 2,6,7
 644 368 644 368 581 224 c 1,8,-1
 200 224 l 1,9,10
 319 346 319 346 397 453 c 2,11,-1
 611 747 l 1,12,-1
 397 1041 l 2,13,14
 317 1151 317 1151 200 1270 c 1,0,1
675 1270 m 1,15,-1
 1056 1270 l 1,16,17
 1119 1126 1119 1126 1204 1007 c 2,18,-1
 1390 747 l 1,19,-1
 1204 487 l 2,20,21
 1119 368 1119 368 1056 224 c 1,22,-1
 675 224 l 1,23,24
 794 346 794 346 872 453 c 2,25,-1
 1086 747 l 1,26,-1
 872 1041 l 2,27,28
 792 1151 792 1151 675 1270 c 1,15,-1
EndSplineSet
Validated: 1
EndChar

StartChar: onequarter
Encoding: 188 188 124
Width: 1820
GlyphClass: 2
Flags: W
HStem: 0 21G<353 715.5 1312 1565> 162 157<1547.43 1620> 162 138<1151 1330 1546 1619.12> 1510 0G<463.931 618 1033.5 1393>
VStem: 395 215<764.375 1312> 1331 215<3.30029 162 306 545>
DStem2: 951 1225 1239 1251 0.417626 0.908619<-1215.01 296.199> 1241 656 1151 300 0.592076 0.805882<-339.414 -36.166>
LayerCount: 2
Fore
SplineSet
626 1530 m 1,0,1
 610 1447 610 1447 610 1377 c 2,2,-1
 610 912 l 2,3,4
 610 837 610 837 626 762 c 1,5,-1
 380 762 l 1,6,7
 395 838 395 838 395 912 c 2,8,-1
 395 1312 l 1,9,-1
 318 1226 l 1,10,-1
 200 1331 l 1,11,-1
 391 1501 l 1,12,-1
 626 1530 l 1,0,1
353 0 m 1,13,14
 441 116 441 116 507 259 c 2,15,-1
 951 1225 l 2,16,17
 1016 1367 1016 1367 1051 1510 c 1,18,-1
 1393 1510 l 1,19,20
 1305 1394 1305 1394 1239 1251 c 2,21,-1
 795 285 l 2,22,23
 736 156 736 156 695 0 c 1,24,-1
 353 0 l 1,13,14
1565 0 m 1,25,-1
 1312 0 l 1,26,27
 1329 68 1329 68 1330 162 c 1,28,-1
 975 162 l 1,29,-1
 950 308 l 1,30,31
 1022 367 1022 367 1066 425 c 2,32,-1
 1241 656 l 2,33,34
 1294 726 1294 726 1322 795 c 1,35,-1
 1565 795 l 1,36,37
 1546 722 1546 722 1546 625 c 2,38,-1
 1546 306 l 1,39,40
 1592 310 1592 310 1620 319 c 1,41,-1
 1620 162 l 1,42,-1
 1546 162 l 1,43,44
 1547 106 1547 106 1565 0 c 1,25,-1
1331 300 m 1,45,-1
 1331 545 l 1,46,-1
 1151 300 l 1,47,-1
 1331 300 l 1,45,-1
EndSplineSet
Validated: 3073
EndChar

StartChar: questiondown
Encoding: 191 191 125
Width: 1344
GlyphClass: 2
Flags: W
HStem: -20 224<610.435 958.523> 1116 414<623.36 876.631>
VStem: 150 352<312.187 588.752> 544 410<1195.41 1451.98> 644 218<975.711 1080>
LayerCount: 2
Fore
SplineSet
1194 106 m 1,0,1
 984 -20 984 -20 754 -20 c 0,2,3
 485 -20 485 -20 314 123 c 0,4,5
 150 260 150 260 150 456 c 0,6,7
 150 705 150 705 448 862 c 0,8,9
 644 966 644 966 644 1080 c 1,10,-1
 862 1080 l 17,11,12
 862 832 862 832 631 672 c 0,13,14
 502 583 502 583 502 448 c 0,15,16
 502 353 502 353 578 275 c 0,17,18
 646 205 646 205 770 204 c 24,19,20
 912 204 912 204 1005 278 c 0,21,22
 1106 358 1106 358 1184 504 c 1,23,-1
 1194 504 l 1,24,-1
 1194 106 l 1,0,1
954 1323 m 0,25,26
 954 1236 954 1236 894 1176 c 128,-1,27
 834 1116 834 1116 749 1116 c 0,28,29
 665 1116 665 1116 604 1177 c 0,30,31
 544 1237 544 1237 544 1323 c 0,32,33
 544 1410 544 1410 604 1470 c 128,-1,34
 664 1530 664 1530 749 1530 c 128,-1,35
 834 1530 834 1530 894 1469.5 c 128,-1,36
 954 1409 954 1409 954 1323 c 0,25,26
EndSplineSet
Validated: 1
EndChar

StartChar: multiply
Encoding: 215 215 126
Width: 1317
GlyphClass: 2
Flags: W
DStem2: 433 698 613 519 0.707107 0.707107<-295.107 65.0538 319.612 679.022> 659 924 479 744 0.707107 -0.707107<-360.095 0 254.558 614.012>
LayerCount: 2
Fore
SplineSet
422 1203 m 17,0,1
 508 1075 508 1075 613 969 c 2,2,-1
 659 924 l 1,3,-1
 704 969 l 2,4,5
 809 1074 809 1074 895 1203 c 1,6,-1
 1117 981 l 1,7,8
 989 895 989 895 884 790 c 2,9,-1
 838 744 l 1,10,-1
 884 698 l 2,11,12
 990 592 990 592 1117 507 c 1,13,-1
 895 285 l 1,14,15
 810 413 810 413 704 519 c 2,16,-1
 659 564 l 1,17,-1
 613 519 l 2,18,19
 507 413 507 413 422 285 c 1,20,-1
 200 507 l 1,21,22
 327 592 327 592 433 698 c 2,23,-1
 479 744 l 1,24,-1
 433 790 l 2,25,26
 329 894 329 894 200 981 c 1,27,-1
 422 1203 l 17,0,1
EndSplineSet
Validated: 1
EndChar

StartChar: divide
Encoding: 247 247 127
Width: 1383
GlyphClass: 2
Flags: W
HStem: 86 414<564.369 817.64> 617 254<204.688 1178.25> 999 414<564.369 817.64>
VStem: 487 410<164.02 420.591 1077.63 1334.37>
LayerCount: 2
Fore
SplineSet
200 901 m 1,0,1
 350 871 350 871 500 871 c 2,2,-1
 883 871 l 2,3,4
 1031 871 1031 871 1183 901 c 1,5,-1
 1183 587 l 1,6,7
 1032 617 1032 617 883 617 c 2,8,-1
 500 617 l 2,9,10
 350 617 350 617 200 587 c 1,11,-1
 200 901 l 1,0,1
487 293 m 0,12,13
 487 380 487 380 547 440 c 128,-1,14
 607 500 607 500 692 500 c 0,15,16
 776 500 776 500 837 439 c 0,17,18
 897 379 897 379 897 293 c 0,19,20
 897 206 897 206 837 146 c 128,-1,21
 777 86 777 86 692 86 c 128,-1,22
 607 86 607 86 547 146.5 c 128,-1,23
 487 207 487 207 487 293 c 0,12,13
487 1206 m 0,24,25
 487 1291 487 1291 547 1352 c 128,-1,26
 607 1413 607 1413 692 1413 c 0,27,28
 776 1413 776 1413 837 1352 c 0,29,30
 897 1292 897 1292 897 1206 c 0,31,32
 897 1121 897 1121 837 1060 c 128,-1,33
 777 999 777 999 692 999 c 128,-1,34
 607 999 607 999 547 1059.5 c 128,-1,35
 487 1120 487 1120 487 1206 c 0,24,25
EndSplineSet
Validated: 1
EndChar

StartChar: Delta
Encoding: 916 916 128
Width: 1745
GlyphClass: 2
Flags: W
HStem: 0 223<409 1226> 1490 20G<677 1068>
DStem2: 154 259 409 223 0.418402 0.908262<73.9951 1063.12> 1146 1225 815 1125 0.418402 -0.908262<-46.8377 942.642>
LayerCount: 2
Fore
SplineSet
1226 224 m 9,0,-1
 815 1125 l 1,1,-1
 409 223 l 17,2,-1
 1226 224 l 9,0,-1
0 0 m 1,3,4
 95 131 95 131 154 259 c 2,5,-1
 599 1225 l 2,6,7
 655 1346 655 1346 699 1510 c 1,8,-1
 1046 1510 l 1,9,10
 1090 1346 1090 1346 1146 1225 c 2,11,-1
 1591 259 l 2,12,13
 1647 137 1647 137 1745 0 c 1,14,-1
 0 0 l 1,3,4
EndSplineSet
Validated: 3073
EndChar

StartChar: Pi
Encoding: 928 928 129
Width: 1729
GlyphClass: 2
Flags: W
HStem: 0 21G<170 580 1119 1529> 1286 224<550.495 1148.5>
VStem: 200 350<4.6875 1284.84> 1149 350<4.6875 1284.87>
LayerCount: 2
Fore
SplineSet
580 0 m 1,0,-1
 170 0 l 1,1,2
 200 150 200 150 200 300 c 2,3,-1
 200 1210 l 2,4,5
 200 1360 200 1360 170 1510 c 1,6,-1
 1529 1510 l 1,7,8
 1499 1360 1499 1360 1499 1210 c 2,9,-1
 1499 300 l 2,10,11
 1499 150 1499 150 1529 0 c 1,12,-1
 1119 0 l 1,13,14
 1149 150 1149 150 1149 300 c 2,15,-1
 1149 1210 l 2,16,17
 1149 1250 1149 1250 1146 1286 c 1,18,-1
 553 1286 l 1,19,20
 550 1249 550 1249 550 1210 c 2,21,-1
 550 300 l 2,22,23
 550 150 550 150 580 0 c 1,0,-1
EndSplineSet
Validated: 3073
EndChar

StartChar: Sigma
Encoding: 931 931 130
Width: 1528
GlyphClass: 2
Flags: W
HStem: 0 224<651 1323.68> 1286 224<655 1231.88>
DStem2: 289 235 651 224 0.480914 0.876768<164.446 602.003>
LayerCount: 2
Fore
SplineSet
100 0 m 1,0,1
 216 103 216 103 289 235 c 2,2,-1
 580 762 l 1,3,-1
 293 1275 l 2,4,5
 219 1407 219 1407 104 1510 c 1,6,-1
 1237 1510 l 1,7,-1
 1237 1256 l 1,8,9
 1073 1286 1073 1286 937 1286 c 2,10,-1
 655 1286 l 1,11,-1
 945 760 l 1,12,-1
 651 224 l 1,13,-1
 1028 224 l 2,14,15
 1190 224 1190 224 1328 254 c 1,16,-1
 1328 0 l 1,17,-1
 100 0 l 1,0,1
EndSplineSet
Validated: 3073
EndChar

StartChar: Omega
Encoding: 937 937 131
Width: 2056
GlyphClass: 2
Flags: W
HStem: 0 224<103.09 409 1647 1952.88> 0 198<815.668 933 1124 1243.91> 1304 226<839.794 1216.14>
VStem: 200 370<482.628 1004.1> 1486 370<502.225 1000.63>
LayerCount: 2
Fore
SplineSet
100 0 m 1,0,-1
 100 254 l 1,1,2
 198 230 198 230 409 224 c 1,3,4
 200 426 200 426 200 757 c 0,5,6
 200 1075 200 1075 441.5 1302.5 c 128,-1,7
 683 1530 683 1530 1028 1530 c 0,8,9
 1371 1530 1371 1530 1614 1302 c 0,10,11
 1856 1075 1856 1075 1856 756 c 0,12,13
 1856 467 1856 467 1647 224 c 1,14,15
 1857 230 1857 230 1956 254 c 1,16,-1
 1956 0 l 1,17,-1
 1124 0 l 1,18,-1
 1124 196 l 1,19,20
 1269 231 1269 231 1358 336 c 0,21,22
 1486 488 1486 488 1486 742 c 128,-1,23
 1486 996 1486 996 1358 1147 c 0,24,25
 1225 1304 1225 1304 1028 1304 c 0,26,27
 833 1304 833 1304 697 1146 c 0,28,29
 570 998 570 998 570 741 c 0,30,31
 570 487 570 487 698 336 c 0,32,33
 786 232 786 232 933 198 c 1,34,-1
 933 0 l 1,35,-1
 100 0 l 1,0,-1
EndSplineSet
Validated: 3073
EndChar

StartChar: mu
Encoding: 956 956 132
Width: 1516
GlyphClass: 2
Flags: W
HStem: -410 21G<170 580> -20 224<626.155 883.91> 0 21G<936 1346> 1100 20G<416 565 1182 1331>
VStem: 200 350<-405.128 -1 281.824 1065.31> 966 350<290.625 1065.31>
LayerCount: 2
Fore
SplineSet
1346 0 m 1,0,-1
 936 0 l 1,1,2
 945 45 945 45 945 52 c 1,3,4
 844 -20 844 -20 702 -20 c 0,5,6
 621 -20 621 -20 550 -1 c 1,7,-1
 550 -110 l 2,8,9
 550 -260 550 -260 580 -410 c 1,10,-1
 170 -410 l 1,11,12
 200 -254 200 -254 200 -110 c 2,13,-1
 200 770 l 2,14,15
 200 920 200 920 170 1070 c 1,16,-1
 580 1120 l 1,17,18
 550 970 550 970 550 820 c 2,19,-1
 550 442 l 2,20,21
 550 338 550 338 596 280 c 0,22,23
 656 204 656 204 758 204 c 0,24,25
 854 204 854 204 916 281 c 0,26,27
 966 343 966 343 966 442 c 2,28,-1
 966 770 l 2,29,30
 966 920 966 920 936 1070 c 1,31,-1
 1346 1120 l 1,32,33
 1316 970 1316 970 1316 820 c 2,34,-1
 1316 300 l 2,35,36
 1316 150 1316 150 1346 0 c 1,0,-1
EndSplineSet
Validated: 3073
EndChar

StartChar: pi
Encoding: 960 960 133
Width: 1508
GlyphClass: 2
Flags: W
HStem: 0 21G<170 580 928 1338> 876 224<550.534 957.466>
VStem: 200 350<4.6875 874.812> 958 350<4.6875 874.812>
LayerCount: 2
Fore
SplineSet
580 0 m 1,0,-1
 170 0 l 1,1,2
 200 150 200 150 200 300 c 2,3,-1
 200 800 l 2,4,5
 200 950 200 950 170 1100 c 1,6,-1
 1338 1100 l 1,7,8
 1308 950 1308 950 1308 800 c 2,9,-1
 1308 300 l 2,10,11
 1308 150 1308 150 1338 0 c 1,12,-1
 928 0 l 1,13,14
 958 150 958 150 958 300 c 2,15,-1
 958 800 l 2,16,17
 958 838 958 838 955 876 c 1,18,-1
 553 876 l 1,19,20
 550 838 550 838 550 800 c 2,21,-1
 550 300 l 2,22,23
 550 150 550 150 580 0 c 1,0,-1
EndSplineSet
Validated: 3073
EndChar

StartChar: uni2010
Encoding: 8208 8208 134
Width: 1150
GlyphClass: 2
Flags: W
HStem: 617 254<204.706 945.233>
LayerCount: 2
Fore
SplineSet
200 901 m 1,0,1
 350 871 350 871 575 871 c 0,2,3
 798 871 798 871 950 901 c 1,4,-1
 950 587 l 1,5,6
 799 617 799 617 575 617 c 0,7,8
 350 617 350 617 200 587 c 1,9,-1
 200 901 l 1,0,1
EndSplineSet
Validated: 3073
EndChar

StartChar: uni2011
Encoding: 8209 8209 135
Width: 1150
GlyphClass: 2
Flags: W
HStem: 617 254<204.706 945.233>
LayerCount: 2
Fore
SplineSet
200 901 m 1,0,1
 350 871 350 871 575 871 c 0,2,3
 798 871 798 871 950 901 c 1,4,-1
 950 587 l 1,5,6
 799 617 799 617 575 617 c 0,7,8
 350 617 350 617 200 587 c 1,9,-1
 200 901 l 1,0,1
EndSplineSet
Validated: 3073
EndChar

StartChar: figuredash
Encoding: 8210 8210 136
Width: 1383
GlyphClass: 2
Flags: W
HStem: 617 254<204.688 1178.25>
LayerCount: 2
Fore
SplineSet
200 901 m 1,0,1
 350 871 350 871 500 871 c 2,2,-1
 883 871 l 2,3,4
 1031 871 1031 871 1183 901 c 1,5,-1
 1183 587 l 1,6,7
 1032 617 1032 617 883 617 c 2,8,-1
 500 617 l 2,9,10
 350 617 350 617 200 587 c 1,11,-1
 200 901 l 1,0,1
EndSplineSet
Validated: 3073
EndChar

StartChar: endash
Encoding: 8211 8211 137
Width: 1383
GlyphClass: 2
Flags: W
HStem: 617 254<204.688 1178.25>
LayerCount: 2
Fore
SplineSet
200 901 m 1,0,1
 350 871 350 871 500 871 c 2,2,-1
 883 871 l 2,3,4
 1031 871 1031 871 1183 901 c 1,5,-1
 1183 587 l 1,6,7
 1032 617 1032 617 883 617 c 2,8,-1
 500 617 l 2,9,10
 350 617 350 617 200 587 c 1,11,-1
 200 901 l 1,0,1
EndSplineSet
Validated: 3073
EndChar

StartChar: emdash
Encoding: 8212 8212 138
Width: 1533
GlyphClass: 2
Flags: W
HStem: 617 254<204.688 1328.25>
LayerCount: 2
Fore
SplineSet
200 901 m 1,0,1
 350 871 350 871 500 871 c 2,2,-1
 1033 871 l 2,3,4
 1181 871 1181 871 1333 901 c 1,5,-1
 1333 587 l 1,6,7
 1182 617 1182 617 1033 617 c 2,8,-1
 500 617 l 2,9,10
 350 617 350 617 200 587 c 1,11,-1
 200 901 l 1,0,1
EndSplineSet
Validated: 3073
EndChar

StartChar: afii00208
Encoding: 8213 8213 139
Width: 1533
GlyphClass: 2
Flags: W
HStem: 617 254<204.688 1328.25>
LayerCount: 2
Fore
SplineSet
200 901 m 5,0,1
 350 871 350 871 500 871 c 6,2,-1
 1033 871 l 6,3,4
 1181 871 1181 871 1333 901 c 5,5,-1
 1333 587 l 5,6,7
 1182 617 1182 617 1033 617 c 6,8,-1
 500 617 l 6,9,10
 350 617 350 617 200 587 c 5,11,-1
 200 901 l 5,0,1
EndSplineSet
Validated: 3073
EndChar

StartChar: underscoredbl
Encoding: 8215 8215 140
Width: 1233
GlyphClass: 2
Flags: W
HStem: -430 21G<200 275 957.5 1033> -400 134<204.688 1028.25> -184 134<204.688 1028.25> -40 20G<200 275 957 1033>
LayerCount: 2
Fore
SplineSet
200 -236 m 1,0,1
 350 -266 350 -266 500 -266 c 2,2,-1
 733 -266 l 2,3,4
 881 -266 881 -266 1033 -236 c 1,5,-1
 1033 -430 l 1,6,7
 882 -400 882 -400 733 -400 c 2,8,-1
 500 -400 l 2,9,10
 350 -400 350 -400 200 -430 c 1,11,-1
 200 -236 l 1,0,1
200 -20 m 1,12,13
 350 -50 350 -50 500 -50 c 2,14,-1
 733 -50 l 2,15,16
 881 -50 881 -50 1033 -20 c 1,17,-1
 1033 -214 l 1,18,19
 882 -184 882 -184 733 -184 c 2,20,-1
 500 -184 l 2,21,22
 350 -184 350 -184 200 -214 c 1,23,-1
 200 -20 l 1,12,13
EndSplineSet
Validated: 1
EndChar

StartChar: quoteleft
Encoding: 8216 8216 141
Width: 813
GlyphClass: 2
Flags: W
VStem: 200 271<1119.59 1322.99>
LayerCount: 2
Fore
SplineSet
606 1550 m 1,0,-1
 606 1540 l 1,1,2
 471 1406 471 1406 471 1261 c 0,3,4
 471 1117 471 1117 613 1036 c 1,5,-1
 404 813 l 1,6,7
 200 943 200 943 200 1132 c 0,8,9
 200 1461 200 1461 606 1550 c 1,0,-1
EndSplineSet
Validated: 3073
EndChar

StartChar: quoteright
Encoding: 8217 8217 142
Width: 813
GlyphClass: 2
Flags: W
VStem: 342 271<1040.01 1243.41>
LayerCount: 2
Fore
SplineSet
409 1550 m 1,0,1
 613 1420 613 1420 613 1231 c 0,2,3
 613 902 613 902 207 813 c 1,4,-1
 207 823 l 1,5,6
 342 957 342 957 342 1102 c 0,7,8
 342 1246 342 1246 200 1327 c 1,9,-1
 409 1550 l 1,0,1
EndSplineSet
Validated: 3073
EndChar

StartChar: quotesinglbase
Encoding: 8218 8218 143
Width: 813
GlyphClass: 2
Flags: W
HStem: -431 21G<207 410>
VStem: 342 271<-203.989 -0.589355>
LayerCount: 2
Fore
SplineSet
409 306 m 1,0,1
 613 176 613 176 613 -13 c 0,2,3
 613 -342 613 -342 207 -431 c 1,4,-1
 207 -421 l 1,5,6
 342 -287 342 -287 342 -142 c 0,7,8
 342 2 342 2 200 83 c 1,9,-1
 409 306 l 1,0,1
EndSplineSet
Validated: 3073
EndChar

StartChar: quotereversed
Encoding: 8219 8219 144
Width: 813
GlyphClass: 2
Flags: W
VStem: 200 271<1040.01 1243.41>
LayerCount: 2
Fore
SplineSet
404 1550 m 1,0,1
 613 1327 l 1,2,3
 471 1246 471 1246 471 1102 c 0,4,5
 471 957 471 957 606 823 c 1,6,-1
 606 813 l 1,7,8
 200 902 200 902 200 1231 c 0,9,10
 200 1420 200 1420 404 1550 c 1,0,1
EndSplineSet
Validated: 3073
EndChar

StartChar: quotedblleft
Encoding: 8220 8220 145
Width: 1273
GlyphClass: 2
Flags: W
VStem: 200 271<1119.59 1322.99> 660 271<1119.59 1322.99>
LayerCount: 2
Fore
SplineSet
606 1550 m 1,0,-1
 606 1540 l 1,1,2
 471 1406 471 1406 471 1261 c 0,3,4
 471 1117 471 1117 613 1036 c 1,5,-1
 404 813 l 1,6,7
 200 943 200 943 200 1132 c 0,8,9
 200 1461 200 1461 606 1550 c 1,0,-1
1066 1550 m 1,10,-1
 1066 1540 l 1,11,12
 931 1406 931 1406 931 1261 c 0,13,14
 931 1117 931 1117 1073 1036 c 1,15,-1
 864 813 l 1,16,17
 660 943 660 943 660 1132 c 0,18,19
 660 1461 660 1461 1066 1550 c 1,10,-1
EndSplineSet
Validated: 3073
EndChar

StartChar: quotedblright
Encoding: 8221 8221 146
Width: 1273
GlyphClass: 2
Flags: W
VStem: 342 271<1040.01 1243.41> 802 271<1040.01 1243.41>
LayerCount: 2
Fore
SplineSet
869 1550 m 1,0,1
 1073 1420 1073 1420 1073 1231 c 0,2,3
 1073 902 1073 902 667 813 c 1,4,-1
 667 823 l 1,5,6
 802 957 802 957 802 1102 c 0,7,8
 802 1246 802 1246 660 1327 c 1,9,-1
 869 1550 l 1,0,1
409 1550 m 1,10,11
 613 1420 613 1420 613 1231 c 0,12,13
 613 902 613 902 207 813 c 1,14,-1
 207 823 l 1,15,16
 342 957 342 957 342 1102 c 0,17,18
 342 1246 342 1246 200 1327 c 1,19,-1
 409 1550 l 1,10,11
EndSplineSet
Validated: 3073
EndChar

StartChar: quotedblbase
Encoding: 8222 8222 147
Width: 1273
GlyphClass: 2
Flags: W
HStem: -431 21G<207 410 667 870>
VStem: 342 271<-203.989 -0.589355> 802 271<-203.989 -0.589355>
LayerCount: 2
Fore
SplineSet
869 306 m 1,0,1
 1073 176 1073 176 1073 -13 c 0,2,3
 1073 -342 1073 -342 667 -431 c 1,4,-1
 667 -421 l 1,5,6
 802 -287 802 -287 802 -142 c 0,7,8
 802 2 802 2 660 83 c 1,9,-1
 869 306 l 1,0,1
409 306 m 1,10,11
 613 176 613 176 613 -13 c 0,12,13
 613 -342 613 -342 207 -431 c 1,14,-1
 207 -421 l 1,15,16
 342 -287 342 -287 342 -142 c 0,17,18
 342 2 342 2 200 83 c 1,19,-1
 409 306 l 1,10,11
EndSplineSet
Validated: 3073
EndChar

StartChar: uni201F
Encoding: 8223 8223 148
Width: 1273
GlyphClass: 2
Flags: W
VStem: 200 271<1040.01 1243.41> 660 271<1040.01 1243.41>
LayerCount: 2
Fore
SplineSet
404 1550 m 1,0,1
 613 1327 l 1,2,3
 471 1246 471 1246 471 1102 c 0,4,5
 471 957 471 957 606 823 c 1,6,-1
 606 813 l 1,7,8
 200 902 200 902 200 1231 c 0,9,10
 200 1420 200 1420 404 1550 c 1,0,1
864 1550 m 1,11,-1
 1073 1327 l 1,12,13
 931 1246 931 1246 931 1102 c 0,14,15
 931 957 931 957 1066 823 c 1,16,-1
 1066 813 l 1,17,18
 660 902 660 902 660 1231 c 0,19,20
 660 1420 660 1420 864 1550 c 1,11,-1
EndSplineSet
Validated: 3073
EndChar

StartChar: dagger
Encoding: 8224 8224 149
Width: 1383
GlyphClass: 2
Flags: W
HStem: 0 21G<509 874> 891 254<204.688 539 844 1178.25> 1490 20G<509 874>
VStem: 539 305<4.74902 891 1145 1505.25>
LayerCount: 2
Fore
SplineSet
509 0 m 17,0,1
 539 152 539 152 539 300 c 2,2,-1
 539 891 l 1,3,-1
 500 891 l 2,4,5
 350 891 350 891 200 861 c 1,6,-1
 200 1175 l 1,7,8
 350 1145 350 1145 500 1145 c 2,9,-1
 539 1145 l 1,10,-1
 539 1210 l 2,11,12
 539 1360 539 1360 509 1510 c 9,13,-1
 874 1510 l 17,14,15
 844 1358 844 1358 844 1210 c 2,16,-1
 844 1145 l 1,17,-1
 883 1145 l 2,18,19
 1031 1145 1031 1145 1183 1175 c 1,20,-1
 1183 861 l 1,21,22
 1032 891 1032 891 883 891 c 2,23,-1
 844 891 l 1,24,-1
 844 300 l 2,25,26
 844 150 844 150 874 0 c 9,27,-1
 509 0 l 17,0,1
EndSplineSet
Validated: 3073
EndChar

StartChar: daggerdbl
Encoding: 8225 8225 150
Width: 1383
GlyphClass: 2
Flags: W
HStem: 0 21G<509 874> 365 254<204.749 539 844 1178.31> 891 254<204.688 539 844 1178.25> 1490 20G<509 874>
VStem: 539 305<4.74902 365 619 891 1145 1505.25>
LayerCount: 2
Fore
SplineSet
874 0 m 9,0,-1
 509 0 l 17,1,2
 539 152 539 152 539 300 c 2,3,-1
 539 365 l 1,4,-1
 500 365 l 2,5,6
 352 365 352 365 200 335 c 1,7,-1
 200 649 l 1,8,9
 351 619 351 619 500 619 c 2,10,-1
 539 619 l 1,11,-1
 539 891 l 1,12,-1
 500 891 l 2,13,14
 350 891 350 891 200 861 c 1,15,-1
 200 1175 l 1,16,17
 350 1145 350 1145 500 1145 c 2,18,-1
 539 1145 l 1,19,-1
 539 1210 l 2,20,21
 539 1360 539 1360 509 1510 c 9,22,-1
 874 1510 l 17,23,24
 844 1358 844 1358 844 1210 c 2,25,-1
 844 1145 l 1,26,-1
 883 1145 l 2,27,28
 1031 1145 1031 1145 1183 1175 c 1,29,-1
 1183 861 l 1,30,31
 1032 891 1032 891 883 891 c 2,32,-1
 844 891 l 1,33,-1
 844 619 l 1,34,-1
 883 619 l 2,35,36
 1033 619 1033 619 1183 649 c 1,37,-1
 1183 335 l 1,38,39
 1033 365 1033 365 883 365 c 2,40,-1
 844 365 l 1,41,-1
 844 300 l 2,42,43
 844 150 844 150 874 0 c 9,0,-1
EndSplineSet
Validated: 3073
EndChar

StartChar: bullet
Encoding: 8226 8226 151
Width: 1212
GlyphClass: 2
Flags: W
HStem: 331 830<422.457 789.543>
VStem: 200 812<556.265 934.887>
LayerCount: 2
Fore
SplineSet
606 331 m 0,0,1
 435 331 435 331 318 453 c 0,2,3
 200 576 200 576 200 746 c 0,4,5
 200 915 200 915 318 1038 c 128,-1,6
 436 1161 436 1161 606 1161 c 0,7,8
 777 1161 777 1161 894 1039 c 0,9,10
 1012 916 1012 916 1012 746 c 128,-1,11
 1012 576 1012 576 894 453 c 0,12,13
 776 331 776 331 606 331 c 0,0,1
EndSplineSet
Validated: 1
EndChar

StartChar: uni2023
Encoding: 8227 8227 152
Width: 1195
GlyphClass: 2
Flags: W
LayerCount: 2
Fore
SplineSet
200 282 m 1,0,-1
 200 1203 l 1,1,-1
 1045 762 l 1,2,-1
 200 282 l 1,0,-1
EndSplineSet
Validated: 1
EndChar

StartChar: onedotenleader
Encoding: 8228 8228 153
Width: 810
GlyphClass: 2
Flags: W
HStem: -20 414<277.369 530.64>
VStem: 200 410<58.0199 314.591>
LayerCount: 2
Fore
SplineSet
200 187 m 0,0,1
 200 274 200 274 260 334 c 128,-1,2
 320 394 320 394 405 394 c 0,3,4
 489 394 489 394 550 333 c 0,5,6
 610 273 610 273 610 187 c 0,7,8
 610 100 610 100 550 40 c 128,-1,9
 490 -20 490 -20 405 -20 c 128,-1,10
 320 -20 320 -20 260 40.5 c 128,-1,11
 200 101 200 101 200 187 c 0,0,1
EndSplineSet
Validated: 1
EndChar

StartChar: twodotenleader
Encoding: 8229 8229 154
Width: 1310
GlyphClass: 2
Flags: W
HStem: -20 414<277.369 530.64 777.369 1030.64>
VStem: 200 410<58.0199 314.591> 700 410<58.0199 314.591>
LayerCount: 2
Fore
SplineSet
700 187 m 0,0,1
 700 274 700 274 760 334 c 128,-1,2
 820 394 820 394 905 394 c 0,3,4
 989 394 989 394 1050 333 c 0,5,6
 1110 273 1110 273 1110 187 c 0,7,8
 1110 100 1110 100 1050 40 c 128,-1,9
 990 -20 990 -20 905 -20 c 128,-1,10
 820 -20 820 -20 760 40.5 c 128,-1,11
 700 101 700 101 700 187 c 0,0,1
200 187 m 0,12,13
 200 274 200 274 260 334 c 128,-1,14
 320 394 320 394 405 394 c 0,15,16
 489 394 489 394 550 333 c 0,17,18
 610 273 610 273 610 187 c 0,19,20
 610 100 610 100 550 40 c 128,-1,21
 490 -20 490 -20 405 -20 c 128,-1,22
 320 -20 320 -20 260 40.5 c 128,-1,23
 200 101 200 101 200 187 c 0,12,13
EndSplineSet
Validated: 1
EndChar

StartChar: ellipsis
Encoding: 8230 8230 155
Width: 1810
GlyphClass: 2
Flags: W
HStem: -20 414<277.369 530.64 777.369 1030.64 1277.37 1530.64>
VStem: 200 410<58.0199 314.591> 700 410<58.0199 314.591> 1200 410<58.0199 314.591>
CounterMasks: 1 70
LayerCount: 2
Fore
SplineSet
1200 187 m 0,0,1
 1200 274 1200 274 1260 334 c 128,-1,2
 1320 394 1320 394 1405 394 c 0,3,4
 1489 394 1489 394 1550 333 c 0,5,6
 1610 273 1610 273 1610 187 c 0,7,8
 1610 100 1610 100 1550 40 c 128,-1,9
 1490 -20 1490 -20 1405 -20 c 128,-1,10
 1320 -20 1320 -20 1260 40.5 c 128,-1,11
 1200 101 1200 101 1200 187 c 0,0,1
700 187 m 0,12,13
 700 274 700 274 760 334 c 128,-1,14
 820 394 820 394 905 394 c 0,15,16
 989 394 989 394 1050 333 c 0,17,18
 1110 273 1110 273 1110 187 c 0,19,20
 1110 100 1110 100 1050 40 c 128,-1,21
 990 -20 990 -20 905 -20 c 128,-1,22
 820 -20 820 -20 760 40.5 c 128,-1,23
 700 101 700 101 700 187 c 0,12,13
200 187 m 0,24,25
 200 274 200 274 260 334 c 128,-1,26
 320 394 320 394 405 394 c 0,27,28
 489 394 489 394 550 333 c 0,29,30
 610 273 610 273 610 187 c 0,31,32
 610 100 610 100 550 40 c 128,-1,33
 490 -20 490 -20 405 -20 c 128,-1,34
 320 -20 320 -20 260 40.5 c 128,-1,35
 200 101 200 101 200 187 c 0,24,25
EndSplineSet
Validated: 1
EndChar

StartChar: uni2027
Encoding: 8231 8231 156
Width: 810
GlyphClass: 2
Flags: W
HStem: 547 414<277.369 530.64>
VStem: 200 410<625.631 882.369>
LayerCount: 2
Fore
SplineSet
200 754 m 0,0,1
 200 839 200 839 260 900 c 128,-1,2
 320 961 320 961 405 961 c 0,3,4
 489 961 489 961 550 900 c 0,5,6
 610 840 610 840 610 754 c 0,7,8
 610 669 610 669 550 608 c 128,-1,9
 490 547 490 547 405 547 c 128,-1,10
 320 547 320 547 260 607.5 c 128,-1,11
 200 668 200 668 200 754 c 0,0,1
EndSplineSet
Validated: 1
EndChar

StartChar: perthousand
Encoding: 8240 8240 157
Width: 2727
GlyphClass: 2
Flags: W
HStem: -20 216<1301.63 1495.41 2071.63 2265.41> 0 21G<456 818.5> 439 216<1300.81 1498.53 2070.81 2268.53> 855 216<462.634 656.408> 1314 216<461.812 659.533> 1490 20G<1136.5 1496>
VStem: 200 229<1105.55 1280.02> 689 229<1105.47 1283.82> 1039 229<230.743 403.365> 1528 229<230.469 408.816> 1809 229<230.743 403.365> 2298 229<230.469 408.816>
DStem2: 1054 1225 1342 1251 0.417626 0.908619<-1214.98 296.171>
LayerCount: 2
Fore
SplineSet
2168 196 m 128,-1,1
 2229 196 2229 196 2263.5 235 c 128,-1,2
 2298 274 2298 274 2298 318 c 0,3,4
 2298 365 2298 365 2264 400 c 0,5,6
 2228 439 2228 439 2168 439 c 0,7,8
 2107 439 2107 439 2072.5 400.5 c 128,-1,9
 2038 362 2038 362 2038 317 c 128,-1,10
 2038 272 2038 272 2072 235 c 0,11,0
 2107 196 2107 196 2168 196 c 128,-1,1
2168 -20 m 0,12,13
 2001 -20 2001 -20 1901 89 c 0,14,15
 1809 189 1809 189 1809 318 c 0,16,17
 1809 448 1809 448 1903 547 c 0,18,19
 2006 655 2006 655 2168 655 c 128,-1,20
 2330 655 2330 655 2433 547 c 0,21,22
 2527 448 2527 448 2527 318 c 128,-1,23
 2527 188 2527 188 2433 88 c 0,24,25
 2331 -20 2331 -20 2168 -20 c 0,12,13
1398 196 m 128,-1,27
 1459 196 1459 196 1493.5 235 c 128,-1,28
 1528 274 1528 274 1528 318 c 0,29,30
 1528 365 1528 365 1494 400 c 0,31,32
 1458 439 1458 439 1398 439 c 0,33,34
 1337 439 1337 439 1302.5 400.5 c 128,-1,35
 1268 362 1268 362 1268 317 c 128,-1,36
 1268 272 1268 272 1302 235 c 0,37,26
 1337 196 1337 196 1398 196 c 128,-1,27
1398 -20 m 0,38,39
 1231 -20 1231 -20 1131 89 c 0,40,41
 1039 189 1039 189 1039 318 c 0,42,43
 1039 448 1039 448 1133 547 c 0,44,45
 1236 655 1236 655 1398 655 c 128,-1,46
 1560 655 1560 655 1663 547 c 0,47,48
 1757 448 1757 448 1757 318 c 128,-1,49
 1757 188 1757 188 1663 88 c 0,50,51
 1561 -20 1561 -20 1398 -20 c 0,38,39
456 0 m 1,52,53
 544 116 544 116 610 259 c 2,54,-1
 1054 1225 l 2,55,56
 1119 1366 1119 1366 1154 1510 c 1,57,-1
 1496 1510 l 1,58,59
 1408 1394 1408 1394 1342 1251 c 2,60,-1
 898 285 l 2,61,62
 839 157 839 157 798 0 c 1,63,-1
 456 0 l 1,52,53
559 1071 m 128,-1,65
 620 1071 620 1071 654.5 1110 c 128,-1,66
 689 1149 689 1149 689 1193 c 0,67,68
 689 1240 689 1240 655 1275 c 0,69,70
 619 1314 619 1314 559 1314 c 0,71,72
 498 1314 498 1314 463.5 1275.5 c 128,-1,73
 429 1237 429 1237 429 1192 c 128,-1,74
 429 1147 429 1147 463 1110 c 0,75,64
 498 1071 498 1071 559 1071 c 128,-1,65
559 1530 m 128,-1,77
 721 1530 721 1530 824 1422 c 0,78,79
 918 1323 918 1323 918 1193 c 128,-1,80
 918 1063 918 1063 824 963 c 0,81,82
 722 855 722 855 559 855 c 0,83,84
 392 855 392 855 292 964 c 0,85,86
 200 1064 200 1064 200 1192 c 0,87,88
 200 1323 200 1323 294 1422 c 0,89,76
 397 1530 397 1530 559 1530 c 128,-1,77
EndSplineSet
Validated: 3073
EndChar

StartChar: minute
Encoding: 8242 8242 158
Width: 863
GlyphClass: 2
Flags: W
HStem: 950 580<331.645 472.077>
VStem: 200 463
LayerCount: 2
Fore
SplineSet
333 1530 m 1,0,-1
 663 1530 l 1,1,2
 536 1234 536 1234 470 950 c 1,3,-1
 200 950 l 1,4,5
 290 1226 290 1226 333 1530 c 1,0,-1
EndSplineSet
Validated: 3073
EndChar

StartChar: second
Encoding: 8243 8243 159
Width: 1283
GlyphClass: 2
Flags: W
HStem: 950 580<331.645 472.077 751.645 892.077>
LayerCount: 2
Fore
SplineSet
753 1530 m 1,0,-1
 1083 1530 l 1,1,2
 956 1234 956 1234 890 950 c 1,3,-1
 620 950 l 1,4,5
 710 1226 710 1226 753 1530 c 1,0,-1
333 1530 m 1,6,-1
 663 1530 l 1,7,8
 536 1234 536 1234 470 950 c 1,9,-1
 200 950 l 1,10,11
 290 1226 290 1226 333 1530 c 1,6,-1
EndSplineSet
Validated: 3073
EndChar

StartChar: uni2034
Encoding: 8244 8244 160
Width: 1703
GlyphClass: 2
Flags: W
HStem: 950 580<331.645 472.077 751.645 892.077 1171.64 1312.08>
LayerCount: 2
Fore
SplineSet
1173 1530 m 1,0,-1
 1503 1530 l 1,1,2
 1376 1234 1376 1234 1310 950 c 1,3,-1
 1040 950 l 1,4,5
 1130 1226 1130 1226 1173 1530 c 1,0,-1
753 1530 m 1,6,-1
 1083 1530 l 1,7,8
 956 1234 956 1234 890 950 c 1,9,-1
 620 950 l 1,10,11
 710 1226 710 1226 753 1530 c 1,6,-1
333 1530 m 1,12,-1
 663 1530 l 1,13,14
 536 1234 536 1234 470 950 c 1,15,-1
 200 950 l 1,16,17
 290 1226 290 1226 333 1530 c 1,12,-1
EndSplineSet
Validated: 3073
EndChar

StartChar: uni2035
Encoding: 8245 8245 161
Width: 863
GlyphClass: 2
Flags: W
HStem: 950 580<390.923 531.355>
VStem: 200 463
LayerCount: 2
Fore
SplineSet
530 1530 m 1,0,1
 573 1226 573 1226 663 950 c 1,2,-1
 393 950 l 1,3,4
 327 1234 327 1234 200 1530 c 1,5,-1
 530 1530 l 1,0,1
EndSplineSet
Validated: 3073
EndChar

StartChar: uni2036
Encoding: 8246 8246 162
Width: 1283
GlyphClass: 2
Flags: W
HStem: 950 580<390.923 531.355 810.923 951.355>
LayerCount: 2
Fore
SplineSet
530 1530 m 1,0,1
 573 1226 573 1226 663 950 c 1,2,-1
 393 950 l 1,3,4
 327 1234 327 1234 200 1530 c 1,5,-1
 530 1530 l 1,0,1
950 1530 m 1,6,7
 993 1226 993 1226 1083 950 c 1,8,-1
 813 950 l 1,9,10
 747 1234 747 1234 620 1530 c 1,11,-1
 950 1530 l 1,6,7
EndSplineSet
Validated: 3073
EndChar

StartChar: uni2037
Encoding: 8247 8247 163
Width: 1703
GlyphClass: 2
Flags: W
HStem: 950 580<390.923 531.355 810.923 951.355 1230.92 1371.36>
LayerCount: 2
Fore
SplineSet
530 1530 m 1,0,1
 573 1226 573 1226 663 950 c 1,2,-1
 393 950 l 1,3,4
 327 1234 327 1234 200 1530 c 1,5,-1
 530 1530 l 1,0,1
950 1530 m 1,6,7
 993 1226 993 1226 1083 950 c 1,8,-1
 813 950 l 1,9,10
 747 1234 747 1234 620 1530 c 1,11,-1
 950 1530 l 1,6,7
1370 1530 m 1,12,13
 1413 1226 1413 1226 1503 950 c 1,14,-1
 1233 950 l 1,15,16
 1167 1234 1167 1234 1040 1530 c 1,17,-1
 1370 1530 l 1,12,13
EndSplineSet
Validated: 3073
EndChar

StartChar: guilsinglleft
Encoding: 8249 8249 164
Width: 1115
GlyphClass: 2
Flags: W
VStem: 200 334<580 914>
LayerCount: 2
Fore
SplineSet
534 1270 m 1,0,-1
 915 1270 l 1,1,2
 768 1121 768 1121 718 1041 c 2,3,-1
 534 747 l 1,4,-1
 718 453 l 2,5,6
 765 378 765 378 915 224 c 1,7,-1
 534 224 l 1,8,9
 471 368 471 368 386 487 c 2,10,-1
 200 747 l 1,11,-1
 386 1007 l 2,12,13
 471 1126 471 1126 534 1270 c 1,0,-1
EndSplineSet
Validated: 3073
EndChar

StartChar: guilsinglright
Encoding: 8250 8250 165
Width: 1115
GlyphClass: 2
Flags: W
VStem: 611 304<595 899>
DStem2: 915 747 397 1041 0.588499 -0.808498<-614.608 -178.904> 397 453 915 747 0.588499 0.808498<-72.0673 363.637>
LayerCount: 2
Fore
SplineSet
200 1270 m 1,0,1
 581 1270 l 1,2,3
 644 1126 644 1126 729 1007 c 2,4,-1
 915 747 l 1,5,-1
 729 487 l 2,6,7
 644 368 644 368 581 224 c 1,8,-1
 200 224 l 1,9,10
 319 346 319 346 397 453 c 2,11,-1
 611 747 l 1,12,-1
 397 1041 l 2,13,14
 317 1151 317 1151 200 1270 c 1,0,1
EndSplineSet
Validated: 3073
EndChar

StartChar: uni2043
Encoding: 8259 8259 166
Width: 1270
GlyphClass: 2
Flags: W
VStem: 539 194<316.781 575 912 1167.22>
DStem2: 525 919 427 751 0.865917 -0.500188<-241.63 15.2961 352.175 609.195> 441 743 521 565 0.865917 0.500188<-257.923 0 337.379 592.902>
LayerCount: 2
Fore
SplineSet
508 1171 m 1,0,-1
 762 1171 l 1,1,2
 733 1074 733 1074 733 926 c 2,3,-1
 733 912 l 1,4,-1
 745 919 l 2,5,6
 874 993 874 993 943 1066 c 1,7,-1
 1070 847 l 1,8,9
 950 813 950 813 843 751 c 2,10,-1
 829 743 l 1,11,-1
 845 734 l 2,12,13
 951 673 951 673 1070 637 c 1,14,-1
 943 418 l 1,15,16
 873 494 873 494 749 565 c 2,17,-1
 733 575 l 1,18,-1
 733 556 l 2,19,20
 733 434 733 434 762 313 c 1,21,-1
 508 313 l 1,22,23
 539 412 539 412 539 555 c 2,24,-1
 539 576 l 1,25,-1
 521 565 l 2,26,27
 397 494 397 494 327 418 c 1,28,-1
 200 637 l 1,29,30
 319 673 319 673 425 734 c 2,31,-1
 441 743 l 1,32,-1
 427 751 l 2,33,34
 320 813 320 813 200 847 c 1,35,-1
 327 1066 l 1,36,37
 397 993 397 993 525 919 c 2,38,-1
 539 911 l 1,39,-1
 539 927 l 2,40,41
 539 1050 539 1050 508 1171 c 1,0,-1
EndSplineSet
Validated: 3073
EndChar

StartChar: fraction
Encoding: 8260 8260 167
Width: 1246
GlyphClass: 2
Flags: W
DStem2: 774 1405 1082 1431 0.417928 0.90848<-1602.82 296.024>
LayerCount: 2
Fore
SplineSet
10 -180 m 1,0,1
 108 -42 108 -42 164 79 c 2,2,-1
 774 1405 l 2,3,4
 837 1542 837 1542 874 1690 c 1,5,-1
 1236 1690 l 1,6,7
 1143 1563 1143 1563 1082 1431 c 2,8,-1
 472 105 l 2,9,10
 415 -19 415 -19 372 -180 c 1,11,-1
 10 -180 l 1,0,1
EndSplineSet
Validated: 3073
EndChar

StartChar: Euro
Encoding: 8364 8364 168
Width: 1908
GlyphClass: 2
Flags: W
HStem: -20 226<970.974 1371.3> 501 208<726 1229.51> 807 208<727 1227.94> 1304 226<965.792 1349.45>
LayerCount: 2
Fore
SplineSet
1708 562 m 1,0,-1
 1708 173 l 1,1,2
 1484 -20 1484 -20 1140 -20 c 0,3,4
 787 -20 787 -20 540 205 c 0,5,6
 401 332 401 332 343 498 c 1,7,8
 247 491 247 491 150 472 c 1,9,-1
 150 736 l 1,10,11
 226 721 226 721 303 713 c 1,12,13
 302 734 302 734 302 755 c 0,14,15
 302 779 302 779 303 803 c 1,16,17
 227 795 227 795 150 780 c 1,18,-1
 150 1044 l 1,19,20
 248 1024 248 1024 346 1018 c 1,21,22
 403 1176 403 1176 539 1305 c 0,23,24
 775 1530 775 1530 1130 1530 c 0,25,26
 1399 1530 1399 1530 1621 1414 c 1,27,-1
 1621 962 l 1,28,-1
 1611 962 l 1,29,30
 1566 1066 1566 1066 1485 1154 c 0,31,32
 1347 1304 1347 1304 1162 1304 c 0,33,34
 950 1304 950 1304 806 1136 c 0,35,36
 758 1080 758 1080 727 1015 c 1,37,-1
 934 1015 l 2,38,39
 1071 1015 1071 1015 1233 1044 c 1,40,-1
 1233 780 l 1,41,42
 1122 807 1122 807 933 807 c 2,43,-1
 674 807 l 1,44,45
 672 782 672 782 672 756 c 0,46,47
 672 732 672 732 674 709 c 1,48,-1
 933 709 l 2,49,50
 1122 709 1122 709 1233 736 c 1,51,-1
 1233 472 l 1,52,53
 1144 501 1144 501 933 501 c 2,54,-1
 726 501 l 1,55,56
 760 429 760 429 814 366 c 0,57,58
 951 206 951 206 1195 206 c 0,59,60
 1453 206 1453 206 1698 562 c 1,61,-1
 1708 562 l 1,0,-1
EndSplineSet
Validated: 3073
EndChar

StartChar: afii61248
Encoding: 8453 8453 169
Width: 2353
GlyphClass: 2
Flags: W
HStem: -20 158<1597.7 1840.71> 0 21G<606 998.5> 638 158<1594.07 1843.93> 714 158<515.575 815.794> 1372 158<509.42 790.451> 1490 20G<1286.5 1676>
VStem: 200 225<961.659 1287.79> 1285 225<227.659 553.789> 1928 225<227.659 553.789>
DStem2: 1204 1225 1522 1251 0.417626 0.908619<-1202.48 296.199>
LayerCount: 2
Fore
SplineSet
1720 -20 m 0,0,1
 1542 -20 1542 -20 1411 98 c 0,2,3
 1285 213 1285 213 1285 388 c 0,4,5
 1285 556 1285 556 1410 677 c 0,6,7
 1533 796 1533 796 1719 796 c 128,-1,8
 1905 796 1905 796 2028 677 c 0,9,10
 2153 556 2153 556 2153 388 c 0,11,12
 2153 213 2153 213 2027 98 c 0,13,14
 1896 -20 1896 -20 1720 -20 c 0,0,1
1719 138 m 128,-1,16
 1800 138 1800 138 1866 206 c 0,17,18
 1928 270 1928 270 1928 388 c 0,19,20
 1928 514 1928 514 1869 572 c 0,21,22
 1802 638 1802 638 1719 638 c 128,-1,23
 1636 638 1636 638 1569 572 c 0,24,25
 1510 514 1510 514 1510 388 c 0,26,27
 1510 270 1510 270 1572 206 c 0,28,15
 1638 138 1638 138 1719 138 c 128,-1,16
958 1045 m 1,29,-1
 958 823 l 1,30,31
 815 714 815 714 634 714 c 0,32,33
 457 714 457 714 326 832 c 0,34,35
 200 947 200 947 200 1122 c 0,36,37
 200 1290 200 1290 325 1411 c 0,38,39
 448 1530 448 1530 634 1530 c 0,40,41
 789 1530 789 1530 899 1460 c 1,42,-1
 899 1206 l 1,43,-1
 889 1206 l 1,44,45
 857 1275 857 1275 809 1315 c 0,46,47
 737 1372 737 1372 654 1372 c 0,48,49
 551 1372 551 1372 484 1306 c 0,50,51
 425 1248 425 1248 425 1122 c 0,52,53
 425 1004 425 1004 487 940 c 0,54,55
 553 872 553 872 666 872 c 0,56,57
 825 873 825 873 948 1045 c 1,58,-1
 958 1045 l 1,29,-1
606 0 m 1,59,60
 694 116 694 116 760 259 c 2,61,-1
 1204 1225 l 2,62,63
 1269 1367 1269 1367 1304 1510 c 1,64,-1
 1676 1510 l 1,65,66
 1588 1394 1588 1394 1522 1251 c 2,67,-1
 1078 285 l 2,68,69
 1019 156 1019 156 978 0 c 1,70,-1
 606 0 l 1,59,60
EndSplineSet
Validated: 3073
EndChar

StartChar: afii61289
Encoding: 8467 8467 170
Width: 1227
GlyphClass: 2
Flags: W
HStem: 0 21G<50 457.905 603.5 709> 1500 20G<764.5 860>
LayerCount: 2
Fore
SplineSet
50 0 m 1,0,1
 216 166 216 166 317 345 c 1,2,3
 310 394 310 394 310 468 c 0,4,5
 310 607 310 607 340 743 c 0,6,7
 446 1208 446 1208 611 1405 c 0,8,9
 707 1520 707 1520 822 1520 c 0,10,11
 898 1520 898 1520 958 1472 c 0,12,13
 1036 1409 1036 1409 1036 1243 c 0,14,15
 1036 1153 1036 1153 1004 1012 c 0,16,17
 935 699 935 699 655 302 c 1,18,19
 662 277 662 277 669 261 c 1,20,21
 709 300 709 300 725 342 c 1,22,-1
 1077 342 l 1,23,24
 964 157 964 157 847 54 c 0,25,26
 763 -20 763 -20 655 -20 c 0,27,28
 552 -20 552 -20 471 42 c 1,29,-1
 446 0 l 1,30,-1
 50 0 l 1,0,1
EndSplineSet
Validated: 1
EndChar

StartChar: trademark
Encoding: 8482 8482 171
Width: 2090
GlyphClass: 2
Flags: W
HStem: 1353 167<202.873 418 642 857.066>
VStem: 418 224<768.023 1353> 919 227<1417.07 1520> 1590 228<1415.03 1520>
DStem2: 924 1357 1076 1135 0.0953579 0.995443<-467.308 -206.494> 1365 1001 1516 922 0.42712 0.904195<0 229.323> 1813 1357 1614 1137 0.0953579 -0.995443<200.021 571.027>
LayerCount: 2
Fore
SplineSet
1064 765 m 1,0,-1
 847 765 l 1,1,2
 876 852 876 852 883 929 c 2,3,-1
 924 1357 l 2,4,5
 926 1378 926 1378 926 1416 c 0,6,7
 926 1450 926 1450 919 1520 c 1,8,-1
 1146 1520 l 1,9,10
 1161 1446 1161 1446 1199 1363 c 2,11,-1
 1365 1001 l 1,12,-1
 1536 1363 l 2,13,14
 1573 1442 1573 1442 1590 1520 c 1,15,-1
 1818 1520 l 1,16,17
 1811 1478 1811 1478 1811 1413 c 0,18,19
 1811 1378 1811 1378 1813 1357 c 2,20,-1
 1854 929 l 2,21,22
 1862 841 1862 841 1890 765 c 1,23,-1
 1626 765 l 1,24,25
 1630 779 1630 779 1634 876 c 0,26,27
 1635 905 1635 905 1632 938 c 2,28,-1
 1614 1137 l 1,29,-1
 1516 922 l 2,30,31
 1483 850 1483 850 1463 765 c 1,32,-1
 1225 765 l 1,33,34
 1204 851 1204 851 1172 922 c 2,35,-1
 1076 1135 l 1,36,-1
 1059 938 l 2,37,38
 1056 903 1056 903 1056 874 c 0,39,40
 1056 830 1056 830 1064 765 c 1,0,-1
663 765 m 1,41,-1
 397 765 l 1,42,43
 418 828 418 828 418 926 c 2,44,-1
 418 1353 l 1,45,-1
 375 1353 l 2,46,47
 292 1353 292 1353 200 1333 c 1,48,-1
 200 1520 l 1,49,-1
 860 1520 l 1,50,-1
 860 1332 l 1,51,52
 766 1353 766 1353 685 1353 c 2,53,-1
 642 1353 l 1,54,-1
 642 926 l 2,55,56
 642 862 642 862 663 765 c 1,41,-1
EndSplineSet
Validated: 3073
EndChar

StartChar: uni2126
Encoding: 8486 8486 172
Width: 2056
GlyphClass: 2
Flags: W
HStem: 0 224<103.09 409 1647 1952.88> 0 198<815.668 933 1124 1243.91> 1304 226<839.794 1216.14>
VStem: 200 370<482.628 1004.1> 1486 370<502.225 1000.63>
LayerCount: 2
Fore
SplineSet
100 0 m 1,0,-1
 100 254 l 1,1,2
 198 230 198 230 409 224 c 1,3,4
 200 426 200 426 200 757 c 0,5,6
 200 1075 200 1075 441.5 1302.5 c 128,-1,7
 683 1530 683 1530 1028 1530 c 0,8,9
 1371 1530 1371 1530 1614 1302 c 0,10,11
 1856 1075 1856 1075 1856 756 c 0,12,13
 1856 467 1856 467 1647 224 c 1,14,15
 1857 230 1857 230 1956 254 c 1,16,-1
 1956 0 l 1,17,-1
 1124 0 l 1,18,-1
 1124 196 l 1,19,20
 1269 231 1269 231 1358 336 c 0,21,22
 1486 488 1486 488 1486 742 c 128,-1,23
 1486 996 1486 996 1358 1147 c 0,24,25
 1225 1304 1225 1304 1028 1304 c 0,26,27
 833 1304 833 1304 697 1146 c 0,28,29
 570 998 570 998 570 741 c 0,30,31
 570 487 570 487 698 336 c 0,32,33
 786 232 786 232 933 198 c 1,34,-1
 933 0 l 1,35,-1
 100 0 l 1,0,-1
EndSplineSet
Validated: 3073
EndChar

StartChar: estimated
Encoding: 8494 8494 173
Width: 1411
GlyphClass: 2
Flags: W
HStem: 0 225<508.123 937.219> 490 224<481 927> 907 223<503.666 900.111>
VStem: 100 381<336.973 490 714 794.292>
LayerCount: 2
Fore
SplineSet
1278 279 m 17,0,1
 1177 147 1177 147 1052 78 c 0,2,3
 912 0 912 0 704 0 c 0,4,5
 434 0 434 0 267 162 c 0,6,7
 100 323 100 323 100 565 c 0,8,9
 100 809 100 809 268 969 c 0,10,11
 436 1130 436 1130 704 1130 c 0,12,13
 947 1130 947 1130 1129 958 c 128,-1,14
 1311 786 1311 786 1311 490 c 1,15,-1
 481 490 l 1,16,-1
 481 284 l 1,17,18
 568 225 568 225 756 225 c 0,19,20
 955 225 955 225 1082 400 c 9,21,-1
 1278 279 l 17,0,1
481 714 m 1,22,-1
 927 714 l 1,23,-1
 927 849 l 1,24,25
 829 907 829 907 702 907 c 0,26,27
 573 907 573 907 481 850 c 1,28,-1
 481 714 l 1,22,-1
EndSplineSet
Validated: 1
EndChar

StartChar: partialdiff
Encoding: 8706 8706 174
Width: 1435
GlyphClass: 2
Flags: W
HStem: -20 253<515.846 697.639> 845 240<658.905 877.459> 1232 245<588.147 887.565>
VStem: 150 338<255.417 591.251> 948 337<1022 1173.37>
LayerCount: 2
Fore
SplineSet
420 1388 m 1,0,1
 587 1477 587 1477 778 1477 c 0,2,3
 1285 1477 1285 1477 1285 914 c 0,4,5
 1285 544 1285 544 1100 261 c 0,6,7
 916 -20 916 -20 587 -20 c 0,8,9
 378 -20 378 -20 264 91 c 128,-1,10
 150 202 150 202 150 420 c 0,11,12
 150 676 150 676 306 880 c 0,13,14
 463 1085 463 1085 745 1085 c 0,15,16
 850 1085 850 1085 948 1022 c 1,17,18
 948 1129 948 1129 898 1182 c 0,19,20
 854 1232 854 1232 756 1232 c 0,21,22
 558 1232 558 1232 420 1026 c 1,23,-1
 420 1388 l 1,0,1
918 741 m 1,24,25
 902 785 902 785 860 815 c 0,26,27
 819 845 819 845 770 845 c 0,28,29
 652 845 652 845 570 679 c 128,-1,30
 488 513 488 513 488 373 c 0,31,32
 488 295 488 295 519 260 c 24,33,34
 542 233 542 233 600 233 c 0,35,36
 698 233 698 233 790 394.5 c 128,-1,37
 882 556 882 556 918 741 c 1,24,25
EndSplineSet
Validated: 3073
EndChar

StartChar: uni2206
Encoding: 8710 8710 175
Width: 1745
GlyphClass: 2
Flags: W
HStem: 0 223<409 1226> 1490 20G<677 1068>
DStem2: 154 259 409 223 0.418402 0.908262<73.9951 1063.12> 1146 1225 815 1125 0.418402 -0.908262<-46.8377 942.642>
LayerCount: 2
Fore
SplineSet
1226 224 m 9,0,-1
 815 1125 l 1,1,-1
 409 223 l 17,2,-1
 1226 224 l 9,0,-1
0 0 m 1,3,4
 95 131 95 131 154 259 c 2,5,-1
 599 1225 l 2,6,7
 655 1346 655 1346 699 1510 c 1,8,-1
 1046 1510 l 1,9,10
 1090 1346 1090 1346 1146 1225 c 2,11,-1
 1591 259 l 2,12,13
 1647 137 1647 137 1745 0 c 1,14,-1
 0 0 l 1,3,4
EndSplineSet
Validated: 3073
EndChar

StartChar: product
Encoding: 8719 8719 176
Width: 1729
GlyphClass: 2
Flags: W
HStem: -410 21G<170 580 1119 1529> 1286 224<550.458 1148.5>
VStem: 200 350<-405.312 1284.97> 1149 350<-405.312 1284.84>
LayerCount: 2
Fore
SplineSet
580 -410 m 1,0,-1
 170 -410 l 1,1,2
 200 -260 200 -260 200 -110 c 2,3,-1
 200 1210 l 2,4,5
 200 1360 200 1360 170 1510 c 1,6,-1
 1529 1510 l 1,7,8
 1499 1360 1499 1360 1499 1210 c 2,9,-1
 1499 -110 l 2,10,11
 1499 -260 1499 -260 1529 -410 c 1,12,-1
 1119 -410 l 1,13,14
 1149 -260 1149 -260 1149 -110 c 2,15,-1
 1149 1210 l 2,16,17
 1149 1249 1149 1249 1146 1286 c 1,18,-1
 553 1286 l 1,19,20
 550 1253 550 1253 550 1210 c 2,21,-1
 550 -110 l 2,22,23
 550 -260 550 -260 580 -410 c 1,0,-1
EndSplineSet
Validated: 3073
EndChar

StartChar: summation
Encoding: 8721 8721 177
Width: 1528
GlyphClass: 2
Flags: W
HStem: -410 224<612 1322.76> 1286 224<604 1228>
DStem2: 604 1286 254 1251 0.432329 -0.901716<0 645.246> 254 -151 612 -186 0.418592 0.908174<118.07 777.774>
LayerCount: 2
Fore
SplineSet
100 -410 m 17,0,1
 200 -269 200 -269 254 -151 c 10,2,-1
 576 557 l 25,3,-1
 254 1251 l 18,4,5
 184 1402 184 1402 100 1510 c 9,6,-1
 1233 1510 l 25,7,-1
 1233 1256 l 17,8,9
 1073 1286 1073 1286 933 1286 c 2,10,-1
 604 1286 l 9,11,-1
 954 556 l 25,12,-1
 612 -186 l 17,13,-1
 1028 -186 l 2,14,15
 1160 -186 1160 -186 1328 -156 c 9,16,-1
 1328 -410 l 25,17,-1
 100 -410 l 17,0,1
EndSplineSet
Validated: 3073
EndChar

StartChar: minus
Encoding: 8722 8722 178
Width: 1383
GlyphClass: 2
Flags: W
HStem: 617 254<204.688 1178.25>
LayerCount: 2
Fore
SplineSet
200 901 m 1,0,1
 350 871 350 871 500 871 c 2,2,-1
 883 871 l 2,3,4
 1031 871 1031 871 1183 901 c 1,5,-1
 1183 587 l 1,6,7
 1032 617 1032 617 883 617 c 2,8,-1
 500 617 l 2,9,10
 350 617 350 617 200 587 c 1,11,-1
 200 901 l 1,0,1
EndSplineSet
Validated: 3073
EndChar

StartChar: uni2215
Encoding: 8725 8725 179
Width: 1246
GlyphClass: 2
Flags: W
DStem2: 774 1405 1082 1431 0.417928 0.90848<-1602.82 296.024>
LayerCount: 2
Fore
SplineSet
10 -180 m 1,0,1
 108 -42 108 -42 164 79 c 2,2,-1
 774 1405 l 2,3,4
 837 1542 837 1542 874 1690 c 1,5,-1
 1236 1690 l 1,6,7
 1143 1563 1143 1563 1082 1431 c 2,8,-1
 472 105 l 2,9,10
 415 -19 415 -19 372 -180 c 1,11,-1
 10 -180 l 1,0,1
EndSplineSet
Validated: 3073
EndChar

StartChar: asteriskmath
Encoding: 8727 8727 180
Width: 1270
GlyphClass: 2
Flags: W
VStem: 539 194<316.781 575 912 1167.22>
DStem2: 525 919 427 751 0.865917 -0.500188<-241.63 15.2961 352.175 609.195> 441 743 521 565 0.865917 0.500188<-257.923 0 337.379 592.902>
LayerCount: 2
Fore
SplineSet
508 1171 m 5,0,-1
 762 1171 l 5,1,2
 733 1074 733 1074 733 926 c 6,3,-1
 733 912 l 5,4,-1
 745 919 l 6,5,6
 874 993 874 993 943 1066 c 5,7,-1
 1070 847 l 5,8,9
 950 813 950 813 843 751 c 6,10,-1
 829 743 l 5,11,-1
 845 734 l 6,12,13
 951 673 951 673 1070 637 c 5,14,-1
 943 418 l 5,15,16
 873 494 873 494 749 565 c 6,17,-1
 733 575 l 5,18,-1
 733 556 l 6,19,20
 733 434 733 434 762 313 c 5,21,-1
 508 313 l 5,22,23
 539 412 539 412 539 555 c 6,24,-1
 539 576 l 5,25,-1
 521 565 l 6,26,27
 397 494 397 494 327 418 c 5,28,-1
 200 637 l 5,29,30
 319 673 319 673 425 734 c 6,31,-1
 441 743 l 5,32,-1
 427 751 l 6,33,34
 320 813 320 813 200 847 c 5,35,-1
 327 1066 l 5,36,37
 397 993 397 993 525 919 c 6,38,-1
 539 911 l 5,39,-1
 539 927 l 6,40,41
 539 1050 539 1050 508 1171 c 5,0,-1
EndSplineSet
Validated: 3073
EndChar

StartChar: uni2218
Encoding: 8728 8728 181
Width: 1212
GlyphClass: 2
Flags: W
HStem: 331 255<498.714 712.596> 906 255<499.404 712.786>
VStem: 200 250<634.834 857.124> 762 250<634.607 854.468>
LayerCount: 2
Fore
SplineSet
606 586 m 128,-1,1
 672 586 672 586 716 633 c 0,2,3
 762 682 762 682 762 746 c 0,4,5
 762 808 762 808 716 858 c 0,6,7
 671 906 671 906 606 906 c 0,8,9
 540 906 540 906 496 859 c 0,10,11
 450 811 450 811 450 746 c 128,-1,12
 450 681 450 681 495 633.5 c 128,-1,0
 540 586 540 586 606 586 c 128,-1,1
606 331 m 0,13,14
 435 331 435 331 318 453 c 0,15,16
 200 576 200 576 200 746 c 0,17,18
 200 915 200 915 318 1038 c 128,-1,19
 436 1161 436 1161 606 1161 c 0,20,21
 777 1161 777 1161 894 1039 c 0,22,23
 1012 916 1012 916 1012 746 c 128,-1,24
 1012 576 1012 576 894 453 c 0,25,26
 776 331 776 331 606 331 c 0,13,14
EndSplineSet
Validated: 3073
EndChar

StartChar: uni2219
Encoding: 8729 8729 182
Width: 810
GlyphClass: 2
Flags: W
HStem: 547 414<277.369 530.64>
VStem: 200 410<625.631 882.369>
LayerCount: 2
Fore
SplineSet
200 754 m 0,0,1
 200 839 200 839 260 900 c 128,-1,2
 320 961 320 961 405 961 c 0,3,4
 489 961 489 961 550 900 c 0,5,6
 610 840 610 840 610 754 c 0,7,8
 610 669 610 669 550 608 c 128,-1,9
 490 547 490 547 405 547 c 128,-1,10
 320 547 320 547 260 607.5 c 128,-1,11
 200 668 200 668 200 754 c 0,0,1
EndSplineSet
Validated: 1
EndChar

StartChar: radical
Encoding: 8730 8730 183
Width: 1598
GlyphClass: 2
Flags: W
HStem: 0 21G<506.5 804.5> 1492 20G<1140.5 1498>
DStem2: 684 424 887 285 0.426921 0.904289<0 1181.14>
LayerCount: 2
Fore
SplineSet
787 0 m 1,0,-1
 521 0 l 1,1,2
 492 134 492 134 421 285 c 2,3,-1
 304 533 l 2,4,5
 249 649 249 649 150 792 c 1,6,-1
 546 792 l 1,7,8
 590 630 590 630 646 507 c 2,9,-1
 684 424 l 1,10,-1
 1056 1227 l 2,11,12
 1125 1377 1125 1377 1156 1512 c 1,13,-1
 1498 1512 l 1,14,15
 1407 1386 1407 1386 1344 1253 c 2,16,-1
 887 285 l 2,17,18
 822 148 822 148 787 0 c 1,0,-1
EndSplineSet
Validated: 3073
EndChar

StartChar: uni221B
Encoding: 8731 8731 184
Width: 1598
GlyphClass: 2
Flags: W
HStem: 0 21G<506.5 804.5> 826 150<354.344 549.887> 1360 150<308.373 502>
VStem: 566 190<992.775 1122.02>
DStem2: 684 424 887 285 0.426921 0.904289<0 1181.14>
LayerCount: 2
Fore
SplineSet
306 1510 m 1,0,-1
 710 1510 l 1,1,-1
 731 1368 l 1,2,3
 677 1331 677 1331 641 1291 c 2,4,-1
 608 1254 l 1,5,6
 642 1241 642 1241 673 1220 c 0,7,8
 756 1164 756 1164 756 1053 c 0,9,10
 756 952 756 952 672 885 c 0,11,12
 598 826 598 826 471 826 c 0,13,14
 366 826 366 826 267 890 c 1,15,-1
 267 1097 l 1,16,-1
 275 1097 l 1,17,18
 326 1038 326 1038 371 1008 c 0,19,20
 419 976 419 976 476 976 c 0,21,22
 524 976 524 976 545 1000 c 128,-1,23
 566 1024 566 1024 566 1058 c 0,24,25
 566 1099 566 1099 538 1119 c 0,26,27
 508 1140 508 1140 432 1140 c 1,28,-1
 374 1212 l 1,29,-1
 502 1360 l 1,30,-1
 450 1360 l 2,31,32
 382 1360 382 1360 306 1343 c 1,33,-1
 306 1510 l 1,0,-1
787 0 m 1,34,-1
 521 0 l 1,35,36
 492 134 492 134 421 285 c 2,37,-1
 304 533 l 2,38,39
 249 649 249 649 150 792 c 1,40,-1
 546 792 l 1,41,42
 590 630 590 630 646 507 c 2,43,-1
 684 424 l 1,44,-1
 1056 1227 l 2,45,46
 1125 1377 1125 1377 1156 1512 c 1,47,-1
 1498 1512 l 1,48,49
 1407 1386 1407 1386 1344 1253 c 2,50,-1
 887 285 l 2,51,52
 822 148 822 148 787 0 c 1,34,-1
EndSplineSet
Validated: 3073
EndChar

StartChar: infinity
Encoding: 8734 8734 185
Width: 1748
GlyphClass: 2
Flags: W
HStem: 331 255<498.714 712.835 1033.47 1247.6> 906 255<499.404 713.1 1034.46 1245.38>
VStem: 200 250<634.834 857.124> 762 222<634.989 855.983> 1296 252<634.381 854.468>
LayerCount: 2
Fore
SplineSet
1140 586 m 128,-1,1
 1206 586 1206 586 1250 633 c 0,2,3
 1296 682 1296 682 1296 746 c 0,4,5
 1296 808 1296 808 1250 858 c 0,6,7
 1205 906 1205 906 1140 906 c 0,8,9
 1074 906 1074 906 1030 859 c 0,10,11
 984 811 984 811 984 746 c 128,-1,12
 984 681 984 681 1029 633.5 c 128,-1,0
 1074 586 1074 586 1140 586 c 128,-1,1
606 586 m 128,-1,14
 672 586 672 586 716 633 c 0,15,16
 762 682 762 682 762 746 c 0,17,18
 762 808 762 808 716 858 c 0,19,20
 671 906 671 906 606 906 c 0,21,22
 540 906 540 906 496 859 c 0,23,24
 450 811 450 811 450 746 c 128,-1,25
 450 681 450 681 495 633.5 c 128,-1,13
 540 586 540 586 606 586 c 128,-1,14
606 331 m 0,26,27
 435 331 435 331 318 453 c 0,28,29
 200 576 200 576 200 746 c 0,30,31
 200 915 200 915 318 1038 c 128,-1,32
 436 1161 436 1161 606 1161 c 0,33,34
 763 1161 763 1161 875 1058 c 1,35,36
 987 1161 987 1161 1142 1161 c 0,37,38
 1313 1161 1313 1161 1430 1039 c 0,39,40
 1548 916 1548 916 1548 746 c 0,41,42
 1548 575 1548 575 1430 453 c 128,-1,43
 1312 331 1312 331 1142 331 c 0,44,45
 985 331 985 331 874 433 c 1,46,47
 762 331 762 331 606 331 c 0,26,27
EndSplineSet
Validated: 3073
EndChar

StartChar: approxequal
Encoding: 8776 8776 186
Width: 1356
GlyphClass: 2
Flags: W
HStem: 290 268<789.823 1040.92> 498 268<315.085 566.177> 721 268<789.823 1040.92> 929 268<315.085 566.177>
VStem: 200 10<290 296.449 721 727.449> 1146 10<759.551 766 1190.55 1197>
DStem2: 676 1121 567 885 0.788976 -0.614424<-68.3119 270.541> 676 690 567 454 0.788976 -0.614424<-68.3119 270.541>
LayerCount: 2
Fore
SplineSet
200 657 m 1,0,1
 299 766 299 766 444 766 c 0,2,3
 578 766 578 766 676 690 c 2,4,-1
 789 602 l 2,5,6
 846 558 846 558 923 558 c 0,7,8
 1067 558 1067 558 1146 766 c 1,9,-1
 1156 766 l 1,10,-1
 1156 399 l 1,11,12
 1057 290 1057 290 912 290 c 0,13,14
 778 290 778 290 680 366 c 2,15,-1
 567 454 l 2,16,17
 510 498 510 498 433 498 c 0,18,19
 289 498 289 498 210 290 c 1,20,-1
 200 290 l 1,21,-1
 200 657 l 1,0,1
200 1088 m 1,22,23
 299 1197 299 1197 444 1197 c 0,24,25
 578 1197 578 1197 676 1121 c 2,26,-1
 789 1033 l 2,27,28
 846 989 846 989 923 989 c 0,29,30
 1067 989 1067 989 1146 1197 c 1,31,-1
 1156 1197 l 1,32,-1
 1156 830 l 1,33,34
 1057 721 1057 721 912 721 c 0,35,36
 778 721 778 721 680 797 c 2,37,-1
 567 885 l 2,38,39
 510 929 510 929 433 929 c 0,40,41
 289 929 289 929 210 721 c 1,42,-1
 200 721 l 1,43,-1
 200 1088 l 1,22,23
EndSplineSet
Validated: 3073
EndChar

StartChar: notequal
Encoding: 8800 8800 187
Width: 1390
GlyphClass: 2
Flags: W
HStem: 246 396<221.621 459.091> 388 254<745 1182.25> 846 400<934.073 1160.2> 846 254<208.688 644>
LayerCount: 2
Fore
SplineSet
204 1130 m 1,0,1
 354 1100 354 1100 504 1100 c 2,2,-1
 873 1100 l 1,3,4
 921 1174 921 1174 956 1246 c 1,5,-1
 1290 1246 l 1,6,7
 1224 1191 1224 1191 1164 1126 c 1,8,-1
 1187 1130 l 1,9,-1
 1187 816 l 1,10,11
 1044 844 1044 844 902 846 c 1,12,-1
 745 642 l 1,13,-1
 887 642 l 2,14,15
 1035 642 1035 642 1187 672 c 1,16,-1
 1187 358 l 1,17,18
 1036 388 1036 388 887 388 c 2,19,-1
 518 388 l 1,20,21
 474 320 474 320 436 246 c 1,22,-1
 100 246 l 1,23,24
 165 304 165 304 219 361 c 1,25,-1
 204 358 l 1,26,-1
 204 672 l 1,27,28
 345 644 345 644 485 642 c 1,29,-1
 644 846 l 1,30,-1
 504 846 l 2,31,32
 354 846 354 846 204 816 c 1,33,-1
 204 1130 l 1,0,1
EndSplineSet
Validated: 3073
EndChar

StartChar: equivalence
Encoding: 8801 8801 188
Width: 1383
GlyphClass: 2
Flags: W
HStem: 156 254<204.688 1178.25> 614 254<204.688 1178.25> 1072 254<204.688 1178.25>
CounterMasks: 1 e0
LayerCount: 2
Fore
SplineSet
200 1356 m 1,0,1
 350 1326 350 1326 500 1326 c 2,2,-1
 883 1326 l 2,3,4
 1031 1326 1031 1326 1183 1356 c 1,5,-1
 1183 1042 l 1,6,7
 1032 1072 1032 1072 883 1072 c 2,8,-1
 500 1072 l 2,9,10
 350 1072 350 1072 200 1042 c 1,11,-1
 200 1356 l 1,0,1
200 898 m 1,12,13
 350 868 350 868 500 868 c 2,14,-1
 883 868 l 2,15,16
 1031 868 1031 868 1183 898 c 1,17,-1
 1183 584 l 1,18,19
 1032 614 1032 614 883 614 c 2,20,-1
 500 614 l 2,21,22
 350 614 350 614 200 584 c 1,23,-1
 200 898 l 1,12,13
200 440 m 1,24,25
 350 410 350 410 500 410 c 2,26,-1
 883 410 l 2,27,28
 1031 410 1031 410 1183 440 c 1,29,-1
 1183 126 l 1,30,31
 1032 156 1032 156 883 156 c 2,32,-1
 500 156 l 2,33,34
 350 156 350 156 200 126 c 1,35,-1
 200 440 l 1,24,25
EndSplineSet
Validated: 3073
EndChar

StartChar: lessequal
Encoding: 8804 8804 189
Width: 1383
GlyphClass: 2
Flags: W
HStem: 80 254<204.688 1178.25>
DStem2: 485 1226 529 947 0.917733 0.397197<-68.0428 564.213> 529 947 485 694 0.917733 -0.397197<5.04589 689.049>
LayerCount: 2
Fore
SplineSet
200 364 m 1,0,1
 350 334 350 334 500 334 c 2,2,-1
 883 334 l 2,3,4
 1031 334 1031 334 1183 364 c 1,5,-1
 1183 50 l 1,6,7
 1032 80 1032 80 883 80 c 2,8,-1
 500 80 l 2,9,10
 350 80 350 80 200 50 c 1,11,-1
 200 364 l 1,0,1
200 1126 m 1,12,13
 312 1151 312 1151 485 1226 c 2,14,-1
 924 1416 l 2,15,16
 1025 1460 1025 1460 1183 1550 c 1,17,-1
 1183 1169 l 1,18,19
 1039 1143 1039 1143 898 1089 c 2,20,-1
 529 947 l 1,21,-1
 898 792 l 2,22,23
 1036 734 1036 734 1183 712 c 1,24,-1
 1183 370 l 1,25,26
 1057 447 1057 447 924 504 c 2,27,-1
 485 694 l 2,28,29
 319 766 319 766 200 794 c 1,30,-1
 200 1126 l 1,12,13
EndSplineSet
Validated: 3073
EndChar

StartChar: greaterequal
Encoding: 8805 8805 190
Width: 1383
GlyphClass: 2
Flags: W
HStem: 80 254<204.688 1178.25>
DStem2: 459 1416 485 1128 0.917733 -0.397197<-150.586 533.659> 854 973 459 504 0.917733 0.397197<-634.651 -2.3948>
LayerCount: 2
Fore
SplineSet
200 364 m 1,0,1
 350 334 350 334 500 334 c 2,2,-1
 883 334 l 2,3,4
 1031 334 1031 334 1183 364 c 1,5,-1
 1183 50 l 1,6,7
 1032 80 1032 80 883 80 c 2,8,-1
 500 80 l 2,9,10
 350 80 350 80 200 50 c 1,11,-1
 200 364 l 1,0,1
1183 1126 m 1,12,-1
 1183 794 l 1,13,14
 1071 769 1071 769 898 694 c 2,15,-1
 459 504 l 2,16,17
 360 461 360 461 200 370 c 1,18,-1
 200 751 l 1,19,20
 344 777 344 777 485 831 c 2,21,-1
 854 973 l 1,22,-1
 485 1128 l 2,23,24
 347 1186 347 1186 200 1208 c 1,25,-1
 200 1550 l 1,26,27
 324 1475 324 1475 459 1416 c 2,28,-1
 898 1226 l 2,29,30
 1065 1154 1065 1154 1183 1126 c 1,12,-1
EndSplineSet
Validated: 3073
EndChar

StartChar: lozenge
Encoding: 9674 9674 191
Width: 1350
GlyphClass: 2
Flags: W
HStem: 0 21G<659.98 689.96> 1495 20G<659.722 688.385>
DStem2: 431 797 120 739 0.600519 -0.79961<0 477.803> 120 739 431 797 0.58104 0.813875<227.908 554.331> 674 1515 623 1061 0.583917 -0.811813<338.783 815.441> 722 418 675 0 0.598963 0.800776<0 323.808>
LayerCount: 2
Fore
SplineSet
623 1061 m 1,0,-1
 431 797 l 1,1,-1
 722 418 l 1,2,-1
 911 681 l 1,3,-1
 623 1061 l 1,0,-1
675 0 m 1,4,-1
 120 739 l 1,5,-1
 674 1515 l 1,6,-1
 1230 742 l 1,7,-1
 675 0 l 1,4,-1
EndSplineSet
Validated: 3073
EndChar

StartChar: four
Encoding: 52 52 192
Width: 1398
Flags: W
HStem: 0 21G<749 1159> 300 274<1131.41 1278> 300 244<373 779 1129 1275.75> 1490 20G<721.5 1159>
VStem: 779 350<5.21045 300 551 1104>
DStem2: 592 1247 373 544 0.586968 0.80961<-697.265 -6.01135>
LayerCount: 2
Fore
SplineSet
1159 0 m 1,0,1
 749 0 l 1,2,3
 779 167 779 167 779 300 c 1,4,-1
 63 300 l 1,5,-1
 20 559 l 1,6,7
 139 652 139 652 241 786 c 2,8,-1
 592 1247 l 2,9,10
 694 1381 694 1381 749 1510 c 1,11,-1
 1159 1510 l 1,12,13
 1129 1360 1129 1360 1129 1210 c 2,14,-1
 1129 551 l 1,15,16
 1206 559 1206 559 1278 574 c 1,17,-1
 1278 300 l 1,18,-1
 1129 300 l 1,19,20
 1129 150 1129 150 1159 0 c 1,0,1
779 1104 m 1,21,-1
 373 544 l 1,22,-1
 779 544 l 1,23,-1
 779 1104 l 1,21,-1
EndSplineSet
Validated: 1
EndChar

StartChar: ampersand
Encoding: 38 38 193
Width: 1991
Flags: W
HStem: 0 256<603.881 848.34> 757 223<670.391 877.857> 1080 20G<1411.5 1841> 1305 225<647.002 917.825>
VStem: 150 364<341.288 648.383> 274 332<1045.59 1263.94>
DStem2: 875 329 1114 255 0.637643 0.770332<-127.879 191.558 564.167 934.676> 1227 770 906 682 0.610489 -0.792025<-239.022 0 314.733 673.188>
LayerCount: 2
Fore
SplineSet
1024 520 m 1,0,-1
 906 682 l 18,1,2
 851 757 851 757 753 757 c 0,3,4
 667 757 667 757 584 678 c 0,5,6
 514 611 514 611 514 491 c 0,7,8
 514 379 514 379 577 321 c 0,9,10
 648 256 648 256 725 256 c 0,11,12
 818 256 818 256 875 329 c 2,13,-1
 1024 520 l 1,0,-1
1841 0 m 1,14,-1
 1369 0 l 1,15,16
 1307 141 1307 141 1221 263 c 2,17,-1
 1173 331 l 1,18,-1
 1114 255 l 2,19,20
 1024 139 1024 139 953 0 c 1,21,-1
 798 0 l 18,22,23
 506 0 506 0 336 115 c 0,24,25
 150 241 150 241 150 481 c 0,26,27
 150 703 150 703 326 845 c 0,28,29
 357 870 357 870 394 891 c 1,30,31
 274 993 274 993 274 1156 c 0,32,33
 274 1338 274 1338 440 1452 c 0,34,35
 554 1530 554 1530 745 1530 c 128,-1,36
 936 1530 936 1530 1069 1452 c 1,37,-1
 1069 1093 l 1,38,-1
 1059 1093 l 1,39,40
 1014 1188 1014 1188 938.5 1246.5 c 128,-1,41
 863 1305 863 1305 762 1305 c 0,42,43
 692 1305 692 1305 649 1266 c 128,-1,44
 606 1227 606 1227 606 1174 c 0,45,46
 606 1098 606 1098 640 1056 c 0,47,48
 690 992 690 992 751 980 c 1,49,-1
 1102 980 l 1,50,51
 1146 868 1146 868 1227 770 c 1,52,-1
 1287 845 l 2,53,54
 1375 955 1375 955 1448 1100 c 1,55,-1
 1841 1100 l 1,56,57
 1751 1025 1751 1025 1633 882 c 2,58,-1
 1382 578 l 1,59,-1
 1644 229 l 2,60,61
 1737 105 1737 105 1841 0 c 1,14,-1
EndSplineSet
Validated: 1
EndChar

StartChar: a.alt
Encoding: 65539 -1 194
Width: 1406
Flags: W
HStem: -20 216<500.79 781.998> 0 21G<810 1236> 525 204<505.294 784.767> 884 236<422.494 774.202>
VStem: 80 362<248.808 467.765> 856 350<268.625 460.549 670 803.703>
LayerCount: 2
Fore
SplineSet
641 525 m 0,0,1
 557 525 557 525 508 488 c 0,2,3
 442 436 442 436 442 356 c 0,4,5
 442 282 442 282 502 234 c 0,6,7
 548 196 548 196 638 196 c 0,8,9
 731 196 731 196 797 252 c 0,10,11
 856 301 856 301 856 364 c 0,12,13
 856 428 856 428 800 470 c 0,14,15
 727 525 727 525 641 525 c 0,0,1
1236 0 m 1,16,-1
 810 0 l 1,17,-1
 813 17 l 1,18,19
 724 -20 724 -20 613 -20 c 0,20,21
 409 -20 409 -20 276 61 c 0,22,23
 80 180 80 180 80 342 c 128,-1,24
 80 504 80 504 256 632 c 0,25,26
 390 729 390 729 592 729 c 0,27,28
 726 729 726 729 862 670 c 1,29,30
 862 755 862 755 799 821 c 0,31,32
 736 884 736 884 620 884 c 0,33,34
 533 884 533 884 458 856 c 0,35,36
 357 819 357 819 280 726 c 1,37,-1
 270 726 l 1,38,-1
 270 1061 l 1,39,40
 462 1120 462 1120 642 1120 c 0,41,42
 933 1120 933 1120 1078 953 c 0,43,44
 1206 806 1206 806 1206 551 c 2,45,-1
 1206 300 l 2,46,47
 1206 178 1206 178 1236 0 c 1,16,-1
EndSplineSet
Validated: 3073
EndChar

StartChar: onehalf
Encoding: 189 189 195
Width: 1844
Flags: W
HStem: 0 157<1275 1641.25> 649 156<1172.59 1387.69> 1510 0G<463.931 618 1033.5 1393>
VStem: 395 215<764.375 1312> 1409 223<444.776 618.736>
DStem2: 951 1225 1239 1251 0.417626 0.908619<-1215.01 296.199>
LayerCount: 2
Fore
SplineSet
626 1530 m 1,0,1
 610 1447 610 1447 610 1377 c 2,2,-1
 610 912 l 2,3,4
 610 837 610 837 626 762 c 1,5,-1
 380 762 l 1,6,7
 395 838 395 838 395 912 c 2,8,-1
 395 1312 l 1,9,-1
 318 1226 l 1,10,-1
 200 1331 l 1,11,-1
 391 1501 l 1,12,-1
 626 1530 l 1,0,1
1082 743 m 1,13,14
 1191 805 1191 805 1320 805 c 0,15,16
 1450 805 1450 805 1532 742 c 0,17,18
 1632 665 1632 665 1632 525 c 0,19,20
 1632 370 1632 370 1399 268 c 0,21,22
 1309 228 1309 228 1275 157 c 1,23,-1
 1474 157 l 2,24,25
 1556 157 1556 157 1644 176 c 1,26,-1
 1644 0 l 1,27,-1
 1029 0 l 1,28,29
 1085 267 1085 267 1322 412 c 0,30,31
 1409 465 1409 465 1409 535 c 0,32,33
 1409 582 1409 582 1387 610 c 0,34,35
 1357 649 1357 649 1300 649 c 0,36,37
 1233 649 1233 649 1186 616 c 128,-1,38
 1139 583 1139 583 1092 513 c 1,39,-1
 1082 513 l 1,40,-1
 1082 743 l 1,13,14
353 0 m 1,41,42
 441 116 441 116 507 259 c 2,43,-1
 951 1225 l 2,44,45
 1016 1367 1016 1367 1051 1510 c 1,46,-1
 1393 1510 l 1,47,48
 1305 1394 1305 1394 1239 1251 c 2,49,-1
 795 285 l 2,50,51
 736 156 736 156 695 0 c 1,52,-1
 353 0 l 1,41,42
EndSplineSet
Validated: 3073
EndChar

StartChar: threequarters
Encoding: 190 190 196
Width: 1927
Flags: W
HStem: 0 21G<460 822.5 1419 1672> 162 157<1654.43 1727> 162 138<1258 1437 1653 1726.12> 715 157<313.051 529.83> 1363 157<248.779 496>
VStem: 552 224<901.117 1067.47> 1438 215<3.30029 162 306 545>
DStem2: 1058 1225 1346 1251 0.417626 0.908619<-1214.98 296.171> 1348 656 1258 300 0.592076 0.805882<-339.414 -36.166>
LayerCount: 2
Fore
SplineSet
246 1520 m 1,0,-1
 721 1520 l 1,1,-1
 746 1373 l 1,2,3
 684 1342 684 1342 622 1287 c 2,4,-1
 553 1225 l 1,5,6
 627 1215 627 1215 678 1179 c 0,7,8
 776 1110 776 1110 776 982 c 0,9,10
 776 866 776 866 676 785 c 0,11,12
 588 715 588 715 440 715 c 0,13,14
 315 715 315 715 200 792 c 1,15,-1
 200 1034 l 1,16,-1
 210 1034 l 1,17,18
 271 943 271 943 322 910 c 0,19,20
 379 872 379 872 446 872 c 0,21,22
 498 872 498 872 530 911 c 0,23,24
 552 939 552 939 552 988 c 0,25,26
 552 1029 552 1029 519 1063 c 0,27,28
 483 1099 483 1099 394 1100 c 1,29,-1
 310 1181 l 1,30,-1
 496 1363 l 1,31,-1
 416 1363 l 2,32,33
 335 1363 335 1363 246 1344 c 1,34,-1
 246 1520 l 1,0,-1
1672 0 m 1,35,-1
 1419 0 l 1,36,37
 1436 68 1436 68 1437 162 c 1,38,-1
 1082 162 l 1,39,-1
 1057 308 l 1,40,41
 1129 367 1129 367 1173 425 c 2,42,-1
 1348 656 l 2,43,44
 1401 726 1401 726 1429 795 c 1,45,-1
 1672 795 l 1,46,47
 1653 722 1653 722 1653 625 c 2,48,-1
 1653 306 l 1,49,50
 1699 310 1699 310 1727 319 c 1,51,-1
 1727 162 l 1,52,-1
 1653 162 l 1,53,54
 1654 106 1654 106 1672 0 c 1,35,-1
1438 300 m 1,55,-1
 1438 545 l 1,56,-1
 1258 300 l 1,57,-1
 1438 300 l 1,55,-1
460 0 m 1,58,59
 549 117 549 117 614 259 c 2,60,-1
 1058 1225 l 2,61,62
 1123 1366 1123 1366 1158 1510 c 1,63,-1
 1500 1510 l 1,64,65
 1411 1393 1411 1393 1346 1251 c 2,66,-1
 902 285 l 2,67,68
 843 157 843 157 802 0 c 1,69,-1
 460 0 l 1,58,59
EndSplineSet
Validated: 1
EndChar

StartChar: Agrave
Encoding: 192 192 197
Width: 1745
Flags: W
HStem: 0 21G<0 354 1281.5 1745> 622 201<665 966> 1490 20G<677 1068>
DStem2: 154 259 437 285 0.418402 0.908262<-154.501 507.938 726.063 1106.31> 599 1225 815 1175 0.418402 0.908262<-890.932 -555.632 -337.507 42.7361> 1146 1225 815 1175 0.418402 -0.908262<-91.5628 289.809 508.77 1125.46>
LayerCount: 2
Fore
SplineSet
0 0 m 1,0,1
 95 131 95 131 154 259 c 2,2,-1
 599 1225 l 2,3,4
 655 1347 655 1347 699 1510 c 1,5,-1
 1046 1510 l 1,6,7
 1090 1347 1090 1347 1146 1225 c 2,8,-1
 1591 259 l 2,9,10
 1648 136 1648 136 1745 0 c 1,11,-1
 1298 0 l 1,12,13
 1265 130 1265 130 1198 285 c 2,14,-1
 1053 622 l 1,15,-1
 580 622 l 1,16,-1
 437 285 l 2,17,18
 371 131 371 131 337 0 c 1,19,-1
 0 0 l 1,0,1
665 823 m 1,20,-1
 966 823 l 1,21,-1
 815 1175 l 1,22,-1
 665 823 l 1,20,-1
460 1950 m 1,23,-1
 822 1950 l 1,24,25
 822 1708 822 1708 1026 1560 c 1,26,-1
 1026 1550 l 1,27,-1
 763 1550 l 1,28,29
 511 1671 511 1671 460 1940 c 1,30,-1
 460 1950 l 1,23,-1
EndSplineSet
Validated: 3073
EndChar

StartChar: Aacute
Encoding: 193 193 198
Width: 1745
Flags: W
HStem: 0 21G<0 354 1281.5 1745> 622 201<665 966> 1490 20G<677 1068>
DStem2: 154 259 437 285 0.418402 0.908262<-154.501 507.938 726.063 1106.31> 599 1225 815 1175 0.418402 0.908262<-890.932 -555.632 -337.507 42.7361> 1146 1225 815 1175 0.418402 -0.908262<-91.5628 289.809 508.77 1125.46>
LayerCount: 2
Fore
SplineSet
0 0 m 1,0,1
 95 131 95 131 154 259 c 2,2,-1
 599 1225 l 2,3,4
 655 1347 655 1347 699 1510 c 1,5,-1
 1046 1510 l 1,6,7
 1090 1347 1090 1347 1146 1225 c 2,8,-1
 1591 259 l 2,9,10
 1648 136 1648 136 1745 0 c 1,11,-1
 1298 0 l 1,12,13
 1265 130 1265 130 1198 285 c 2,14,-1
 1053 622 l 1,15,-1
 580 622 l 1,16,-1
 437 285 l 2,17,18
 371 131 371 131 337 0 c 1,19,-1
 0 0 l 1,0,1
665 823 m 1,20,-1
 966 823 l 1,21,-1
 815 1175 l 1,22,-1
 665 823 l 1,20,-1
914 1950 m 1,23,-1
 1276 1950 l 1,24,-1
 1276 1940 l 1,25,26
 1225 1671 1225 1671 973 1550 c 1,27,-1
 710 1550 l 1,28,-1
 710 1560 l 1,29,30
 914 1708 914 1708 914 1950 c 1,23,-1
EndSplineSet
Validated: 3073
EndChar

StartChar: Acircumflex
Encoding: 194 194 199
Width: 1745
Flags: W
HStem: 0 21G<0 354 1281.5 1745> 622 201<665 966> 1490 20G<677 1068> 1550 400<699.146 813.87 949.786 1064.38>
DStem2: 154 259 437 285 0.418402 0.908262<-154.501 507.938 726.063 1106.31> 599 1225 815 1175 0.418402 0.908262<-890.932 -555.632 -337.507 42.7361> 1146 1225 815 1175 0.418402 -0.908262<-91.5628 289.809 508.77 1125.46>
LayerCount: 2
Fore
SplineSet
0 0 m 1,0,1
 95 131 95 131 154 259 c 2,2,-1
 599 1225 l 2,3,4
 655 1347 655 1347 699 1510 c 1,5,-1
 1046 1510 l 1,6,7
 1090 1347 1090 1347 1146 1225 c 2,8,-1
 1591 259 l 2,9,10
 1648 136 1648 136 1745 0 c 1,11,-1
 1298 0 l 1,12,13
 1265 130 1265 130 1198 285 c 2,14,-1
 1053 622 l 1,15,-1
 580 622 l 1,16,-1
 437 285 l 2,17,18
 371 131 371 131 337 0 c 1,19,-1
 0 0 l 1,0,1
665 823 m 1,20,-1
 966 823 l 1,21,-1
 815 1175 l 1,22,-1
 665 823 l 1,20,-1
707 1950 m 1,23,-1
 1055 1950 l 1,24,25
 1099 1711 1099 1711 1272 1560 c 1,26,-1
 1272 1550 l 1,27,-1
 973 1550 l 1,28,29
 901 1672 901 1672 881 1825 c 1,30,31
 862 1673 862 1673 791 1550 c 1,32,-1
 490 1550 l 1,33,-1
 490 1560 l 1,34,35
 672 1712 672 1712 707 1950 c 1,23,-1
EndSplineSet
Validated: 3073
EndChar

StartChar: Atilde
Encoding: 195 195 200
Width: 1745
Flags: W
HStem: 0 21G<0 354 1281.5 1745> 622 201<665 966> 1490 20G<677 1068> 1560 230<946.347 1119.77> 1720 230<632.183 807.127>
VStem: 576 9<1560 1574.65> 1166 10<1930.62 1950>
DStem2: 154 259 437 285 0.418402 0.908262<-154.501 507.938 726.063 1106.31> 599 1225 815 1175 0.418402 0.908262<-890.932 -555.632 -337.507 42.7361> 1146 1225 815 1175 0.418402 -0.908262<-91.5628 289.809 508.77 1125.46>
LayerCount: 2
Fore
SplineSet
0 0 m 1,0,1
 95 131 95 131 154 259 c 2,2,-1
 599 1225 l 2,3,4
 655 1347 655 1347 699 1510 c 1,5,-1
 1046 1510 l 1,6,7
 1090 1347 1090 1347 1146 1225 c 2,8,-1
 1591 259 l 2,9,10
 1648 136 1648 136 1745 0 c 1,11,-1
 1298 0 l 1,12,13
 1265 130 1265 130 1198 285 c 2,14,-1
 1053 622 l 1,15,-1
 580 622 l 1,16,-1
 437 285 l 2,17,18
 371 131 371 131 337 0 c 1,19,-1
 0 0 l 1,0,1
665 823 m 1,20,-1
 966 823 l 1,21,-1
 815 1175 l 1,22,-1
 665 823 l 1,20,-1
576 1866 m 1,23,24
 641 1950 641 1950 723 1950 c 0,25,26
 801 1949 801 1949 874 1891 c 2,27,-1
 959 1824 l 2,28,29
 1000 1790 1000 1790 1038 1790 c 0,30,31
 1132 1790 1132 1790 1166 1950 c 1,32,-1
 1176 1950 l 1,33,-1
 1176 1644 l 1,34,35
 1111 1560 1111 1560 1030 1560 c 0,36,37
 950 1560 950 1560 877 1619 c 2,38,-1
 793 1687 l 2,39,40
 752 1720 752 1720 714 1720 c 0,41,42
 620 1720 620 1720 585 1560 c 1,43,-1
 576 1560 l 1,44,-1
 576 1866 l 1,23,24
EndSplineSet
Validated: 3073
EndChar

StartChar: Adieresis
Encoding: 196 196 201
Width: 1745
Flags: W
HStem: 0 21G<0 354 1281.5 1745> 622 201<665 966> 1490 20G<677 1068> 1568 352<575.097 804.615 947.097 1176.61>
VStem: 516 348<1627.11 1860.89> 888 348<1627.11 1860.89>
DStem2: 154 259 437 285 0.418402 0.908262<-154.501 507.938 726.063 1106.31> 599 1225 815 1175 0.418402 0.908262<-890.932 -555.632 -337.507 42.7361> 1146 1225 815 1175 0.418402 -0.908262<-91.5628 289.809 508.77 1125.46>
LayerCount: 2
Fore
SplineSet
0 0 m 1,0,1
 95 131 95 131 154 259 c 2,2,-1
 599 1225 l 2,3,4
 655 1347 655 1347 699 1510 c 1,5,-1
 1046 1510 l 1,6,7
 1090 1347 1090 1347 1146 1225 c 2,8,-1
 1591 259 l 2,9,10
 1648 136 1648 136 1745 0 c 1,11,-1
 1298 0 l 1,12,13
 1265 130 1265 130 1198 285 c 2,14,-1
 1053 622 l 1,15,-1
 580 622 l 1,16,-1
 437 285 l 2,17,18
 371 131 371 131 337 0 c 1,19,-1
 0 0 l 1,0,1
665 823 m 1,20,-1
 966 823 l 1,21,-1
 815 1175 l 1,22,-1
 665 823 l 1,20,-1
1062 1920 m 0,23,24
 1132 1920 1132 1920 1185 1868 c 0,25,26
 1236 1818 1236 1818 1236 1744 c 128,-1,27
 1236 1670 1236 1670 1185 1619 c 128,-1,28
 1134 1568 1134 1568 1062 1568 c 128,-1,29
 990 1568 990 1568 939 1619.5 c 128,-1,30
 888 1671 888 1671 888 1744 c 0,31,32
 888 1818 888 1818 939 1869 c 128,-1,33
 990 1920 990 1920 1062 1920 c 0,23,24
690 1920 m 0,34,35
 760 1920 760 1920 813 1868 c 0,36,37
 864 1818 864 1818 864 1744 c 128,-1,38
 864 1670 864 1670 813 1619 c 128,-1,39
 762 1568 762 1568 690 1568 c 128,-1,40
 618 1568 618 1568 567 1619.5 c 128,-1,41
 516 1671 516 1671 516 1744 c 0,42,43
 516 1818 516 1818 567 1869 c 128,-1,44
 618 1920 618 1920 690 1920 c 0,34,35
EndSplineSet
Validated: 3073
EndChar

StartChar: Aring
Encoding: 197 197 202
Width: 1745
Flags: W
HStem: 0 21G<0 354 1281.5 1745> 622 201<665 966> 1490 20G<677 1068> 1546 145<809.197 902.367> 1805 145<816.471 908.68>
VStem: 656 144<1701.38 1795.12> 912 144<1701.38 1803.32>
DStem2: 154 259 437 285 0.418402 0.908262<-154.501 507.938 726.063 1106.31> 599 1225 815 1175 0.418402 0.908262<-890.932 -555.632 -337.507 42.7361> 1146 1225 815 1175 0.418402 -0.908262<-91.5628 289.809 508.77 1125.46>
LayerCount: 2
Fore
SplineSet
0 0 m 1,0,1
 95 131 95 131 154 259 c 2,2,-1
 599 1225 l 2,3,4
 655 1347 655 1347 699 1510 c 1,5,-1
 1046 1510 l 1,6,7
 1090 1347 1090 1347 1146 1225 c 2,8,-1
 1591 259 l 2,9,10
 1648 136 1648 136 1745 0 c 1,11,-1
 1298 0 l 1,12,13
 1265 130 1265 130 1198 285 c 2,14,-1
 1053 622 l 1,15,-1
 580 622 l 1,16,-1
 437 285 l 2,17,18
 371 131 371 131 337 0 c 1,19,-1
 0 0 l 1,0,1
665 823 m 1,20,-1
 966 823 l 1,21,-1
 815 1175 l 1,22,-1
 665 823 l 1,20,-1
856 1691 m 0,23,24
 881 1691 881 1691 896 1708 c 0,25,26
 912 1726 912 1726 912 1748 c 0,27,28
 912 1772 912 1772 896 1788 c 0,29,30
 878 1806 878 1806 857 1805 c 0,31,32
 831 1804 831 1804 816 1788 c 0,33,34
 800 1771 800 1771 800 1748 c 0,35,36
 800 1726 800 1726 816 1708 c 0,37,38
 832 1691 832 1691 856 1691 c 0,23,24
858 1950 m 0,39,40
 939 1950 939 1950 997 1891 c 0,41,42
 1056 1830 1056 1830 1056 1749 c 0,43,44
 1056 1665 1056 1665 997 1606 c 0,45,46
 937 1546 937 1546 856 1546 c 0,47,48
 773 1546 773 1546 715 1606 c 1,49,50
 656 1665 656 1665 656 1749 c 0,51,52
 656 1831 656 1831 715 1891 c 0,53,54
 773 1950 773 1950 858 1950 c 0,39,40
EndSplineSet
Validated: 3073
EndChar

StartChar: Amacron
Encoding: 256 256 203
Width: 1745
Flags: W
HStem: 0 21G<0 354 1281.5 1745> 622 201<665 966> 1490 20G<677 1068> 1636 224<582.688 1173.25>
DStem2: 154 259 437 285 0.418402 0.908262<-154.501 507.938 726.063 1106.31> 599 1225 815 1175 0.418402 0.908262<-890.932 -555.632 -337.507 42.7361> 1146 1225 815 1175 0.418402 -0.908262<-91.5628 289.809 508.77 1125.46>
LayerCount: 2
Fore
SplineSet
0 0 m 1,0,1
 95 131 95 131 154 259 c 2,2,-1
 599 1225 l 2,3,4
 655 1347 655 1347 699 1510 c 1,5,-1
 1046 1510 l 1,6,7
 1090 1347 1090 1347 1146 1225 c 2,8,-1
 1591 259 l 2,9,10
 1648 136 1648 136 1745 0 c 1,11,-1
 1298 0 l 1,12,13
 1265 130 1265 130 1198 285 c 2,14,-1
 1053 622 l 1,15,-1
 580 622 l 1,16,-1
 437 285 l 2,17,18
 371 131 371 131 337 0 c 1,19,-1
 0 0 l 1,0,1
665 823 m 1,20,-1
 966 823 l 1,21,-1
 815 1175 l 1,22,-1
 665 823 l 1,20,-1
578 1890 m 1,23,24
 728 1860 728 1860 878 1860 c 0,25,26
 1026 1860 1026 1860 1178 1890 c 1,27,-1
 1178 1606 l 1,28,29
 1027 1636 1027 1636 878 1636 c 0,30,31
 728 1636 728 1636 578 1606 c 1,32,-1
 578 1890 l 1,23,24
EndSplineSet
Validated: 3073
EndChar

StartChar: Abreve
Encoding: 258 258 204
Width: 1745
Flags: W
HStem: 0 21G<0 354 1281.5 1745> 622 201<665 966> 1490 20G<677 1068> 1581 234<700.219 1051.78>
DStem2: 154 259 437 285 0.418402 0.908262<-154.501 507.938 726.063 1106.31> 599 1225 815 1175 0.418402 0.908262<-890.932 -555.632 -337.507 42.7361> 1146 1225 815 1175 0.418402 -0.908262<-91.5628 289.809 508.77 1125.46>
LayerCount: 2
Fore
SplineSet
0 0 m 1,0,1
 95 131 95 131 154 259 c 2,2,-1
 599 1225 l 2,3,4
 655 1347 655 1347 699 1510 c 1,5,-1
 1046 1510 l 1,6,7
 1090 1347 1090 1347 1146 1225 c 2,8,-1
 1591 259 l 2,9,10
 1648 136 1648 136 1745 0 c 1,11,-1
 1298 0 l 1,12,13
 1265 130 1265 130 1198 285 c 2,14,-1
 1053 622 l 1,15,-1
 580 622 l 1,16,-1
 437 285 l 2,17,18
 371 131 371 131 337 0 c 1,19,-1
 0 0 l 1,0,1
665 823 m 1,20,-1
 966 823 l 1,21,-1
 815 1175 l 1,22,-1
 665 823 l 1,20,-1
576 1950 m 1,23,-1
 586 1950 l 1,24,25
 705 1815 705 1815 876 1815 c 128,-1,26
 1047 1815 1047 1815 1166 1950 c 1,27,-1
 1176 1950 l 1,28,-1
 1176 1657 l 1,29,30
 1040 1581 1040 1581 876 1581 c 128,-1,31
 712 1581 712 1581 576 1657 c 1,32,-1
 576 1950 l 1,23,-1
EndSplineSet
Validated: 3073
EndChar

StartChar: Aogonek
Encoding: 260 260 205
Width: 1745
Flags: W
HStem: -430 213<1445.69 1561> 0 21G<0 353.5> 622 201<665 966> 1490 20G<677 1068>
VStem: 1194 232<-325.5 -67.4896>
DStem2: 154 259 437 285 0.418402 0.908262<-154.626 507.938 726.063 1076.53>
LayerCount: 2
Fore
SplineSet
665 823 m 1,0,-1
 966 823 l 1,1,-1
 815 1175 l 1,2,-1
 665 823 l 1,0,-1
0 0 m 1,3,4
 95 131 95 131 154 259 c 2,5,-1
 599 1225 l 2,6,7
 655 1347 655 1347 699 1510 c 1,8,-1
 1046 1510 l 1,9,10
 1090 1347 1090 1347 1146 1225 c 2,11,-1
 1591 259 l 2,12,13
 1648 136 1648 136 1745 0 c 1,14,-1
 1496 0 l 1,15,16
 1426 -51 1426 -51 1426 -117 c 0,17,18
 1426 -217 1426 -217 1561 -217 c 1,19,-1
 1561 -430 l 1,20,21
 1194 -430 1194 -430 1194 -221 c 0,22,23
 1194 -95 1194 -95 1297 4 c 1,24,25
 1264 131 1264 131 1198 285 c 2,26,-1
 1053 622 l 1,27,-1
 580 622 l 1,28,-1
 437 285 l 2,29,30
 370 127 370 127 337 0 c 1,31,-1
 0 0 l 1,3,4
EndSplineSet
Validated: 3073
EndChar

StartChar: Ccedilla
Encoding: 199 199 206
Width: 1656
Flags: W
HStem: -430 213<743 858.315> 1304 226<764.292 1147.45>
VStem: 100 370<521.23 993.448> 878 232<-325.5 -67.2491>
LayerCount: 2
Fore
SplineSet
1506 562 m 1,0,-1
 1506 173 l 1,1,2
 1312 6 1312 6 1027 -17 c 1,3,4
 1110 -108 1110 -108 1110 -221 c 0,5,6
 1110 -430 1110 -430 743 -430 c 1,7,-1
 743 -217 l 1,8,9
 878 -217 878 -217 878 -117 c 0,10,11
 878 -60 878 -60 825 -14 c 1,12,13
 545 17 545 17 338 205 c 0,14,15
 100 421 100 421 100 755 c 0,16,17
 100 1080 100 1080 337 1305 c 0,18,19
 573 1530 573 1530 928 1530 c 0,20,21
 1197 1530 1197 1530 1419 1414 c 1,22,-1
 1419 962 l 1,23,-1
 1409 962 l 1,24,25
 1364 1066 1364 1066 1283 1154 c 0,26,27
 1145 1304 1145 1304 960 1304 c 0,28,29
 750 1304 750 1304 604 1136 c 0,30,31
 470 982 470 982 470 756 c 128,-1,32
 470 530 470 530 612 366 c 0,33,34
 751 206 751 206 993 206 c 0,35,36
 1251 206 1251 206 1496 562 c 1,37,-1
 1506 562 l 1,0,-1
EndSplineSet
Validated: 3073
EndChar

StartChar: Cacute
Encoding: 262 262 207
Width: 1656
Flags: W
HStem: -20 226<769.474 1169.3> 1304 226<764.292 1147.45>
VStem: 100 370<521.465 993.448>
LayerCount: 2
Fore
SplineSet
1506 562 m 1,0,-1
 1506 173 l 1,1,2
 1282 -20 1282 -20 938 -20 c 0,3,4
 585 -20 585 -20 338 205 c 0,5,6
 100 422 100 422 100 755 c 0,7,8
 100 1080 100 1080 337 1305 c 0,9,10
 573 1530 573 1530 928 1530 c 0,11,12
 1197 1530 1197 1530 1419 1414 c 1,13,-1
 1419 962 l 1,14,-1
 1409 962 l 1,15,16
 1364 1066 1364 1066 1283 1154 c 0,17,18
 1145 1304 1145 1304 960 1304 c 0,19,20
 750 1304 750 1304 604 1136 c 0,21,22
 470 982 470 982 470 756 c 128,-1,23
 470 530 470 530 612 366 c 0,24,25
 751 206 751 206 993 206 c 0,26,27
 1251 206 1251 206 1496 562 c 1,28,-1
 1506 562 l 1,0,-1
995 1950 m 1,29,-1
 1357 1950 l 1,30,-1
 1357 1940 l 1,31,32
 1306 1671 1306 1671 1054 1550 c 1,33,-1
 791 1550 l 1,34,-1
 791 1560 l 1,35,36
 995 1708 995 1708 995 1950 c 1,29,-1
EndSplineSet
Validated: 3073
EndChar

StartChar: Ccircumflex
Encoding: 264 264 208
Width: 1656
Flags: W
HStem: -20 226<769.474 1169.3> 1304 226<764.292 1147.45> 1550 400<749.146 863.87 999.786 1114.38>
VStem: 100 370<521.465 993.448>
LayerCount: 2
Fore
SplineSet
1506 562 m 1,0,-1
 1506 173 l 1,1,2
 1282 -20 1282 -20 938 -20 c 0,3,4
 585 -20 585 -20 338 205 c 0,5,6
 100 422 100 422 100 755 c 0,7,8
 100 1080 100 1080 337 1305 c 0,9,10
 573 1530 573 1530 928 1530 c 0,11,12
 1197 1530 1197 1530 1419 1414 c 1,13,-1
 1419 962 l 1,14,-1
 1409 962 l 1,15,16
 1364 1066 1364 1066 1283 1154 c 0,17,18
 1145 1304 1145 1304 960 1304 c 0,19,20
 750 1304 750 1304 604 1136 c 0,21,22
 470 982 470 982 470 756 c 128,-1,23
 470 530 470 530 612 366 c 0,24,25
 751 206 751 206 993 206 c 0,26,27
 1251 206 1251 206 1496 562 c 1,28,-1
 1506 562 l 1,0,-1
757 1950 m 1,29,-1
 1105 1950 l 1,30,31
 1149 1711 1149 1711 1322 1560 c 1,32,-1
 1322 1550 l 1,33,-1
 1023 1550 l 1,34,35
 951 1672 951 1672 931 1825 c 1,36,37
 912 1673 912 1673 841 1550 c 1,38,-1
 540 1550 l 1,39,-1
 540 1560 l 1,40,41
 722 1712 722 1712 757 1950 c 1,29,-1
EndSplineSet
Validated: 3073
EndChar

StartChar: Cdotaccent
Encoding: 266 266 209
Width: 1656
Flags: W
HStem: -20 226<769.474 1169.3> 1304 226<764.292 1147.45> 1563 387<805.797 1046.2>
VStem: 100 370<521.465 993.448> 735 382<1632.15 1880.65>
LayerCount: 2
Fore
SplineSet
1506 562 m 1,0,-1
 1506 173 l 1,1,2
 1282 -20 1282 -20 938 -20 c 0,3,4
 585 -20 585 -20 338 205 c 0,5,6
 100 422 100 422 100 755 c 0,7,8
 100 1080 100 1080 337 1305 c 0,9,10
 573 1530 573 1530 928 1530 c 0,11,12
 1197 1530 1197 1530 1419 1414 c 1,13,-1
 1419 962 l 1,14,-1
 1409 962 l 1,15,16
 1364 1066 1364 1066 1283 1154 c 0,17,18
 1145 1304 1145 1304 960 1304 c 0,19,20
 750 1304 750 1304 604 1136 c 0,21,22
 470 982 470 982 470 756 c 128,-1,23
 470 530 470 530 612 366 c 0,24,25
 751 206 751 206 993 206 c 0,26,27
 1251 206 1251 206 1496 562 c 1,28,-1
 1506 562 l 1,0,-1
926 1950 m 0,29,30
 1003 1950 1003 1950 1061 1893 c 0,31,32
 1117 1838 1117 1838 1117 1756 c 0,33,34
 1117 1675 1117 1675 1061 1619 c 128,-1,35
 1005 1563 1005 1563 926 1563 c 0,36,37
 849 1564 849 1564 791 1620 c 0,38,39
 735 1674 735 1674 735 1756 c 0,40,41
 735 1837 735 1837 791 1894 c 0,42,43
 847 1950 847 1950 926 1950 c 0,29,30
EndSplineSet
Validated: 3073
EndChar

StartChar: Ccaron
Encoding: 268 268 210
Width: 1656
Flags: W
HStem: -20 226<769.474 1169.3> 1304 226<764.292 1147.45> 1550 400<749.146 863.87 999.786 1114.38>
VStem: 100 370<521.465 993.448>
LayerCount: 2
Fore
SplineSet
1506 562 m 1,0,-1
 1506 173 l 1,1,2
 1282 -20 1282 -20 938 -20 c 0,3,4
 585 -20 585 -20 338 205 c 0,5,6
 100 422 100 422 100 755 c 0,7,8
 100 1080 100 1080 337 1305 c 0,9,10
 573 1530 573 1530 928 1530 c 0,11,12
 1197 1530 1197 1530 1419 1414 c 1,13,-1
 1419 962 l 1,14,-1
 1409 962 l 1,15,16
 1364 1066 1364 1066 1283 1154 c 0,17,18
 1145 1304 1145 1304 960 1304 c 0,19,20
 750 1304 750 1304 604 1136 c 0,21,22
 470 982 470 982 470 756 c 128,-1,23
 470 530 470 530 612 366 c 0,24,25
 751 206 751 206 993 206 c 0,26,27
 1251 206 1251 206 1496 562 c 1,28,-1
 1506 562 l 1,0,-1
540 1950 m 1,29,-1
 841 1950 l 1,30,31
 912 1827 912 1827 931 1675 c 1,32,33
 951 1828 951 1828 1023 1950 c 1,34,-1
 1322 1950 l 1,35,-1
 1322 1940 l 1,36,37
 1149 1789 1149 1789 1105 1550 c 1,38,-1
 757 1550 l 1,39,40
 722 1788 722 1788 540 1940 c 1,41,-1
 540 1950 l 1,29,-1
EndSplineSet
Validated: 3073
EndChar

StartChar: Eth
Encoding: 208 208 211
Width: 1736
Flags: W
HStem: 0 224<550.534 1002.37> 649 224<550 878.251> 1286 224<550.534 1012.69>
VStem: 200 350<225.188 642 880 1284.78> 1266 370<504.965 1004.11>
LayerCount: 2
Fore
SplineSet
170 0 m 1,0,1
 200 150 200 150 200 300 c 2,2,-1
 200 642 l 1,3,4
 125 634 125 634 50 619 c 1,5,-1
 50 903 l 1,6,7
 125 888 125 888 200 880 c 1,8,-1
 200 1210 l 2,9,10
 200 1360 200 1360 170 1510 c 1,11,-1
 811 1510 l 2,12,13
 1192 1510 1192 1510 1414 1288 c 128,-1,14
 1636 1066 1636 1066 1636 755 c 0,15,16
 1636 457 1636 457 1411 225 c 0,17,18
 1193 0 1193 0 811 0 c 2,19,-1
 170 0 l 1,0,1
553 224 m 1,20,-1
 811 224 l 2,21,22
 1016 224 1016 224 1158 392 c 0,23,24
 1266 520 1266 520 1266 755 c 0,25,26
 1266 988 1266 988 1148 1134 c 0,27,28
 1025 1286 1025 1286 811 1286 c 2,29,-1
 553 1286 l 1,30,31
 550 1247 550 1247 550 1210 c 2,32,-1
 550 873 l 1,33,-1
 583 873 l 2,34,35
 731 873 731 873 883 903 c 1,36,-1
 883 619 l 1,37,38
 732 649 732 649 583 649 c 2,39,-1
 550 649 l 1,40,-1
 550 300 l 2,41,42
 550 262 550 262 553 224 c 1,20,-1
EndSplineSet
Validated: 3073
EndChar

StartChar: Dcaron
Encoding: 270 270 212
Width: 1736
Flags: W
HStem: 0 224<550.534 1001.98> 1286 224<550.534 1012.69> 1550 400<649.146 763.87 899.786 1014.38>
VStem: 200 350<225.188 1284.78> 1266 370<504.965 1004.11>
LayerCount: 2
Fore
SplineSet
553 224 m 1,0,-1
 811 224 l 2,1,2
 1016 224 1016 224 1158 392 c 0,3,4
 1266 520 1266 520 1266 755 c 0,5,6
 1266 988 1266 988 1148 1134 c 0,7,8
 1025 1286 1025 1286 811 1286 c 2,9,-1
 553 1286 l 1,10,11
 550 1247 550 1247 550 1210 c 2,12,-1
 550 300 l 2,13,14
 550 262 550 262 553 224 c 1,0,-1
440 1950 m 1,15,-1
 741 1950 l 1,16,17
 812 1827 812 1827 831 1675 c 1,18,19
 851 1828 851 1828 923 1950 c 1,20,-1
 1222 1950 l 1,21,-1
 1222 1940 l 1,22,23
 1049 1789 1049 1789 1005 1550 c 1,24,-1
 657 1550 l 1,25,26
 622 1788 622 1788 440 1940 c 1,27,-1
 440 1950 l 1,15,-1
170 0 m 1,28,29
 200 150 200 150 200 300 c 2,30,-1
 200 1210 l 2,31,32
 200 1360 200 1360 170 1510 c 1,33,-1
 811 1510 l 2,34,35
 1192 1510 1192 1510 1414 1288 c 128,-1,36
 1636 1066 1636 1066 1636 755 c 0,37,38
 1636 457 1636 457 1411 225 c 0,39,40
 1192 0 1192 0 811 0 c 2,41,-1
 170 0 l 1,28,29
EndSplineSet
Validated: 3073
EndChar

StartChar: Dcroat
Encoding: 272 272 213
Width: 1736
Flags: W
HStem: 0 224<550.534 1002.37> 649 224<550 878.251> 1286 224<550.534 1012.69>
VStem: 200 350<225.188 642 880 1284.78> 1266 370<504.965 1004.11>
LayerCount: 2
Fore
SplineSet
170 0 m 1,0,1
 200 150 200 150 200 300 c 2,2,-1
 200 642 l 1,3,4
 125 634 125 634 50 619 c 1,5,-1
 50 903 l 1,6,7
 125 888 125 888 200 880 c 1,8,-1
 200 1210 l 2,9,10
 200 1360 200 1360 170 1510 c 1,11,-1
 811 1510 l 2,12,13
 1192 1510 1192 1510 1414 1288 c 128,-1,14
 1636 1066 1636 1066 1636 755 c 0,15,16
 1636 457 1636 457 1411 225 c 0,17,18
 1193 0 1193 0 811 0 c 2,19,-1
 170 0 l 1,0,1
553 224 m 1,20,-1
 811 224 l 2,21,22
 1016 224 1016 224 1158 392 c 0,23,24
 1266 520 1266 520 1266 755 c 0,25,26
 1266 988 1266 988 1148 1134 c 0,27,28
 1025 1286 1025 1286 811 1286 c 2,29,-1
 553 1286 l 1,30,31
 550 1247 550 1247 550 1210 c 2,32,-1
 550 873 l 1,33,-1
 583 873 l 2,34,35
 731 873 731 873 883 903 c 1,36,-1
 883 619 l 1,37,38
 732 649 732 649 583 649 c 2,39,-1
 550 649 l 1,40,-1
 550 300 l 2,41,42
 550 262 550 262 553 224 c 1,20,-1
EndSplineSet
Validated: 3073
EndChar

StartChar: Egrave
Encoding: 200 200 214
Width: 1228
Flags: W
HStem: 0 224<550.495 1123.56> 647 224<550 1003.31> 1286 224<550.66 1003.31>
VStem: 200 350<225.157 647 871 1284.87 1786.33 1950>
LayerCount: 2
Fore
SplineSet
170 0 m 1,0,1
 200 150 200 150 200 300 c 2,2,-1
 200 1210 l 2,3,4
 200 1360 200 1360 170 1510 c 1,5,-1
 1008 1510 l 1,6,-1
 1008 1256 l 1,7,8
 858 1286 858 1286 708 1286 c 2,9,-1
 554 1286 l 1,10,11
 550 1250 550 1250 550 1210 c 2,12,-1
 550 871 l 1,13,-1
 708 871 l 2,14,15
 858 871 858 871 1008 901 c 1,16,-1
 1008 617 l 1,17,18
 858 647 858 647 708 647 c 2,19,-1
 550 647 l 1,20,-1
 550 300 l 2,21,22
 550 261 550 261 553 224 c 1,23,-1
 828 224 l 2,24,25
 986 224 986 224 1128 254 c 1,26,-1
 1128 0 l 1,27,-1
 170 0 l 1,0,1
190 1950 m 1,28,-1
 552 1950 l 1,29,30
 552 1708 552 1708 756 1560 c 1,31,-1
 756 1550 l 1,32,-1
 493 1550 l 1,33,34
 241 1671 241 1671 190 1940 c 1,35,-1
 190 1950 l 1,28,-1
EndSplineSet
Validated: 3073
EndChar

StartChar: Eacute
Encoding: 201 201 215
Width: 1228
Flags: W
HStem: 0 224<550.495 1123.56> 647 224<550 1003.31> 1286 224<550.66 1003.31>
VStem: 200 350<225.157 647 871 1284.87>
LayerCount: 2
Fore
SplineSet
170 0 m 1,0,1
 200 150 200 150 200 300 c 2,2,-1
 200 1210 l 2,3,4
 200 1360 200 1360 170 1510 c 1,5,-1
 1008 1510 l 1,6,-1
 1008 1256 l 1,7,8
 858 1286 858 1286 708 1286 c 2,9,-1
 554 1286 l 1,10,11
 550 1250 550 1250 550 1210 c 2,12,-1
 550 871 l 1,13,-1
 708 871 l 2,14,15
 858 871 858 871 1008 901 c 1,16,-1
 1008 617 l 1,17,18
 858 647 858 647 708 647 c 2,19,-1
 550 647 l 1,20,-1
 550 300 l 2,21,22
 550 261 550 261 553 224 c 1,23,-1
 828 224 l 2,24,25
 986 224 986 224 1128 254 c 1,26,-1
 1128 0 l 1,27,-1
 170 0 l 1,0,1
615 1950 m 1,28,-1
 977 1950 l 1,29,-1
 977 1940 l 1,30,31
 926 1671 926 1671 674 1550 c 1,32,-1
 411 1550 l 1,33,-1
 411 1560 l 1,34,35
 615 1708 615 1708 615 1950 c 1,28,-1
EndSplineSet
Validated: 3073
EndChar

StartChar: Ecircumflex
Encoding: 202 202 216
Width: 1228
Flags: W
HStem: 0 224<550.495 1123.56> 647 224<550 1003.31> 1286 224<550.66 1003.31> 1550 400<399.146 513.87 649.786 764.384>
VStem: 200 350<225.157 647 871 1284.87>
LayerCount: 2
Fore
SplineSet
170 0 m 1,0,1
 200 150 200 150 200 300 c 2,2,-1
 200 1210 l 2,3,4
 200 1360 200 1360 170 1510 c 1,5,-1
 1008 1510 l 1,6,-1
 1008 1256 l 1,7,8
 858 1286 858 1286 708 1286 c 2,9,-1
 554 1286 l 1,10,11
 550 1250 550 1250 550 1210 c 2,12,-1
 550 871 l 1,13,-1
 708 871 l 2,14,15
 858 871 858 871 1008 901 c 1,16,-1
 1008 617 l 1,17,18
 858 647 858 647 708 647 c 2,19,-1
 550 647 l 1,20,-1
 550 300 l 2,21,22
 550 261 550 261 553 224 c 1,23,-1
 828 224 l 2,24,25
 986 224 986 224 1128 254 c 1,26,-1
 1128 0 l 1,27,-1
 170 0 l 1,0,1
407 1950 m 1,28,-1
 755 1950 l 1,29,30
 799 1711 799 1711 972 1560 c 1,31,-1
 972 1550 l 1,32,-1
 673 1550 l 1,33,34
 601 1672 601 1672 581 1825 c 1,35,36
 562 1673 562 1673 491 1550 c 1,37,-1
 190 1550 l 1,38,-1
 190 1560 l 1,39,40
 372 1712 372 1712 407 1950 c 1,28,-1
EndSplineSet
Validated: 3073
EndChar

StartChar: Edieresis
Encoding: 203 203 217
Width: 1228
Flags: W
HStem: 0 224<550.495 1123.56> 647 224<550 1003.31> 1286 224<550.66 1003.31> 1568 352<325.097 554.615 697.097 926.615>
VStem: 200 350<225.157 647 871 1284.87> 266 348<1627.11 1860.89> 638 348<1627.11 1860.89>
LayerCount: 2
Fore
SplineSet
170 0 m 1,0,1
 200 150 200 150 200 300 c 2,2,-1
 200 1210 l 2,3,4
 200 1360 200 1360 170 1510 c 1,5,-1
 1008 1510 l 1,6,-1
 1008 1256 l 1,7,8
 858 1286 858 1286 708 1286 c 2,9,-1
 554 1286 l 1,10,11
 550 1250 550 1250 550 1210 c 2,12,-1
 550 871 l 1,13,-1
 708 871 l 2,14,15
 858 871 858 871 1008 901 c 1,16,-1
 1008 617 l 1,17,18
 858 647 858 647 708 647 c 2,19,-1
 550 647 l 1,20,-1
 550 300 l 2,21,22
 550 261 550 261 553 224 c 1,23,-1
 828 224 l 2,24,25
 986 224 986 224 1128 254 c 1,26,-1
 1128 0 l 1,27,-1
 170 0 l 1,0,1
812 1920 m 0,28,29
 882 1920 882 1920 935 1868 c 0,30,31
 986 1818 986 1818 986 1744 c 128,-1,32
 986 1670 986 1670 935 1619 c 128,-1,33
 884 1568 884 1568 812 1568 c 128,-1,34
 740 1568 740 1568 689 1619.5 c 128,-1,35
 638 1671 638 1671 638 1744 c 0,36,37
 638 1818 638 1818 689 1869 c 128,-1,38
 740 1920 740 1920 812 1920 c 0,28,29
440 1920 m 0,39,40
 510 1920 510 1920 563 1868 c 0,41,42
 614 1818 614 1818 614 1744 c 128,-1,43
 614 1670 614 1670 563 1619 c 128,-1,44
 512 1568 512 1568 440 1568 c 128,-1,45
 368 1568 368 1568 317 1619.5 c 128,-1,46
 266 1671 266 1671 266 1744 c 0,47,48
 266 1818 266 1818 317 1869 c 128,-1,49
 368 1920 368 1920 440 1920 c 0,39,40
EndSplineSet
Validated: 3073
EndChar

StartChar: Emacron
Encoding: 274 274 218
Width: 1228
Flags: W
HStem: 0 224<550.495 1123.56> 647 224<550 1003.31> 1286 224<550.66 1003.31> 1636 224<332.688 923.251>
VStem: 200 350<225.157 647 871 1284.87>
LayerCount: 2
Fore
SplineSet
170 0 m 1,0,1
 200 150 200 150 200 300 c 2,2,-1
 200 1210 l 2,3,4
 200 1360 200 1360 170 1510 c 1,5,-1
 1008 1510 l 1,6,-1
 1008 1256 l 1,7,8
 858 1286 858 1286 708 1286 c 2,9,-1
 554 1286 l 1,10,11
 550 1250 550 1250 550 1210 c 2,12,-1
 550 871 l 1,13,-1
 708 871 l 2,14,15
 858 871 858 871 1008 901 c 1,16,-1
 1008 617 l 1,17,18
 858 647 858 647 708 647 c 2,19,-1
 550 647 l 1,20,-1
 550 300 l 2,21,22
 550 261 550 261 553 224 c 1,23,-1
 828 224 l 2,24,25
 986 224 986 224 1128 254 c 1,26,-1
 1128 0 l 1,27,-1
 170 0 l 1,0,1
328 1890 m 1,28,29
 478 1860 478 1860 628 1860 c 0,30,31
 776 1860 776 1860 928 1890 c 1,32,-1
 928 1606 l 1,33,34
 777 1636 777 1636 628 1636 c 0,35,36
 478 1636 478 1636 328 1606 c 1,37,-1
 328 1890 l 1,28,29
EndSplineSet
Validated: 3073
EndChar

StartChar: Ebreve
Encoding: 276 276 219
Width: 1228
Flags: W
HStem: 0 224<550.495 1123.56> 647 224<550 1003.31> 1286 224<550.66 1003.31> 1581 234<450.219 801.781>
VStem: 200 350<225.157 647 871 1284.87>
LayerCount: 2
Fore
SplineSet
170 0 m 1,0,1
 200 150 200 150 200 300 c 2,2,-1
 200 1210 l 2,3,4
 200 1360 200 1360 170 1510 c 1,5,-1
 1008 1510 l 1,6,-1
 1008 1256 l 1,7,8
 858 1286 858 1286 708 1286 c 2,9,-1
 554 1286 l 1,10,11
 550 1250 550 1250 550 1210 c 2,12,-1
 550 871 l 1,13,-1
 708 871 l 2,14,15
 858 871 858 871 1008 901 c 1,16,-1
 1008 617 l 1,17,18
 858 647 858 647 708 647 c 2,19,-1
 550 647 l 1,20,-1
 550 300 l 2,21,22
 550 261 550 261 553 224 c 1,23,-1
 828 224 l 2,24,25
 986 224 986 224 1128 254 c 1,26,-1
 1128 0 l 1,27,-1
 170 0 l 1,0,1
326 1950 m 1,28,-1
 336 1950 l 1,29,30
 455 1815 455 1815 626 1815 c 128,-1,31
 797 1815 797 1815 916 1950 c 1,32,-1
 926 1950 l 1,33,-1
 926 1657 l 1,34,35
 790 1581 790 1581 626 1581 c 128,-1,36
 462 1581 462 1581 326 1657 c 1,37,-1
 326 1950 l 1,28,-1
EndSplineSet
Validated: 3073
EndChar

StartChar: Edotaccent
Encoding: 278 278 220
Width: 1228
Flags: W
HStem: 0 224<550.495 1123.56> 647 224<550 1003.31> 1286 224<550.66 1003.31> 1563 387<505.797 746.203>
VStem: 200 350<225.157 647 871 1284.87> 435 382<1632.15 1880.65>
LayerCount: 2
Fore
SplineSet
170 0 m 1,0,1
 200 150 200 150 200 300 c 2,2,-1
 200 1210 l 2,3,4
 200 1360 200 1360 170 1510 c 1,5,-1
 1008 1510 l 1,6,-1
 1008 1256 l 1,7,8
 858 1286 858 1286 708 1286 c 2,9,-1
 554 1286 l 1,10,11
 550 1250 550 1250 550 1210 c 2,12,-1
 550 871 l 1,13,-1
 708 871 l 2,14,15
 858 871 858 871 1008 901 c 1,16,-1
 1008 617 l 1,17,18
 858 647 858 647 708 647 c 2,19,-1
 550 647 l 1,20,-1
 550 300 l 2,21,22
 550 261 550 261 553 224 c 1,23,-1
 828 224 l 2,24,25
 986 224 986 224 1128 254 c 1,26,-1
 1128 0 l 1,27,-1
 170 0 l 1,0,1
626 1950 m 0,28,29
 703 1950 703 1950 761 1893 c 0,30,31
 817 1838 817 1838 817 1756 c 0,32,33
 817 1675 817 1675 761 1619 c 128,-1,34
 705 1563 705 1563 626 1563 c 0,35,36
 549 1564 549 1564 491 1620 c 0,37,38
 435 1674 435 1674 435 1756 c 0,39,40
 435 1837 435 1837 491 1894 c 0,41,42
 547 1950 547 1950 626 1950 c 0,28,29
EndSplineSet
Validated: 3073
EndChar

StartChar: Eogonek
Encoding: 280 280 221
Width: 1228
Flags: W
HStem: -430 213<999.685 1115> 0 254<557.297 847 1004.68 1128> -0 224<550.495 842.777> 647 224<550 1003.31> 1286 224<550.66 1003.31>
VStem: 200 350<225.157 647 871 1284.87> 748 232<-325.5 -67.1448>
LayerCount: 2
Fore
SplineSet
170 0 m 1,0,1
 200 150 200 150 200 300 c 2,2,-1
 200 1210 l 2,3,4
 200 1360 200 1360 170 1510 c 1,5,-1
 1008 1510 l 1,6,-1
 1008 1256 l 1,7,8
 858 1286 858 1286 708 1286 c 2,9,-1
 554 1286 l 1,10,11
 550 1250 550 1250 550 1210 c 2,12,-1
 550 871 l 1,13,-1
 708 871 l 2,14,15
 858 871 858 871 1008 901 c 1,16,-1
 1008 617 l 1,17,18
 858 647 858 647 708 647 c 2,19,-1
 550 647 l 1,20,-1
 550 300 l 2,21,22
 550 261 550 261 553 224 c 1,23,-1
 828 224 l 2,24,25
 986 224 986 224 1128 254 c 1,26,-1
 1128 0 l 1,27,-1
 1050 -0 l 1,28,29
 980 -51 980 -51 980 -117 c 0,30,31
 980 -217 980 -217 1115 -217 c 1,32,-1
 1115 -430 l 1,33,34
 748 -430 748 -430 748 -221 c 0,35,36
 748 -97 748 -97 847 -0 c 1,37,-1
 170 0 l 1,0,1
EndSplineSet
Validated: 3073
EndChar

StartChar: Ecaron
Encoding: 282 282 222
Width: 1228
Flags: W
HStem: 0 224<550.495 1123.56> 647 224<550 1003.31> 1286 224<550.66 1003.31> 1550 400<449.146 563.87 699.786 814.384>
VStem: 200 350<225.157 647 871 1284.87>
LayerCount: 2
Fore
SplineSet
170 0 m 1,0,1
 200 150 200 150 200 300 c 2,2,-1
 200 1210 l 2,3,4
 200 1360 200 1360 170 1510 c 1,5,-1
 1008 1510 l 1,6,-1
 1008 1256 l 1,7,8
 858 1286 858 1286 708 1286 c 2,9,-1
 554 1286 l 1,10,11
 550 1250 550 1250 550 1210 c 2,12,-1
 550 871 l 1,13,-1
 708 871 l 2,14,15
 858 871 858 871 1008 901 c 1,16,-1
 1008 617 l 1,17,18
 858 647 858 647 708 647 c 2,19,-1
 550 647 l 1,20,-1
 550 300 l 2,21,22
 550 261 550 261 553 224 c 1,23,-1
 828 224 l 2,24,25
 986 224 986 224 1128 254 c 1,26,-1
 1128 0 l 1,27,-1
 170 0 l 1,0,1
240 1950 m 1,28,-1
 541 1950 l 1,29,30
 612 1827 612 1827 631 1675 c 1,31,32
 651 1828 651 1828 723 1950 c 1,33,-1
 1022 1950 l 1,34,-1
 1022 1940 l 1,35,36
 849 1789 849 1789 805 1550 c 1,37,-1
 457 1550 l 1,38,39
 422 1788 422 1788 240 1940 c 1,40,-1
 240 1950 l 1,28,-1
EndSplineSet
Validated: 3073
EndChar

StartChar: uni0191
Encoding: 401 401 223
Width: 1188
Flags: W
HStem: -430 21G<20 285> 647 224<550 1003.31> 1286 224<550.766 1003.31>
VStem: 200 350<-233.175 647 871 1283.24>
LayerCount: 2
Fore
SplineSet
20 -430 m 1,0,-1
 20 -420 l 1,1,2
 200 -286 200 -286 200 -49 c 2,3,-1
 200 1210 l 2,4,5
 200 1398 200 1398 170 1510 c 1,6,-1
 1008 1510 l 1,7,-1
 1008 1256 l 1,8,9
 858 1286 858 1286 708 1286 c 2,10,-1
 554 1286 l 1,11,12
 550 1244 550 1244 550 1210 c 2,13,-1
 550 871 l 1,14,-1
 708 871 l 2,15,16
 858 871 858 871 1008 901 c 1,17,-1
 1008 617 l 1,18,19
 858 647 858 647 708 647 c 2,20,-1
 550 647 l 1,21,-1
 550 -49 l 2,22,23
 550 -430 550 -430 20 -430 c 1,0,-1
EndSplineSet
Validated: 3073
EndChar

StartChar: Gcircumflex
Encoding: 284 284 224
Width: 1776
Flags: W
HStem: -22 226<730.192 1105.47> 647 222<922.226 1276> 1304 226<764.526 1147.45> 1550 400<749.146 863.87 999.786 1114.38>
VStem: 100 370<493.806 992.769> 1276 350<355.908 647>
LayerCount: 2
Fore
SplineSet
1626 869 m 1,0,-1
 1626 368 l 1,1,2
 1339 -22 1339 -22 928 -22 c 0,3,4
 564 -22 564 -22 333 202 c 0,5,6
 100 429 100 429 100 753.5 c 128,-1,7
 100 1078 100 1078 339 1306 c 0,8,9
 574 1530 574 1530 928 1530 c 0,10,11
 1197 1530 1197 1530 1419 1414 c 1,12,-1
 1419 962 l 1,13,-1
 1409 962 l 1,14,15
 1364 1066 1364 1066 1283 1154 c 0,16,17
 1145 1304 1145 1304 960 1304 c 0,18,19
 750 1304 750 1304 604 1136 c 0,20,21
 470 982 470 982 470 756 c 0,22,23
 470 501 470 501 596 352 c 0,24,25
 722 204 722 204 928 204 c 0,26,27
 1138 204 1138 204 1276 406 c 1,28,-1
 1276 647 l 1,29,-1
 1218 647 l 2,30,31
 1053 647 1053 647 918 617 c 1,32,-1
 918 869 l 1,33,-1
 1626 869 l 1,0,-1
757 1950 m 1,34,-1
 1105 1950 l 1,35,36
 1149 1711 1149 1711 1322 1560 c 1,37,-1
 1322 1550 l 1,38,-1
 1023 1550 l 1,39,40
 951 1672 951 1672 931 1825 c 1,41,42
 912 1673 912 1673 841 1550 c 1,43,-1
 540 1550 l 1,44,-1
 540 1560 l 1,45,46
 722 1712 722 1712 757 1950 c 1,34,-1
EndSplineSet
Validated: 3073
EndChar

StartChar: Gbreve
Encoding: 286 286 225
Width: 1776
Flags: W
HStem: -22 226<730.192 1105.47> 647 222<922.226 1276> 1304 226<764.526 1147.45> 1581 234<750.219 1101.78>
VStem: 100 370<493.806 992.769> 1276 350<355.908 647>
LayerCount: 2
Fore
SplineSet
1626 869 m 1,0,-1
 1626 368 l 1,1,2
 1339 -22 1339 -22 928 -22 c 0,3,4
 564 -22 564 -22 333 202 c 0,5,6
 100 429 100 429 100 753.5 c 128,-1,7
 100 1078 100 1078 339 1306 c 0,8,9
 574 1530 574 1530 928 1530 c 0,10,11
 1197 1530 1197 1530 1419 1414 c 1,12,-1
 1419 962 l 1,13,-1
 1409 962 l 1,14,15
 1364 1066 1364 1066 1283 1154 c 0,16,17
 1145 1304 1145 1304 960 1304 c 0,18,19
 750 1304 750 1304 604 1136 c 0,20,21
 470 982 470 982 470 756 c 0,22,23
 470 501 470 501 596 352 c 0,24,25
 722 204 722 204 928 204 c 0,26,27
 1138 204 1138 204 1276 406 c 1,28,-1
 1276 647 l 1,29,-1
 1218 647 l 2,30,31
 1053 647 1053 647 918 617 c 1,32,-1
 918 869 l 1,33,-1
 1626 869 l 1,0,-1
626 1950 m 1,34,-1
 636 1950 l 1,35,36
 755 1815 755 1815 926 1815 c 128,-1,37
 1097 1815 1097 1815 1216 1950 c 1,38,-1
 1226 1950 l 1,39,-1
 1226 1657 l 1,40,41
 1090 1581 1090 1581 926 1581 c 128,-1,42
 762 1581 762 1581 626 1657 c 1,43,-1
 626 1950 l 1,34,-1
EndSplineSet
Validated: 3073
EndChar

StartChar: Gdotaccent
Encoding: 288 288 226
Width: 1776
Flags: W
HStem: -22 226<730.192 1105.47> 647 222<922.226 1276> 1304 226<764.526 1147.45> 1563 387<805.797 1046.2>
VStem: 100 370<493.806 992.769> 735 382<1632.15 1880.65> 1276 350<355.908 647>
LayerCount: 2
Fore
SplineSet
1626 869 m 1,0,-1
 1626 368 l 1,1,2
 1339 -22 1339 -22 928 -22 c 0,3,4
 564 -22 564 -22 333 202 c 0,5,6
 100 429 100 429 100 753.5 c 128,-1,7
 100 1078 100 1078 339 1306 c 0,8,9
 574 1530 574 1530 928 1530 c 0,10,11
 1197 1530 1197 1530 1419 1414 c 1,12,-1
 1419 962 l 1,13,-1
 1409 962 l 1,14,15
 1364 1066 1364 1066 1283 1154 c 0,16,17
 1145 1304 1145 1304 960 1304 c 0,18,19
 750 1304 750 1304 604 1136 c 0,20,21
 470 982 470 982 470 756 c 0,22,23
 470 501 470 501 596 352 c 0,24,25
 722 204 722 204 928 204 c 0,26,27
 1138 204 1138 204 1276 406 c 1,28,-1
 1276 647 l 1,29,-1
 1218 647 l 2,30,31
 1053 647 1053 647 918 617 c 1,32,-1
 918 869 l 1,33,-1
 1626 869 l 1,0,-1
926 1950 m 0,34,35
 1003 1950 1003 1950 1061 1893 c 0,36,37
 1117 1838 1117 1838 1117 1756 c 0,38,39
 1117 1675 1117 1675 1061 1619 c 128,-1,40
 1005 1563 1005 1563 926 1563 c 0,41,42
 849 1564 849 1564 791 1620 c 0,43,44
 735 1674 735 1674 735 1756 c 0,45,46
 735 1837 735 1837 791 1894 c 0,47,48
 847 1950 847 1950 926 1950 c 0,34,35
EndSplineSet
Validated: 3073
EndChar

StartChar: Gcommaaccent
Encoding: 290 290 227
Width: 1776
Flags: W
HStem: -430 21G<497 859> -22 226<730.192 1105.47> 647 222<922.226 1276> 1304 226<764.526 1147.45>
VStem: 100 370<493.806 992.769> 1276 350<355.908 647>
LayerCount: 2
Fore
SplineSet
1626 869 m 1,0,-1
 1626 368 l 1,1,2
 1339 -22 1339 -22 928 -22 c 0,3,4
 564 -22 564 -22 333 202 c 0,5,6
 100 429 100 429 100 753.5 c 128,-1,7
 100 1078 100 1078 339 1306 c 0,8,9
 574 1530 574 1530 928 1530 c 0,10,11
 1197 1530 1197 1530 1419 1414 c 1,12,-1
 1419 962 l 1,13,-1
 1409 962 l 1,14,15
 1364 1066 1364 1066 1283 1154 c 0,16,17
 1145 1304 1145 1304 960 1304 c 0,18,19
 750 1304 750 1304 604 1136 c 0,20,21
 470 982 470 982 470 756 c 0,22,23
 470 501 470 501 596 352 c 0,24,25
 722 204 722 204 928 204 c 0,26,27
 1138 204 1138 204 1276 406 c 1,28,-1
 1276 647 l 1,29,-1
 1218 647 l 2,30,31
 1053 647 1053 647 918 617 c 1,32,-1
 918 869 l 1,33,-1
 1626 869 l 1,0,-1
859 -430 m 1,34,-1
 497 -430 l 1,35,-1
 497 -420 l 1,36,37
 548 -151 548 -151 800 -40 c 1,38,-1
 1063 -40 l 1,39,-1
 1063 -50 l 1,40,41
 859 -198 859 -198 859 -430 c 1,34,-1
EndSplineSet
Validated: 3073
EndChar

StartChar: Hcircumflex
Encoding: 292 292 228
Width: 1720
Flags: W
HStem: 0 21G<170 580 1140 1550> 647 224<550 1170> 1490 20G<170 580 1140 1550> 1550 400<699.146 813.87 949.786 1064.38>
VStem: 200 350<4.6875 647 871 1505.31> 1170 350<4.6875 647 871 1505.31>
LayerCount: 2
Fore
SplineSet
580 0 m 1,0,-1
 170 0 l 1,1,2
 200 150 200 150 200 300 c 2,3,-1
 200 1210 l 2,4,5
 200 1360 200 1360 170 1510 c 1,6,-1
 580 1510 l 1,7,8
 550 1360 550 1360 550 1210 c 2,9,-1
 550 871 l 1,10,-1
 1170 871 l 1,11,-1
 1170 1210 l 2,12,13
 1170 1360 1170 1360 1140 1510 c 1,14,-1
 1550 1510 l 1,15,16
 1520 1360 1520 1360 1520 1210 c 2,17,-1
 1520 300 l 2,18,19
 1520 150 1520 150 1550 0 c 1,20,-1
 1140 0 l 1,21,22
 1170 150 1170 150 1170 300 c 2,23,-1
 1170 647 l 1,24,-1
 550 647 l 1,25,-1
 550 300 l 2,26,27
 550 150 550 150 580 0 c 1,0,-1
707 1950 m 1,28,-1
 1055 1950 l 1,29,30
 1099 1711 1099 1711 1272 1560 c 1,31,-1
 1272 1550 l 1,32,-1
 973 1550 l 1,33,34
 901 1672 901 1672 881 1825 c 1,35,36
 862 1673 862 1673 791 1550 c 1,37,-1
 490 1550 l 1,38,-1
 490 1560 l 1,39,40
 672 1712 672 1712 707 1950 c 1,28,-1
EndSplineSet
Validated: 3073
EndChar

StartChar: Hbar
Encoding: 294 294 229
Width: 1720
Flags: W
HStem: 0 21G<170 580 1140 1550> 647 224<550 1170> 1176 224<562 1158> 1490 20G<170 580 1140 1550>
VStem: 200 350<4.6875 647 871 1168> 1170 350<4.6875 647 871 1168>
LayerCount: 2
Fore
SplineSet
580 0 m 1,0,-1
 170 0 l 1,1,2
 200 150 200 150 200 300 c 2,3,-1
 200 1168 l 1,4,5
 125 1161 125 1161 50 1146 c 1,6,-1
 50 1430 l 1,7,8
 118 1416 118 1416 187 1409 c 1,9,10
 180 1459 180 1459 170 1510 c 1,11,-1
 580 1510 l 1,12,13
 569 1455 569 1455 562 1400 c 1,14,-1
 1158 1400 l 1,15,16
 1151 1455 1151 1455 1140 1510 c 1,17,-1
 1550 1510 l 1,18,19
 1540 1459 1540 1459 1533 1409 c 1,20,21
 1601 1416 1601 1416 1670 1430 c 1,22,-1
 1670 1146 l 1,23,24
 1595 1161 1595 1161 1520 1168 c 1,25,-1
 1520 300 l 2,26,27
 1520 150 1520 150 1550 0 c 1,28,-1
 1140 0 l 1,29,30
 1170 145 1170 145 1170 300 c 2,31,-1
 1170 647 l 1,32,-1
 550 647 l 1,33,-1
 550 300 l 2,34,35
 550 146 550 146 580 0 c 1,0,-1
1170 1176 m 1,36,-1
 550 1176 l 1,37,-1
 550 871 l 1,38,-1
 1170 871 l 1,39,-1
 1170 1176 l 1,36,-1
EndSplineSet
Validated: 3073
EndChar

StartChar: Igrave
Encoding: 204 204 230
Width: 750
Flags: W
HStem: 0 21G<170 580> 1490 20G<170 580>
VStem: 200 350<4.6875 1505.31>
LayerCount: 2
Fore
SplineSet
5 1950 m 1,0,-1
 367 1950 l 1,1,2
 367 1708 367 1708 571 1560 c 1,3,-1
 571 1550 l 1,4,-1
 308 1550 l 1,5,6
 56 1671 56 1671 5 1940 c 1,7,-1
 5 1950 l 1,0,-1
580 0 m 1,8,-1
 170 0 l 1,9,10
 200 150 200 150 200 300 c 2,11,-1
 200 1210 l 2,12,13
 200 1360 200 1360 170 1510 c 1,14,-1
 580 1510 l 1,15,16
 550 1360 550 1360 550 1210 c 2,17,-1
 550 300 l 2,18,19
 550 150 550 150 580 0 c 1,8,-1
EndSplineSet
Validated: 1
EndChar

